<?xml version="1.0" encoding="UTF-8"?>
<svg id="Layer_2" data-name="Layer 2" xmlns="http://www.w3.org/2000/svg" viewBox="0 0 24.96 31.04">
  <defs>
    <style>
      .cls-1 {
        fill: #c4894f;
      }
    </style>
  </defs>
  <g id="Layer_1-2" data-name="Layer 1">
    <g>
      <path class="cls-1" d="M9.96,2.65s0,5.55.03,5.74C2.8,10.3-.41,19.07,4.35,24.98c3.64,4.53,10.22,5.24,14.72,1.51,6.5-5.37,4.14-15.67-3.82-18.03l.11-5.82h3.38c.13.54.16,1.66.16,1.66,0,0-1.13.06-1.44.53l-.07,2.09c3.65,1.8,6.56,5.01,7.33,9.1,2,10.55-9.16,18.68-18.51,13.3C-2.81,24.13-1.75,10.85,7.76,6.92v-2.27s-.74-.03-.74-.03c-.24-.6-.48-1.49.07-1.98h2.86Z"/>
      <circle class="cls-1" cx="12.47" cy="18.53" r="8.54"/>
      <circle cx="8.39" cy="16.62" r="2.42"/>
      <circle cx="16.45" cy="16.36" r="1.81"/>
      <circle cx="15.19" cy="12.28" r="1.44"/>
      <circle cx="11.13" cy="12.17" r="1.02"/>
      <circle class="cls-1" cx="11.9" cy="8.13" r=".71"/>
      <circle class="cls-1" cx="14" cy=".57" r=".49"/>
      <circle class="cls-1" cx="9.89" cy=".79" r=".79"/>
      <circle class="cls-1" cx="12.75" cy="3.03" r="1.02"/>
      <circle cx="13.53" cy="20.28" r="1.04"/>
      <circle cx="17.55" cy="20.87" r=".75"/>
      <circle cx="9.56" cy="21.71" r="1.36"/>
      <path class="cls-1" d="M15.37,2.65h3.31c.61,0,1.11.5,1.11,1.11h0c0,.61-.5,1.11-1.11,1.11h-3.31v-2.21h0Z"/>
      <path class="cls-1" d="M5.54,2.65h3.31c.61,0,1.11.5,1.11,1.11h0c0,.61-.5,1.11-1.11,1.11h-3.31v-2.21h0Z" transform="translate(15.5 7.51) rotate(180)"/>
    </g>
  </g>
</svg>