<?xml version="1.0" encoding="UTF-8"?>
<svg id="Layer_2" data-name="Layer 2" xmlns="http://www.w3.org/2000/svg" viewBox="0 0 25.64 25.64">
  <defs>
    <style>
      .cls-1 {
        fill: none;
        stroke: #000;
        stroke-linecap: round;
        stroke-linejoin: round;
        stroke-width: .98px;
      }

      .cls-2 {
        fill: #c3884f;
      }
    </style>
  </defs>
  <g id="Layer_1-2" data-name="Layer 1">
    <g>
      <circle class="cls-2" cx="12.82" cy="12.82" r="12.82"/>
      <path class="cls-1" d="M17.06,12.36c-.23-2.14-2.04-3.8-4.24-3.8"/>
      <path d="M23.85,22.26l-3.52-3.52c-.41-.41-1-.51-1.5-.3l-.27-.27c1.31-1.4,2.11-3.28,2.11-5.35,0-4.34-3.52-7.85-7.85-7.85s-7.85,3.52-7.85,7.85,3.52,7.85,7.85,7.85c1.9,0,3.63-.67,4.99-1.79l.28.28c-.23.51-.13,1.12.29,1.54l3.52,3.52c.54.54,1.42.54,1.96,0h0c.54-.54.54-1.42,0-1.96ZM12.82,18.04c-2.88,0-5.22-2.34-5.22-5.22s2.34-5.22,5.22-5.22,5.22,2.34,5.22,5.22-2.34,5.22-5.22,5.22Z"/>
    </g>
  </g>
</svg>