<?xml version="1.0" encoding="UTF-8"?>
<svg id="Layer_2" data-name="Layer 2" xmlns="http://www.w3.org/2000/svg" viewBox="0 0 28.98 28.53">
  <defs>
    <style>
      .cls-1 {
        fill: #c4894f;
      }
    </style>
  </defs>
  <g id="Layer_1-2" data-name="Layer 1">
    <g>
      <path d="M24.66,17.83c-1.3,2.83-3.63,5.12-6.48,6.38l-3.43-7.52v-.22c.92-.39,1.73-1.13,2.06-2.07l7.85,3.43Z"/>
      <path class="cls-1" d="M24.66,17.83l-7.85-3.43c-.33.94-1.14,1.68-2.05,2.07v.22s3.42,7.52,3.42,7.52C4.91,30.07-6.59,12.81,4.39,3.21c10.18-8.89,25.96,2.21,20.27,14.62ZM16.9,14.29c1.42-3.58-2.28-6.98-5.78-5.44-2.19.97-3.11,3.69-1.98,5.81,1.06,1.98,3.45,2.68,5.51,1.89l-1.67-3.82,3.92,1.56Z"/>
      <path class="cls-1" d="M18.18,24.21c2.85-1.26,5.18-3.55,6.48-6.38l4.27,4.12c.08.11.05.18,0,.29-.15.32-1.26,1.17-1.58,1.47-1.62,1.58-3.18,3.23-4.81,4.81-.28-.35-.66-.58-.98-.88-.83-.77-2.81-2.59-3.38-3.44Z"/>
      <path d="M16.9,14.29l-3.92-1.56,1.67,3.82c-2.06.78-4.45.09-5.51-1.89-1.13-2.11-.21-4.84,1.98-5.81,3.5-1.55,7.2,1.85,5.78,5.44Z"/>
    </g>
  </g>
</svg>