<?xml version="1.0" encoding="UTF-8"?>
<svg id="Layer_2" data-name="Layer 2" xmlns="http://www.w3.org/2000/svg" viewBox="0 0 28.21 29.07">
  <defs>
    <style>
      .cls-1 {
        fill: #c3884f;
      }
    </style>
  </defs>
  <g id="Layer_1-2" data-name="Layer 1">
    <g>
      <path class="cls-1" d="M.29,11.67c-1.61,8.03,3.71,15.76,11.72,17.18,6.5,1.15,12.8-2.25,15.58-7.92.13-.26.25-.52.36-.79.19-.45.47-1.94.05-2.91-.59-1.33-1.73-1.25-1.73-1.25l-.54-.09-4.72-.81c-1.43-.25-2.41-1.62-2.16-3.06h0c.25-1.43,1.62-2.41,3.06-2.16l2.72.47c1.9.33,3.31-1.74,2.3-3.38C24.83,3.53,21.34.99,17.09.23,9.33-1.16,1.84,3.94.29,11.67Z"/>
      <g>
        <circle cx="21.69" cy="20.44" r="2.35"/>
        <circle cx="16.26" cy="23.88" r="2.35"/>
        <circle cx="9.86" cy="23.19" r="2.35"/>
        <circle cx="5.45" cy="18.38" r="2.35"/>
        <circle cx="5.05" cy="11.14" r="2.35"/>
        <circle cx="9.63" cy="5.97" r="2.35"/>
        <circle cx="16.57" cy="5.17" r="2.35"/>
      </g>
    </g>
  </g>
</svg>