<?xml version="1.0" encoding="UTF-8"?>
<svg id="Layer_2" data-name="Layer 2" xmlns="http://www.w3.org/2000/svg" viewBox="0 0 55.97 30">
  <defs>
    <style>
      .cls-1 {
        fill: #c4894f;
      }
    </style>
  </defs>
  <g id="Layer_1-2" data-name="Layer 1">
    <path class="cls-1" d="M25.83,25.13c-1.15,1.25-2.23,1.92-3.62,2.84-.07.04-.15-.01-.11.14.24-.04.52-.06.77-.06,2.32-.03,4.76.12,7.06,0,2.42-.12,4.02-1.66,6.06-2.71,2.37-1.21,4.26-1.56,6.92-1.39,1.82.11,2.95.41,4.38,1.54.44.35.89.87,1.35,1.16,1.72,1.1,4.08,1.59,6.11,1.55.34,0,.76-.01,1.06-.15l.16,1.74c-.02.09-.27.13-.35.14-1.56.17-3.58-.04-5.08-.5-1.7-.52-2.98-1.61-4.4-2.6-1.67-1.17-3.42-1.23-5.43-1.11-1.78.1-2.66.52-4.17,1.36-1.78.98-3.89,2.62-5.97,2.75-.52.03-1.06-.07-1.6-.06-3.44.04-6.92.1-10.36.12-4.94.02-8.55.09-12.67-3C-4.48,19.08-.46,2.41,12.35.23c14.06-2.4,23.19,14.42,13.49,24.9ZM14.8,2.85c-4.86.11-4.7,7.56.15,7.5,4.89-.05,4.87-7.62-.15-7.5ZM6.6,8.77c-4.59.5-4.08,7.79.78,7.44,4.89-.35,4.44-8.01-.78-7.44ZM22.54,8.77c-4.27.48-4.27,7.07.22,7.44,5.31.43,5.34-8.06-.22-7.44ZM14.8,13.33c-1.98.16-1.97,3.06-.07,3.23,2.38.22,2.33-3.41.07-3.23ZM9.79,18.06c-5.28.54-3.79,8.82,1.48,7.29,4.24-1.24,3.03-7.75-1.48-7.29ZM19.75,18.06c-2.82.29-4.25,3.53-2.66,5.87,1.63,2.38,5.37,2,6.49-.66,1.11-2.64-.99-5.49-3.84-5.2Z"/>
  </g>
</svg>