<?xml version="1.0" encoding="UTF-8"?>
<svg id="Layer_2" data-name="Layer 2" xmlns="http://www.w3.org/2000/svg" viewBox="0 0 28.84 34.39">
  <defs>
    <style>
      .cls-1 {
        fill: #c3884f;
      }
    </style>
  </defs>
  <g id="Layer_1-2" data-name="Layer 1">
    <path class="cls-1" d="M24.35,14.4c-1.82,0-3.39,1.09-4.09,2.65l-2.76-1.17c.12-.38.18-.78.18-1.2,0-2.26-1.83-4.1-4.1-4.1-.23,0-.45.02-.67.06l-1.4-4.34c1.17-.5,1.99-1.66,1.99-3.02,0-1.81-1.47-3.28-3.28-3.28s-3.28,1.47-3.28,3.28,1.47,3.28,3.28,3.28c.21,0,.42-.02.62-.06l1.39,4.31c-1.6.56-2.74,2.08-2.74,3.87,0,.4.06.78.16,1.15l-1.11.27c-.37-.99-1.33-1.69-2.45-1.69-1.44,0-2.62,1.17-2.62,2.61s1.17,2.62,2.62,2.62,2.62-1.17,2.62-2.62c0-.08,0-.16-.01-.24l1.21-.3c.25.51.6.96,1.03,1.32l-3.96,7.5c-.65-.33-1.39-.52-2.17-.52-2.65,0-4.8,2.15-4.8,4.8s2.15,4.8,4.8,4.8,4.8-2.15,4.8-4.8c0-1.63-.81-3.07-2.06-3.94l3.94-7.45c.61.37,1.33.58,2.1.58,1.6,0,2.98-.91,3.65-2.24l2.79,1.18c-.1.38-.16.77-.16,1.18,0,2.48,2.01,4.49,4.49,4.49s4.49-2.01,4.49-4.49-2.01-4.49-4.49-4.49Z"/>
  </g>
</svg>