<?xml version="1.0" encoding="UTF-8"?>
<svg id="Layer_2" data-name="Layer 2" xmlns="http://www.w3.org/2000/svg" viewBox="0 0 45.56 45">
  <defs>
    <style>
      .cls-1 {
        fill: #c3884f;
        fill-rule: evenodd;
      }
    </style>
  </defs>
  <g id="Layer_1-2" data-name="Layer 1">
    <g>
      <path class="cls-1" d="M40.01,23.62h4.72c1.11,0,1.11-1.68,0-1.68h-4.72c-1.11,0-1.11,1.68,0,1.68h0Z"/>
      <path class="cls-1" d="M38.12,14.89l4.08-2.36c.95-.55.12-2-.84-1.45l-4.08,2.36c-.95.55-.12,2,.84,1.45h0Z"/>
      <path class="cls-1" d="M32.12,8.27l2.36-4.08c.55-.95-.9-1.79-1.45-.83l-2.36,4.08c-.55.95.9,1.79,1.45.83h0Z"/>
      <path class="cls-1" d="M5.55,21.94H.83c-1.11,0-1.11,1.68,0,1.68h4.72c1.11,0,1.11-1.68,0-1.68h0Z"/>
      <path class="cls-1" d="M8.27,13.44l-4.09-2.36c-.95-.55-1.79.9-.83,1.45l4.09,2.36c.95.55,1.79-.9.83-1.45h0Z"/>
      <path class="cls-1" d="M14.89,7.44l-2.36-4.09c-.55-.96-2-.12-1.45.83l2.36,4.09c.55.95,2,.12,1.45-.83h0Z"/>
      <path class="cls-1" d="M23.62,5.55c0,1.11-1.68,1.11-1.68,0V.83c0-1.11,1.68-1.11,1.68,0v4.72h0Z"/>
      <g>
        <path class="cls-1" d="M15.29,34.73h14.98c2.01,0,2.01,3.05,0,3.05h-14.98c-2.01,0-2.01-3.05,0-3.05h0Z"/>
        <path class="cls-1" d="M26.01,42.96c-1.28,2.73-5.17,2.73-6.46,0h6.46Z"/>
        <path class="cls-1" d="M28.42,39.31c-.31,1.22-1.42,2.13-2.73,2.13h-5.81c-1.31,0-2.42-.91-2.73-2.13h11.27Z"/>
      </g>
      <path class="cls-1" d="M22.78,9.14c-6.62,0-11.99,5.37-11.99,11.99s5.37,11.99,11.99,11.99,11.99-5.37,11.99-11.99-5.37-11.99-11.99-11.99ZM22.78,15.07c-3.44,0-6.24,2.79-6.24,6.24,0,1.11-1.68,1.11-1.68,0,0-4.37,3.54-7.92,7.92-7.92,1.11,0,1.11,1.68,0,1.68Z"/>
    </g>
  </g>
</svg>