<?xml version="1.0" encoding="UTF-8"?>
<svg xmlns="http://www.w3.org/2000/svg" xmlns:xlink="http://www.w3.org/1999/xlink" viewBox="0 0 166.36 61.67">
  <defs>
    <style>
      .cls-1 {
        fill: #3a3839;
      }

      .cls-2 {
        fill: #fff;
      }

      .cls-3 {
        isolation: isolate;
      }

      .cls-4 {
        letter-spacing: -.12em;
      }

      .cls-5 {
        font-family: Heavitas, Heavitas;
        font-size: 12.32px;
      }

      .cls-5, .cls-6 {
        fill: #a7a9ac;
      }

      .cls-7 {
        fill: url(#linear-gradient);
        mix-blend-mode: multiply;
      }

      .cls-8 {
        opacity: .5;
      }
    </style>
    <linearGradient id="linear-gradient" x1="121.77" y1="33.93" x2="112.38" y2="28.78" gradientUnits="userSpaceOnUse">
      <stop offset="0" stop-color="#fff"/>
      <stop offset=".03" stop-color="#f6f6f6"/>
      <stop offset=".4" stop-color="#8e8e8e"/>
      <stop offset=".69" stop-color="#414141"/>
      <stop offset=".9" stop-color="#121212"/>
      <stop offset="1" stop-color="#000"/>
    </linearGradient>
  </defs>
  <g class="cls-3">
    <g id="Layer_2" data-name="Layer 2">
      <g id="Layer_1-2" data-name="Layer 1">
        <g>
          <g>
            <path class="cls-1" d="M65.76,4.11c0,2.35,1.87,4.2,4.14,4.2,2.42,0,4.27-1.85,4.27-4.2s-1.85-4.11-4.27-4.11c-2.26,0-4.14,1.78-4.14,4.11h0Z"/>
            <path class="cls-6" d="M65.76,4.11c0,2.35,1.87,4.2,4.14,4.2,2.42,0,4.27-1.85,4.27-4.2s-1.85-4.11-4.27-4.11c-2.26,0-4.14,1.78-4.14,4.11h0Z"/>
            <g>
              <path class="cls-2" d="M0,26.68c0,9.12,7.27,16.36,16.38,16.36,4.41,0,8.52-1.85,11.45-4.75,1.44-1.51,1.44-3.93,0-5.28-.71-.78-1.62-1.14-2.56-1.14s-1.92.37-2.7,1.14c-1.64,1.58-3.84,2.56-6.19,2.56-4,0-7.33-2.63-8.41-6.19h20.01c3.98,0,5.05-2.26,4.27-5.46-1.21-7.7-7.9-13.55-15.88-13.55C7.27,10.37,0,17.64,0,26.68h0ZM24.63,24.13H7.97c1.07-3.63,4.41-6.35,8.41-6.35s7.27,2.72,8.25,6.35h0Z"/>
              <path class="cls-2" d="M66.19,14.16v25.2c0,1.99,1.71,3.68,3.7,3.68,2.15,0,3.84-1.69,3.84-3.68V14.16c0-2.08-1.69-3.79-3.84-3.79-1.99,0-3.7,1.71-3.7,3.79h0Z"/>
              <path class="cls-2" d="M136.84,25.11v14.26c0,1.99,1.69,3.68,3.68,3.68,2.15,0,3.79-1.69,3.79-3.68v-14.26c0-4.04,3.34-7.33,7.31-7.33s7.27,3.29,7.27,7.33v14.26c0,1.99,1.71,3.68,3.77,3.68s3.7-1.69,3.7-3.68v-14.26c0-8.04-6.69-14.74-14.74-14.74s-14.78,6.69-14.78,14.74h0Z"/>
              <path class="cls-2" d="M42.44,26.68l-8.82,10.1c-1.42,1.58-1.28,4,.21,5.35.8.57,1.64.91,2.49.91,1.07,0,2.08-.48,2.86-1.28l8.32-9.46,8.18,9.46c.87.8,1.94,1.28,2.92,1.28.87,0,1.64-.34,2.35-.91,1.58-1.35,1.78-3.77.3-5.35l-8.84-10.1,8.84-10.12c1.48-1.48,1.28-3.91-.3-5.19-.57-.64-1.42-1.01-2.35-1.01-1.05,0-2.19.5-2.92,1.21l-8.18,9.55-8.32-9.55c-.78-.78-1.78-1.21-2.86-1.21-.85,0-1.69.37-2.49,1.01-1.49,1.28-1.62,3.7-.21,5.19l8.82,10.12Z"/>
              <path class="cls-2" d="M117.76,10.91c-8.86,0-16.07,7.21-16.07,16.07,0,2.32-.94,4.43-2.46,5.95-1.52,1.52-3.63,2.46-5.95,2.46-4.65,0-8.42-3.77-8.42-8.42s3.77-8.42,8.42-8.42c1.86,0,3.59.61,4.98,1.63l4.62-6.09c-2.68-2.01-6.01-3.19-9.6-3.19-8.86,0-16.07,7.21-16.07,16.07s7.21,16.07,16.07,16.07c4.43,0,8.45-1.8,11.35-4.71.31-.31.6-.63.88-.96,2.95,3.47,7.34,5.67,12.24,5.67,8.86,0,16.07-7.21,16.07-16.07s-7.21-16.07-16.07-16.07ZM117.76,35.39c-4.65,0-8.42-3.77-8.42-8.42s3.77-8.42,8.42-8.42,8.42,3.77,8.42,8.42-3.77,8.42-8.42,8.42Z"/>
            </g>
            <g class="cls-8">
              <path class="cls-7" d="M126.17,26.98c0,4.65-3.77,8.42-8.42,8.42s-8.42-3.77-8.42-8.42c0,3.96-1.44,7.59-3.82,10.4,2.95,3.47,7.34,5.67,12.24,5.67,8.86,0,16.07-7.21,16.07-16.07h-7.65Z"/>
            </g>
          </g>
          <text class="cls-5" transform="translate(39.76 58.35)"><tspan x="0" y="0">Consu</tspan><tspan class="cls-4" x="48.25" y="0">l</tspan><tspan x="54.29" y="0">ting</tspan></text>
        </g>
      </g>
    </g>
  </g>
</svg>