<?xml version="1.0" encoding="UTF-8"?>
<svg id="Layer_2" data-name="Layer 2" xmlns="http://www.w3.org/2000/svg" viewBox="0 0 211.89 40.45">
  <defs>
    <style>
      .cls-1 {
        fill: #f69220;
      }

      .cls-2 {
        fill: #fff;
      }

      .cls-3 {
        fill: #808184;
      }
    </style>
  </defs>
  <g id="Layer_1-2" data-name="Layer 1">
    <g>
      <path class="cls-1" d="M12.08,30.27c-3.43,0-6.31-1.07-8.62-3.23-2.31-2.17-3.46-4.97-3.46-8.39s1.17-6.27,3.53-8.48c2.38-2.23,5.25-3.35,8.62-3.35,2.08,0,4.01.42,5.79,1.25,1.78.83,3.21,1.95,4.29,3.37l-3.43,3.38c-1.78-2.07-3.9-3.1-6.36-3.1-1.95,0-3.6.66-4.96,1.97-1.36,1.31-2.03,2.96-2.03,4.95s.67,3.57,2,4.86c1.33,1.29,2.99,1.94,4.96,1.94,2.54,0,4.72-1.05,6.52-3.14l3.53,3.2c-1.1,1.46-2.57,2.62-4.42,3.49-1.84.87-3.83,1.31-5.94,1.31Z"/>
      <g>
        <path class="cls-1" d="M76.84,20.5V7.22h5.15v22.72h-3.78l-11.48-13.15v13.15h-5.18V7.22h3.56l11.73,13.28Z"/>
        <path class="cls-1" d="M91.56,29.93V12.11h-6.64v-4.89h18.53v4.89h-6.61v17.83h-5.28Z"/>
        <path class="cls-1" d="M106.38,29.93V7.22h5.28v22.72h-5.28Z"/>
        <path class="cls-1" d="M121.8,29.93h-5.18V7.22h3.69l8.87,12.36,8.81-12.36h3.75v22.72h-5.25v-12.02l-6.39,8.82h-1.91l-6.39-8.82v12.02Z"/>
        <path class="cls-1" d="M163.07,29.93h-16.37V7.22h16.4v4.73h-11.13v4.21h10.3v4.7h-10.3v4.33h11.1v4.73Z"/>
        <path class="cls-1" d="M176.48,29.93h-9.22V7.22h9.38c3.6,0,6.4,1.03,8.39,3.07,2.03,2.03,3.05,4.79,3.05,8.3s-1.03,6.29-3.08,8.3c-2.08,2.03-4.92,3.04-8.52,3.04ZM172.51,12.11v12.94h4.2c1.91,0,3.37-.61,4.39-1.84,1.04-1.25,1.56-2.8,1.56-4.64s-.52-3.4-1.56-4.61c-1.02-1.23-2.48-1.84-4.39-1.84h-4.2Z"/>
        <path class="cls-1" d="M210.66,29.93h-5.47l-1.56-4.58h-7.89l-1.62,4.58h-5.47l8.81-22.72h4.58l8.62,22.72ZM202.23,20.9l-2.51-7.19-2.54,7.19h5.05Z"/>
      </g>
      <g>
        <path class="cls-2" d="M55.98,23.34c.02-.06.03-.13.02-.19,0-.06-.02-.12-.05-.18-.06-.11-.16-.19-.29-.23-.13-.04-.26-.02-.37.03-.05.03-.1.06-.14.11-.04.04-.07.09-.09.15-.02.06-.03.12-.02.18,0,.06.02.12.05.17.06.11.15.19.28.24.13.04.26.04.37-.02.06-.03.11-.06.15-.11.04-.05.07-.1.09-.17"/>
        <path class="cls-2" d="M54.85,24.06l.86.34c-.01.08.04.17.12.2.1.04.21,0,.25-.11.02-.05.02-.11,0-.15-.02-.05-.06-.08-.11-.1-.09-.03-.19,0-.24.08l-.85-.34c.03-.11.02-.22-.03-.31-.05-.09-.14-.17-.25-.21-.12-.04-.24-.04-.34,0-.05.02-.1.05-.14.09-.02.02-.04.04-.05.06-.02.02-.03.05-.04.07-.04.1-.03.21.02.31.01.03.03.05.04.07.02.02.04.04.06.06.04.04.09.08.15.1.1.04.22.05.32.02.1-.03.18-.09.24-.19"/>
        <path class="cls-2" d="M53.81,24.65l2.08.99s0,.05,0,.08c0,.03,0,.05.02.08.02.05.06.08.11.11.11.06.25,0,.31-.12.06-.12.01-.26-.1-.31-.1-.05-.22,0-.29.09l-2.08-.98s.02-.09.02-.14c0-.05-.01-.09-.04-.14-.04-.09-.12-.16-.22-.21-.11-.05-.22-.05-.31-.02-.09.03-.18.09-.22.18-.02.04-.03.09-.03.14s.01.1.03.14c.04.09.11.17.22.23.09.05.19.06.29.04.05,0,.09-.03.13-.05.02-.01.04-.03.05-.04.02-.02.03-.03.04-.05"/>
        <path class="cls-2" d="M52.8,25.15l3.12,1.73c-.04.12,0,.26.11.32.13.07.29.02.36-.12.02-.04.03-.07.04-.11,0-.03,0-.07,0-.11-.02-.07-.06-.13-.12-.16-.06-.03-.12-.04-.18-.02-.03,0-.06.02-.08.04-.03.02-.05.04-.07.07l-3.12-1.72s.02-.04.02-.06c0-.02,0-.04,0-.06,0-.04-.01-.08-.03-.12-.03-.08-.1-.15-.19-.2-.09-.05-.2-.06-.29-.04-.09.02-.16.07-.21.14-.04.08-.04.17-.01.25.03.08.1.16.19.22.08.05.18.07.26.06.08-.01.16-.05.21-.11"/>
        <path class="cls-2" d="M51.98,25.69l3.67,2.35c-.07.14-.03.3.09.38.07.04.15.05.22.03.04-.01.07-.03.11-.05.03-.02.06-.06.09-.1.1-.15.06-.35-.08-.43-.12-.08-.29-.04-.39.08l-3.67-2.33c.03-.07.03-.15,0-.22-.03-.07-.09-.14-.16-.19-.08-.05-.18-.07-.26-.06-.08,0-.15.05-.19.11-.02.03-.03.07-.04.11,0,.04,0,.08.02.12.02.08.08.15.16.21.15.1.33.09.43-.02"/>
        <path class="cls-2" d="M56.99,22.53c.03-.12,0-.25-.05-.35-.06-.1-.16-.18-.28-.2-.11-.03-.22,0-.31.04-.09.05-.17.13-.21.23l-.89-.23c0-.09-.05-.18-.15-.2-.1-.02-.21.03-.23.13,0,.05,0,.09.03.13.02.04.07.07.12.09.08.02.17-.01.21-.07l.89.23c-.03.11,0,.23.05.33.03.05.07.09.11.13.04.03.1.06.15.08.06.02.12.02.18.01.06,0,.11-.03.16-.06.1-.06.18-.16.21-.28"/>
        <path class="cls-2" d="M57.87,21.6c.01-.06.01-.12,0-.18,0-.06-.03-.11-.06-.16-.06-.09-.16-.16-.27-.18-.1-.02-.2,0-.29.06-.04.03-.08.06-.11.1-.03.04-.06.08-.07.13l-2.26-.42c0-.05-.02-.1-.05-.14-.04-.04-.08-.07-.14-.08-.06,0-.12,0-.17.03-.05.03-.08.07-.09.12-.02.11.06.21.19.24.1.02.2-.02.24-.1l2.26.43c-.02.11.01.22.07.31.06.09.15.16.26.18.11.02.23,0,.32-.07.02-.02.04-.03.06-.05.02-.02.04-.04.05-.07.03-.05.05-.1.07-.17"/>
        <path class="cls-2" d="M58.64,20.57c.02-.12-.02-.23-.08-.31-.06-.08-.15-.14-.26-.15-.1,0-.19.02-.26.07-.07.05-.13.13-.16.23l-3.54-.43c0-.11-.1-.21-.23-.23-.14-.02-.27.07-.28.18,0,.06.01.11.06.16.04.04.1.08.17.09.12.02.23-.04.27-.13l3.54.45c0,.11.02.21.08.29.06.08.15.14.25.15.11.01.21-.02.29-.08.08-.07.14-.17.15-.28"/>
        <path class="cls-2" d="M58.73,19.81c.1,0,.19-.03.26-.1.07-.07.11-.16.12-.28,0-.06,0-.11-.02-.16,0-.02-.02-.05-.03-.07-.01-.02-.03-.04-.04-.06-.06-.07-.15-.12-.24-.13-.09,0-.17.03-.23.08-.03.03-.06.06-.08.1-.02.04-.04.08-.05.12l-4.35-.26c0-.13-.12-.23-.28-.24-.08,0-.15.02-.21.06-.01,0-.03.02-.04.03-.01.01-.02.02-.03.04-.02.03-.03.06-.03.09,0,.13.12.24.28.25.14.01.26-.06.29-.16l4.35.28c0,.05,0,.1.03.14.02.05.04.09.07.12.06.07.14.12.23.13"/>
        <path class="cls-2" d="M58.98,18.62c.09,0,.17-.04.23-.1.06-.07.1-.16.1-.26,0,0,0-.01,0-.02h-6.01c.01.13.15.23.32.24.16,0,.29-.08.32-.2h4.73c.01.19.15.34.32.35"/>
        <path class="cls-2" d="M46.43,35.88c-.03-.08-.08-.13-.15-.17-.07-.03-.15-.05-.24-.03l-1.47-4.49s.05-.04.07-.06c.01-.01.02-.03.03-.04,0-.01.02-.03.02-.05.02-.07.02-.15,0-.22-.03-.08-.08-.15-.14-.19-.06-.04-.13-.06-.2-.04l.2.61,1.46,4.49.2.61c.09-.03.17-.09.21-.17.04-.08.05-.16.02-.25"/>
        <path class="cls-2" d="M50,31.56c.05-.04.1-.09.13-.14.02-.03.03-.06.04-.08,0-.03.02-.06.02-.09.01-.12-.02-.25-.1-.35-.08-.11-.2-.17-.31-.19-.03,0-.06,0-.09,0-.03,0-.06,0-.09.01-.06.01-.11.04-.17.07-.05.04-.09.08-.12.13-.03.05-.05.11-.06.17-.02.12,0,.25.08.36.07.11.19.18.31.2.06.01.12.01.19,0,.06-.01.12-.04.17-.08"/>
        <path class="cls-2" d="M48.67,31.48l.49.78c-.06.06-.08.16-.03.24.06.09.18.12.27.06.02-.02.04-.03.06-.06.01-.02.02-.04.03-.07.01-.05,0-.1-.03-.15-.02-.04-.06-.07-.1-.08-.04-.01-.09-.01-.13,0l-.49-.77s.04-.03.06-.06c.02-.02.04-.04.05-.07.02-.05.04-.1.05-.15.01-.11-.01-.22-.08-.32-.07-.1-.17-.17-.28-.2-.05-.02-.11-.02-.16-.01-.05,0-.1.03-.15.06-.09.06-.15.15-.17.26-.02.11,0,.23.06.33.06.1.15.17.25.2.1.03.21.03.31-.02"/>
        <path class="cls-2" d="M47.48,31.35l1.1,2.02s-.07.08-.08.13c-.01.05,0,.11.02.16.03.05.08.09.14.11.03,0,.06.01.09,0,.03,0,.06-.01.09-.03.12-.07.16-.21.1-.31-.06-.1-.17-.13-.28-.1l-1.11-2.01c.08-.06.13-.14.15-.23.02-.1,0-.2-.06-.3-.06-.1-.15-.17-.24-.2-.09-.04-.19-.03-.28.02-.02.01-.04.03-.06.04-.02.02-.03.03-.05.05-.03.04-.05.08-.06.13-.02.1-.01.21.04.31.05.09.13.17.21.2.04.02.09.03.14.03.05,0,.09,0,.14-.02"/>
        <path class="cls-2" d="M46.36,31.16l1.51,3.23c-.11.07-.16.21-.11.33.06.13.22.18.37.11.07-.03.12-.09.15-.15.03-.07.03-.14,0-.2-.06-.11-.19-.16-.32-.13l-1.53-3.22s.07-.05.09-.09c.02-.04.04-.08.05-.12.02-.09,0-.18-.04-.27-.05-.1-.12-.17-.21-.2-.04-.02-.08-.03-.13-.03-.04,0-.08,0-.12.02-.08.04-.13.11-.15.2-.03.09-.02.19.02.29.04.09.1.16.18.2.08.04.16.05.24.03"/>
        <path class="cls-2" d="M45.39,31.12l1.59,4.05c-.14.07-.21.23-.16.37.03.08.09.13.16.16.07.03.16.03.25,0,.17-.07.26-.24.2-.39-.06-.13-.21-.2-.36-.16l-1.61-4.04c.13-.08.18-.26.1-.42-.04-.09-.1-.16-.17-.2-.07-.04-.15-.05-.22-.02-.07.03-.12.09-.15.17-.02.08-.02.17,0,.26.06.17.22.27.36.24"/>
        <path class="cls-2" d="M51.29,31.5c.1-.08.16-.2.17-.31,0-.03,0-.06,0-.09,0-.03,0-.06-.02-.09-.02-.06-.05-.11-.09-.16-.04-.04-.08-.08-.13-.1-.05-.02-.1-.04-.15-.05-.11-.01-.22,0-.31.07l-.59-.71c.05-.07.05-.17-.01-.24-.07-.08-.19-.1-.26-.03-.07.06-.08.18-.01.26.06.07.15.09.23.06l.58.71c-.08.08-.13.18-.14.29,0,.06,0,.11.02.16.02.05.04.11.08.15.04.05.08.09.14.11.05.03.11.04.17.05.12.01.24-.02.34-.1"/>
        <path class="cls-2" d="M52.55,31.27s.08-.09.1-.14c.02-.05.04-.11.04-.17,0-.11-.03-.22-.11-.3-.08-.08-.18-.12-.28-.12-.05,0-.1,0-.15.02-.02,0-.05.02-.07.03-.02.01-.05.03-.07.04l-1.58-1.67s.02-.04.03-.06c0-.02,0-.05,0-.07,0-.05-.03-.1-.07-.14-.09-.09-.22-.1-.3-.03-.08.08-.07.21.01.3.07.08.19.1.27.05l1.57,1.68s-.07.09-.08.14c-.02.05-.03.1-.03.15,0,.1.03.21.1.29.08.09.18.13.3.13.11,0,.23-.04.32-.13"/>
        <path class="cls-2" d="M53.78,30.89c.08-.09.12-.2.12-.3,0-.1-.04-.2-.12-.28-.07-.07-.17-.1-.26-.09-.09,0-.19.04-.27.1l-2.6-2.44c.06-.09.04-.22-.06-.31-.11-.1-.26-.11-.33-.02-.04.04-.06.1-.05.16,0,.06.04.12.09.17.05.04.1.07.16.08.03,0,.06,0,.08,0,.02,0,.05-.02.07-.03l2.59,2.45s-.03.04-.04.06c-.01.02-.02.05-.03.07-.02.05-.02.1-.02.14,0,.1.04.19.11.26.07.08.18.11.28.1.1,0,.21-.05.29-.14"/>
        <path class="cls-2" d="M54.29,30.33c.07.06.17.09.27.08.09-.01.19-.06.26-.15.04-.04.06-.09.08-.14.02-.05.02-.1.02-.15,0-.09-.05-.19-.13-.25-.14-.11-.35-.09-.49.05l-3.36-2.77c.06-.1.02-.25-.09-.34-.06-.05-.14-.08-.2-.08s-.13.02-.17.07c-.08.1-.05.26.07.37.11.09.25.11.35.03l3.34,2.79c-.11.16-.09.37.04.49"/>
        <path class="cls-2" d="M55.19,29.51c.07.05.16.07.25.05.09-.02.17-.07.23-.15.03-.04.05-.09.06-.13.01-.05.02-.09.01-.14,0-.09-.05-.17-.13-.22-.13-.09-.32-.06-.44.07l-3.82-2.77c.06-.12.01-.28-.13-.38-.07-.05-.16-.07-.23-.07-.02,0-.04,0-.05,0-.02,0-.03.01-.05.02-.03.02-.06.04-.08.07-.04.06-.05.13-.03.2.02.07.06.14.13.2.07.05.14.07.21.08.07,0,.13-.02.18-.06l3.81,2.79s-.04.08-.04.12c0,.02,0,.04,0,.06,0,.02,0,.04,0,.06.01.08.05.15.11.2"/>
        <path class="cls-2" d="M40.32,34.7c.13,0,.25-.06.34-.15.04-.05.08-.1.1-.16.02-.06.04-.12.03-.19,0-.07-.02-.13-.04-.18-.03-.06-.06-.11-.1-.15-.08-.09-.2-.14-.32-.14-.13,0-.24.05-.32.14-.08.09-.14.2-.14.34,0,.13.05.26.13.34.08.09.2.14.34.15"/>
        <path class="cls-2" d="M39.29,33.85l-.06.92c-.08.02-.15.09-.16.18,0,.11.07.2.18.21.11,0,.2-.07.21-.18,0-.1-.06-.18-.15-.2l.06-.91c.06,0,.11-.01.16-.03.05-.02.09-.05.13-.09.07-.08.12-.19.13-.31,0-.12-.04-.24-.11-.32-.04-.04-.08-.07-.12-.1-.05-.03-.1-.04-.15-.05-.11,0-.21.04-.29.11-.08.07-.13.18-.15.31,0,.11.02.22.08.31.03.04.07.08.11.11.04.03.09.05.14.06"/>
        <path class="cls-2" d="M38.4,33.04l-.3,2.28c-.11,0-.2.09-.21.19-.02.12.07.24.21.26.13.02.25-.07.27-.2.01-.11-.06-.21-.17-.25l.28-2.28c.1,0,.19-.03.26-.1.03-.03.06-.08.09-.12.02-.05.04-.1.04-.15,0-.06,0-.11-.01-.16-.01-.05-.03-.1-.06-.14-.06-.08-.14-.14-.24-.15-.1-.01-.19.02-.26.09-.08.07-.13.16-.15.28-.01.1,0,.2.05.29.05.08.12.14.21.17"/>
        <path class="cls-2" d="M37.61,32.23l-.68,3.5c-.07,0-.13.02-.18.06-.05.04-.08.09-.1.15-.03.14.07.28.23.31.08.01.15,0,.21-.04.06-.04.1-.09.11-.17.01-.06,0-.13-.04-.18-.03-.05-.09-.09-.15-.12l.66-3.5s.08,0,.12-.02c.04-.02.08-.04.11-.07.07-.06.11-.15.13-.25.02-.11,0-.21-.05-.29-.02-.04-.05-.07-.08-.1-.03-.03-.07-.05-.12-.05-.04,0-.08,0-.13,0-.04.01-.08.03-.11.06-.07.06-.13.14-.15.25-.02.09,0,.19.03.27.04.08.1.14.17.16"/>
        <path class="cls-2" d="M36.84,31.63l-1.09,4.21c-.15-.02-.3.07-.34.2-.04.15.06.32.24.37.18.04.35-.05.39-.2.03-.14-.05-.29-.2-.35l1.07-4.22c.08.01.15-.01.21-.06.06-.05.11-.13.13-.22.02-.09.01-.19-.02-.26-.04-.07-.09-.13-.17-.15-.08-.02-.15,0-.22.05-.07.05-.12.13-.15.22-.05.17.02.34.15.4"/>
        <path class="cls-2" d="M41.4,35.41c.06,0,.13-.02.18-.05.03-.01.05-.03.08-.05.02-.02.05-.04.06-.06.08-.09.12-.2.11-.33-.01-.11-.06-.21-.13-.28-.04-.04-.08-.07-.13-.09-.05-.02-.1-.04-.15-.04l-.06-.92c.09-.02.15-.1.14-.2,0-.11-.09-.19-.19-.18-.1,0-.17.1-.17.2,0,.09.06.16.14.18l.06.92c-.06,0-.11.02-.16.05-.05.03-.09.06-.13.1-.08.08-.12.2-.12.32,0,.12.06.23.15.31.04.04.09.07.15.09.06.02.12.03.18.02"/>
        <path class="cls-2" d="M42.56,35.96s.03,0,.05,0c.02,0,.03,0,.04-.01.03,0,.06-.02.08-.04.05-.03.09-.07.13-.11.07-.09.1-.2.09-.31-.02-.1-.07-.19-.14-.26-.08-.06-.17-.1-.28-.1l-.29-2.28c.1-.03.16-.13.15-.25-.02-.12-.12-.21-.23-.2-.11.01-.18.12-.17.25.01.1.08.18.17.2l.28,2.28c-.11.02-.21.08-.28.16-.07.08-.1.19-.09.3,0,.06.02.11.05.16.03.05.06.09.11.12.09.07.21.1.33.09"/>
        <path class="cls-2" d="M43.77,36.38c.12-.02.21-.08.28-.17.06-.09.09-.19.07-.29-.02-.09-.07-.17-.15-.22-.02-.01-.04-.03-.06-.04-.02-.01-.04-.02-.06-.03-.05-.01-.09-.02-.14-.02l-.68-3.5c.05-.02.1-.06.13-.11.03-.05.04-.12.02-.19-.02-.07-.05-.13-.1-.16-.05-.04-.11-.06-.16-.05-.06.01-.1.05-.13.1-.03.05-.04.12-.03.19,0,.06.04.11.07.15.04.04.08.06.13.07l.66,3.51c-.05.01-.1.04-.14.06-.04.03-.08.06-.11.1-.06.08-.09.18-.07.28.02.1.08.19.17.25.04.03.09.05.15.06.06,0,.11,0,.17,0"/>
        <path class="cls-2" d="M44.52,36.23c.02.09.09.17.17.22.08.04.19.06.3.03.03,0,.05-.02.08-.03.02-.01.05-.03.07-.04.04-.03.08-.07.1-.1.05-.08.07-.18.05-.27-.05-.17-.22-.27-.4-.25l-1.09-4.21c.12-.04.18-.19.14-.34-.04-.15-.18-.25-.3-.22-.12.03-.19.18-.16.34.03.14.14.23.25.23l1.07,4.22c-.1.03-.18.09-.22.17-.05.08-.07.17-.05.26"/>
        <path class="cls-2" d="M45.73,36.1c.02.09.09.15.17.19.04.02.08.03.13.03.05,0,.09,0,.14-.02,0,0,.01,0,.02,0l-.2-.61-1.46-4.49-.2-.61c-.06.03-.1.08-.12.15-.02.07-.03.15,0,.23.02.07.06.14.12.18.05.04.11.07.17.06l1.45,4.5s-.08.04-.11.07c-.02.01-.03.03-.04.05-.01.02-.02.03-.03.05-.04.07-.05.16-.03.24"/>
        <path class="cls-2" d="M25.45,29.49c.06-.05.1-.12.11-.2.01-.08,0-.16-.04-.24l3.81-2.79s.11.07.18.07c.07,0,.15-.03.21-.07.07-.06.12-.13.14-.2.02-.07.01-.14-.03-.2l-.52.38-3.82,2.78-.52.38c.06.08.14.13.23.15.08.02.17,0,.24-.05"/>
        <path class="cls-2" d="M30.66,31.55c.06.04.11.07.17.08.06.01.13.01.18,0,.12-.02.23-.09.31-.2.08-.11.1-.24.08-.36,0-.06-.03-.12-.06-.17-.03-.05-.07-.1-.12-.14-.05-.04-.11-.06-.17-.07-.06-.01-.12-.01-.18,0-.12.02-.23.08-.31.19-.08.11-.11.23-.1.35,0,.06.03.12.06.17.03.05.07.1.13.14"/>
        <path class="cls-2" d="M30.32,30.26l-.59.71c-.08-.04-.18-.02-.24.05-.07.08-.06.21.03.28.04.04.09.05.14.05.05,0,.1-.03.13-.07.06-.07.06-.17,0-.24l.58-.71c.09.06.2.08.31.06.1-.02.2-.08.28-.17.08-.1.11-.22.1-.33,0-.05-.02-.11-.04-.16-.01-.02-.03-.05-.04-.07-.02-.02-.04-.04-.06-.06-.08-.07-.19-.1-.3-.08-.06,0-.11.02-.16.05-.05.03-.1.06-.14.11-.07.09-.12.19-.12.3,0,.1.04.21.11.28"/>
        <path class="cls-2" d="M30.09,29.09l-1.58,1.67s-.05-.03-.08-.03c-.03,0-.05,0-.08,0-.05,0-.1.03-.14.07-.09.09-.08.24.02.33.1.09.25.09.33,0,.08-.08.08-.2.01-.29l1.57-1.68c.08.06.17.08.27.07.1-.01.19-.06.26-.15.08-.09.12-.19.12-.29,0-.1-.03-.19-.1-.26-.07-.07-.17-.1-.27-.09-.1,0-.2.06-.28.14-.07.07-.12.17-.13.26,0,.05,0,.09.01.14,0,.02.02.04.03.06,0,.02.02.04.04.06"/>
        <path class="cls-2" d="M29.92,27.97l-2.61,2.43c-.1-.08-.25-.09-.35,0-.11.09-.11.27,0,.38.11.12.28.13.38.03.05-.04.07-.1.07-.16,0-.03,0-.06,0-.09,0-.03-.02-.06-.04-.09l2.59-2.45c.06.06.15.08.24.07.09-.01.17-.05.25-.12.07-.08.12-.17.13-.26,0-.04,0-.09-.01-.13-.01-.04-.03-.08-.06-.11-.06-.07-.15-.09-.24-.09-.09,0-.19.04-.27.11-.07.07-.12.15-.13.23-.02.08,0,.17.05.24"/>
        <path class="cls-2" d="M29.65,27.03l-3.36,2.77c-.11-.11-.28-.13-.4-.04-.06.05-.1.12-.1.2,0,.08.02.16.08.23.12.14.31.17.43.06.11-.09.13-.26.05-.39l3.35-2.79c.11.1.3.09.44-.03.07-.06.12-.15.14-.23.02-.08,0-.16-.05-.22-.05-.06-.12-.09-.21-.09s-.17.03-.25.09c-.14.11-.19.29-.11.42"/>
        <path class="cls-2" d="M31.11,32.76c.11.07.24.09.35.06.11-.02.22-.1.28-.2.06-.1.07-.21.06-.32-.02-.11-.07-.2-.16-.27l.49-.78c.08.03.17,0,.22-.09.06-.09.04-.21-.05-.26-.04-.02-.09-.03-.14-.02-.05.01-.09.04-.12.09-.05.08-.04.18.02.24l-.5.78c-.1-.06-.21-.07-.32-.04-.11.03-.21.09-.27.19-.07.1-.09.22-.07.34.01.06.04.11.07.16.03.05.08.09.13.13"/>
        <path class="cls-2" d="M31.72,33.89c.11.06.23.07.34.04.11-.03.2-.1.25-.2.05-.1.06-.2.03-.3-.01-.05-.03-.1-.06-.14-.03-.04-.07-.08-.11-.11l1.1-2.02s.09,0,.14-.01c.05-.02.09-.06.11-.11.03-.06.04-.11.02-.17,0-.03-.02-.05-.03-.07-.02-.02-.03-.04-.06-.05-.09-.06-.22,0-.28.1-.05.1-.04.21.03.27l-1.11,2.01c-.1-.05-.21-.05-.31-.02-.1.03-.19.09-.24.19-.06.1-.07.22-.04.32.03.1.11.2.22.26"/>
        <path class="cls-2" d="M32.46,34.94c.11.05.22.06.32.03.1-.03.19-.1.23-.2.04-.09.04-.19,0-.28-.03-.09-.09-.17-.18-.22l1.51-3.23c.11.03.22-.04.28-.15.06-.13.02-.28-.08-.32-.11-.05-.24.01-.31.14-.03.06-.04.12-.03.17,0,.03.01.05.03.08.01.02.03.04.05.06l-1.53,3.22c-.1-.04-.2-.04-.29,0-.09.03-.17.09-.21.18-.05.09-.05.2-.01.3.02.05.05.09.09.13.04.04.08.07.14.1"/>
        <path class="cls-2" d="M33.16,35.26c-.04.09-.03.19.01.28.04.09.12.16.22.2.05.02.1.03.16.03.05,0,.1,0,.15-.03.09-.03.16-.1.2-.19.06-.17-.03-.36-.2-.45l1.6-4.05c.12.03.25-.06.3-.2.03-.07.03-.15,0-.22-.02-.06-.07-.11-.12-.14-.12-.05-.26.03-.33.18-.05.13-.02.28.08.34l-1.62,4.04c-.19-.06-.38.03-.45.19"/>
        <path class="cls-2" d="M34.21,35.87c-.03.08-.02.17.03.25.02.04.05.07.09.1.04.03.08.05.13.07.1.03.2.03.28,0,.08-.04.14-.1.17-.19.02-.08.01-.16-.03-.23-.04-.07-.1-.13-.18-.17l1.45-4.5c.07.01.13,0,.19-.05.06-.04.1-.11.13-.19.03-.08.02-.17,0-.24-.03-.07-.07-.12-.14-.15-.07-.02-.14,0-.2.03-.06.04-.12.11-.15.19-.05.15,0,.31.11.37l-1.47,4.49c-.17-.03-.35.05-.4.2"/>
        <path class="cls-2" d="M24.68,23.32c.02.06.05.12.09.17.04.04.09.08.15.11.11.05.24.06.37.02.13-.04.22-.13.28-.24.03-.06.04-.11.05-.17,0-.06,0-.12-.02-.18-.02-.06-.05-.11-.09-.16-.04-.04-.09-.08-.14-.11-.11-.06-.24-.07-.37-.03-.13.04-.23.12-.29.23-.03.05-.05.11-.06.18,0,.06,0,.13.02.19"/>
        <path class="cls-2" d="M25.17,22.07l-.9.22c-.04-.07-.13-.12-.22-.09-.1.02-.17.13-.14.24,0,.03.02.05.04.07.01.02.03.04.06.05.04.03.1.04.15.02.09-.02.15-.11.14-.21l.89-.23c.04.11.11.19.21.24.1.05.21.06.33.03.12-.03.22-.11.28-.2.06-.09.08-.2.05-.31-.03-.11-.1-.19-.19-.24-.1-.05-.22-.07-.34-.04-.06.01-.11.03-.15.06-.02.01-.04.03-.06.05-.02.02-.04.04-.05.06-.06.08-.09.19-.08.29"/>
        <path class="cls-2" d="M25.67,20.99l-2.26.42s-.06-.09-.1-.12c-.04-.03-.09-.04-.15-.03-.06.01-.11.05-.15.1-.03.05-.05.11-.03.18.02.13.14.22.27.19.11-.02.19-.13.18-.24l2.26-.43s.04.09.06.13c.02.02.03.03.05.05.02.01.04.03.06.04.09.05.19.06.3.04.11-.02.21-.08.27-.17.02-.02.03-.04.04-.06.01-.02.02-.05.03-.07.01-.05.02-.09,0-.14,0-.05-.03-.09-.06-.13-.03-.04-.06-.07-.11-.1-.08-.05-.19-.07-.31-.06-.1.02-.19.07-.26.13-.03.04-.06.07-.07.12-.02.04-.02.09-.02.13"/>
        <path class="cls-2" d="M26.19,19.98l-3.54.43c-.04-.13-.15-.21-.28-.2-.14.01-.24.15-.22.31,0,.02,0,.04.01.06,0,.02.01.03.02.05.02.03.04.06.07.08.05.05.12.07.19.06.13-.02.22-.14.22-.27l3.54-.45c.02.09.07.16.15.2.07.04.17.06.27.05.11-.02.2-.07.26-.13.03-.03.05-.07.07-.11,0-.02.01-.04.01-.06,0-.01,0-.02,0-.03,0-.01,0-.02,0-.03,0-.09-.06-.16-.14-.21-.08-.05-.18-.08-.28-.07-.1.01-.18.05-.24.11-.06.06-.1.13-.1.21"/>
        <path class="cls-2" d="M26.53,19.07l-4.35.25c-.03-.15-.15-.26-.3-.26-.08,0-.15.04-.2.11-.05.06-.08.15-.07.24,0,.09.04.17.1.23.06.05.13.09.21.08.07,0,.14-.04.18-.09.05-.05.08-.12.08-.2l4.34-.28c.02.07.06.14.13.18.07.04.15.07.25.06.1,0,.18-.05.24-.1.06-.06.09-.13.09-.21,0-.08-.05-.14-.11-.19-.06-.05-.16-.08-.25-.07-.09,0-.17.03-.23.08-.03.02-.06.05-.07.08-.02.03-.03.07-.03.1"/>
        <path class="cls-2" d="M24.33,24.57c.05.12.14.21.25.25.11.05.23.05.35,0,.05-.02.1-.05.13-.09.02-.02.04-.04.05-.06.02-.02.03-.04.04-.07.05-.09.06-.2.04-.31l.85-.34c.05.08.15.11.24.07.1-.04.15-.15.11-.24-.02-.05-.05-.08-.1-.1-.04-.02-.1-.02-.15,0-.08.03-.13.11-.13.19l-.86.34c-.05-.11-.13-.19-.24-.23-.05-.02-.11-.04-.17-.04-.06,0-.11,0-.17.03-.06.02-.11.05-.15.09-.04.04-.08.09-.1.14-.05.11-.05.24,0,.36"/>
        <path class="cls-2" d="M24.17,25.84c.03.06.06.11.1.14.04.04.09.07.14.09.1.04.22.04.32-.02.09-.05.16-.13.2-.22.04-.09.04-.19.01-.29l2.08-.99s.03.04.05.05c.02.01.05.02.07.03.05.01.11,0,.16-.02.11-.06.16-.18.12-.27-.04-.1-.17-.13-.29-.08-.09.04-.15.13-.14.22l-2.08.98c-.03-.05-.06-.09-.1-.13-.02-.02-.04-.03-.06-.05-.02-.01-.05-.03-.07-.03-.1-.04-.21-.04-.31,0-.11.05-.18.13-.22.24-.02.05-.02.11-.02.17,0,.06.02.12.04.17"/>
        <path class="cls-2" d="M24.15,27.13c.06.1.15.18.25.21.05.02.1.02.15.02.05,0,.1-.02.15-.05.08-.05.14-.13.17-.21.03-.09.03-.19,0-.28l3.12-1.73c.07.09.2.12.32.05.12-.07.18-.21.12-.32-.06-.1-.2-.13-.33-.06-.05.03-.09.07-.12.12-.03.05-.03.1-.02.15l-3.13,1.71s-.03-.04-.05-.06c-.02-.02-.04-.04-.06-.05-.04-.03-.08-.06-.13-.07-.1-.03-.2-.03-.29.02-.09.05-.16.14-.18.24-.01.05-.02.11,0,.16,0,.03,0,.06.02.08.01.03.02.06.04.08"/>
        <path class="cls-2" d="M24.53,27.79s-.08.06-.1.1c-.02.04-.04.08-.05.13-.02.09,0,.2.06.3.01.02.03.04.05.06.02.02.04.04.06.05.04.03.09.05.13.06.09.03.19.01.27-.04.15-.1.19-.29.12-.46l3.67-2.35c.08.1.24.12.37.03.07-.05.11-.11.13-.17.02-.06.02-.13-.02-.18-.07-.11-.23-.13-.37-.05-.12.07-.17.2-.14.31l-3.68,2.33c-.06-.08-.14-.14-.23-.16-.05-.01-.09-.01-.13,0-.04,0-.09.02-.13.04"/>
        <path class="cls-2" d="M25.02,28.9c-.07.05-.11.13-.13.22-.01.09.02.18.07.27,0,0,0,.01.01.01l.52-.38,3.82-2.78.52-.38s-.11-.07-.18-.07c-.07,0-.15.02-.22.07-.13.09-.18.24-.14.35l-3.83,2.77c-.06-.07-.14-.11-.22-.13-.08-.02-.16,0-.23.05"/>
        <path class="cls-2" d="M25.04,7.57c.13.09.31.06.43-.06l3.83,2.77c-.06.12,0,.28.13.37.07.05.15.07.23.07.02,0,.04,0,.06,0,.02,0,.03-.01.05-.02.03-.01.06-.04.08-.06l-.52-.38-3.82-2.78-.52-.38s-.05.08-.06.13c-.01.04-.01.09,0,.13,0,.09.05.16.12.21"/>
        <path class="cls-2" d="M24.68,13.15c-.02.06-.03.13-.02.19,0,.06.03.12.06.18.06.11.16.19.29.23.13.04.26.02.36-.03.06-.03.1-.06.14-.11.04-.04.07-.1.09-.16.02-.06.03-.12.02-.18,0-.06-.02-.12-.05-.17-.05-.11-.15-.2-.28-.24-.13-.04-.26-.04-.37.02-.05.03-.11.06-.15.11-.04.05-.07.1-.09.16"/>
        <path class="cls-2" d="M25.81,12.44l-.86-.34c.01-.09-.03-.18-.12-.21-.1-.04-.21,0-.26.11-.02.05-.02.11,0,.15.02.05.06.09.11.1.09.03.18,0,.23-.07l.85.34c-.03.11-.02.22.03.31.05.09.14.17.25.21.12.04.24.04.34,0,.05-.02.1-.05.14-.09.02-.02.04-.04.05-.06.02-.02.03-.05.04-.07.04-.1.03-.21-.02-.31-.01-.03-.03-.05-.04-.07-.02-.02-.03-.04-.06-.06-.04-.04-.09-.07-.15-.1-.06-.02-.11-.04-.16-.04-.05,0-.11,0-.16.02-.1.03-.18.1-.24.19"/>
        <path class="cls-2" d="M26.85,11.85l-2.07-.99c.01-.05,0-.11,0-.16-.02-.05-.06-.09-.11-.12-.06-.03-.12-.03-.18,0-.06.02-.1.07-.13.13-.06.12,0,.26.1.31.1.05.22.01.28-.08l2.08.98s-.02.09-.02.14c0,.05.01.09.04.14.04.09.12.16.22.21.11.05.22.05.31.02.09-.03.17-.09.22-.18.02-.05.03-.09.03-.14s-.01-.09-.03-.14c-.04-.09-.11-.17-.22-.23-.09-.05-.2-.06-.29-.04-.05.01-.09.03-.13.05-.02.01-.04.03-.05.04-.02.02-.03.04-.04.05"/>
        <path class="cls-2" d="M27.86,11.34l-3.12-1.73c.05-.13,0-.27-.11-.33-.12-.07-.29-.02-.36.12-.02.03-.03.07-.04.11,0,.04,0,.07,0,.11.02.07.06.13.12.16.06.03.12.03.18.02.06-.02.11-.05.15-.1l3.13,1.71s-.01.04-.02.06c0,.02,0,.04,0,.06,0,.04.01.08.03.12.04.08.1.15.19.2.09.05.2.06.29.04.09-.02.16-.07.2-.14.04-.08.04-.17,0-.25-.03-.09-.1-.17-.19-.22-.09-.05-.18-.07-.27-.06-.08.01-.16.05-.21.12"/>
        <path class="cls-2" d="M28.68,10.8l-3.67-2.35c.07-.14.04-.31-.09-.39-.07-.04-.15-.05-.22-.03-.04.01-.08.03-.11.05-.04.02-.07.06-.09.1-.1.15-.06.35.07.43.12.07.28.04.39-.08l3.68,2.33c-.03.07-.03.15,0,.22.03.07.09.14.16.19.08.05.18.07.26.06.08,0,.15-.05.19-.11.02-.03.03-.07.04-.11,0-.04,0-.08-.01-.12-.03-.08-.08-.15-.16-.21-.07-.05-.16-.07-.24-.07-.08,0-.15.03-.2.09"/>
        <path class="cls-2" d="M23.67,13.96c-.03.13,0,.25.05.35.06.1.16.18.28.2.11.03.22,0,.32-.04.09-.05.17-.13.21-.24l.89.23c0,.08.06.16.15.18.1.03.21-.03.23-.13.02-.09-.04-.19-.14-.22-.09-.02-.18.01-.22.09l-.89-.23c.02-.11,0-.23-.06-.32-.03-.05-.07-.09-.11-.12-.04-.03-.1-.06-.15-.08-.06-.02-.12-.02-.18-.01-.06,0-.11.03-.16.06-.1.06-.18.16-.21.28"/>
        <path class="cls-2" d="M22.79,14.89c-.01.06-.01.12,0,.18.01.06.04.11.06.16.06.09.16.16.27.18.11.02.21,0,.29-.06.04-.03.08-.06.11-.1.03-.04.06-.09.07-.14l2.26.42s.02.09.05.13c.03.04.08.06.14.07.06.01.12,0,.17-.03.05-.03.08-.07.09-.12.02-.11-.06-.21-.19-.24-.11-.02-.21.03-.25.11l-2.26-.43c.01-.11-.02-.22-.08-.3-.06-.08-.15-.15-.25-.17-.11-.03-.23,0-.32.07-.02.01-.04.03-.06.05-.02.02-.04.04-.05.07-.03.05-.05.11-.07.17"/>
        <path class="cls-2" d="M22.02,15.92c-.01.12.02.23.08.31.06.09.15.14.26.15.1,0,.19-.02.27-.08.07-.06.13-.14.16-.24l3.54.43c0,.11.1.2.23.21.14.01.27-.07.28-.18,0-.03,0-.06,0-.08,0-.03-.03-.05-.05-.07-.04-.05-.1-.08-.17-.09-.13-.02-.24.04-.28.14l-3.54-.45c0-.1-.03-.2-.09-.28-.06-.08-.14-.13-.24-.15-.11-.01-.21.02-.29.08-.08.07-.14.17-.15.29"/>
        <path class="cls-2" d="M21.93,16.68c-.1,0-.19.03-.26.1-.07.07-.11.16-.12.28,0,.05,0,.11.02.16,0,.02.02.05.03.07.01.02.03.04.04.06.06.08.15.12.25.13.09,0,.17-.03.24-.09.06-.06.11-.14.13-.24l4.34.26c0,.06.04.11.09.15.05.04.12.07.19.07.08,0,.15-.02.21-.06.05-.04.09-.1.1-.16,0-.06-.03-.12-.08-.17-.05-.05-.12-.08-.2-.08-.07,0-.14.01-.19.04-.05.03-.09.08-.11.14l-4.34-.28s-.01-.1-.03-.14c-.02-.04-.04-.08-.07-.11-.06-.07-.14-.11-.23-.12"/>
        <path class="cls-2" d="M21.68,17.87c-.09,0-.17.04-.23.1-.06.07-.1.16-.1.26,0,.1.04.19.1.26.06.06.14.1.23.1.16,0,.3-.14.32-.32h4.72c.02.13.16.23.32.22.09,0,.17-.03.23-.08.06-.05.09-.11.09-.18,0-.07-.03-.13-.09-.18-.06-.05-.14-.08-.23-.08-.16,0-.3.09-.32.22h-4.73c-.02-.19-.15-.33-.32-.33"/>
        <path class="cls-2" d="M30.67,4.93c-.05.04-.1.09-.13.14-.02.03-.03.05-.04.08,0,.03-.02.06-.02.09-.02.12.02.25.1.35.08.11.19.17.32.19.03,0,.06,0,.09,0,.03,0,.06,0,.09-.01.06-.01.11-.04.16-.07.05-.04.09-.08.12-.13.03-.05.05-.11.06-.17.02-.12,0-.25-.08-.36-.07-.11-.19-.18-.31-.2-.06-.01-.12-.01-.18,0-.06.01-.12.04-.17.08"/>
        <path class="cls-2" d="M32.01,5.01l-.49-.78c.06-.06.07-.16.02-.24-.06-.09-.18-.12-.27-.06-.02.02-.04.03-.06.06-.01.02-.03.04-.03.07-.01.05,0,.1.03.15.03.04.06.07.11.08.04.01.09,0,.13,0l.49.77s-.02.02-.03.03c-.01,0-.02.02-.03.03-.02.02-.03.04-.05.07-.03.05-.04.1-.05.15-.02.11,0,.22.08.32.07.1.17.17.28.2.06.01.11.02.16.01.05,0,.1-.03.15-.05.09-.06.15-.15.17-.26.02-.11,0-.23-.06-.33-.06-.1-.15-.17-.24-.2-.1-.03-.2-.03-.3.01"/>
        <path class="cls-2" d="M33.2,5.14l-1.1-2.02s.04-.04.05-.06c.01-.02.02-.05.03-.07,0-.05,0-.1-.02-.15-.03-.05-.08-.09-.14-.11-.03,0-.06-.01-.09,0-.03,0-.06.01-.09.03-.12.07-.16.21-.1.32.05.1.18.14.28.1l1.11,2.01c-.08.06-.13.14-.15.24-.02.1,0,.2.06.3.06.1.15.17.24.2.1.03.19.03.28-.02.02-.01.04-.03.06-.04.02-.02.03-.03.05-.05.03-.04.05-.08.06-.13.02-.1,0-.21-.04-.31-.05-.09-.12-.16-.21-.2-.04-.02-.09-.03-.13-.03-.02,0-.05,0-.07,0-.02,0-.05,0-.07.02"/>
        <path class="cls-2" d="M34.31,5.33l-1.51-3.23c.11-.07.15-.21.1-.33-.06-.13-.22-.18-.37-.11-.07.03-.12.09-.15.15-.03.07-.03.14,0,.2.06.12.19.17.33.13l1.52,3.22s-.07.05-.09.08c-.02.04-.04.08-.05.12-.02.09,0,.18.04.28.05.1.12.17.2.2.04.02.09.03.13.03.04,0,.08,0,.12-.02.08-.04.13-.11.15-.2.02-.09.02-.19-.02-.29-.04-.09-.1-.16-.18-.2-.04-.02-.08-.03-.12-.04-.04,0-.08,0-.12,0"/>
        <path class="cls-2" d="M35.29,5.37l-1.59-4.05c.13-.07.2-.23.15-.36-.06-.15-.24-.22-.41-.15-.17.07-.25.24-.19.39.06.14.21.2.36.16l1.61,4.04c-.07.04-.11.1-.13.18-.02.08-.01.16.02.25.04.09.1.16.17.2.07.04.15.05.22.02.07-.03.12-.09.15-.17.03-.08.02-.17,0-.26-.06-.17-.21-.27-.36-.24"/>
        <path class="cls-2" d="M29.37,4.99c-.1.08-.15.2-.17.31,0,.06,0,.12.02.17.02.06.05.11.09.16.04.04.08.08.13.1.05.02.1.04.15.05.1.02.21,0,.3-.06l.59.71c-.06.07-.06.17,0,.25.07.08.19.1.26.03.04-.03.06-.08.06-.12,0-.05-.01-.1-.05-.14-.05-.07-.14-.09-.21-.06l-.59-.71c.09-.08.14-.18.15-.3,0-.06,0-.11-.02-.17-.02-.06-.04-.11-.08-.16-.04-.05-.08-.09-.14-.12-.05-.03-.11-.05-.17-.05-.12-.01-.24.02-.34.11"/>
        <path class="cls-2" d="M28.12,5.22s-.08.09-.1.14c-.02.05-.04.11-.04.16,0,.11.03.22.11.3.07.07.17.11.27.12.05,0,.1,0,.15-.01.02,0,.05-.02.07-.03.02,0,.05-.02.07-.04l1.58,1.67s-.03.04-.04.07c0,.02,0,.05,0,.08,0,.05.03.1.07.14.04.05.1.07.15.08.03,0,.05,0,.08,0,.03,0,.05-.02.07-.04.08-.07.07-.21-.01-.3-.07-.08-.17-.1-.25-.06l-1.57-1.68s.07-.09.09-.14c.02-.05.03-.1.04-.16,0-.11-.03-.21-.1-.3-.08-.09-.18-.13-.29-.13-.11,0-.23.04-.32.13"/>
        <path class="cls-2" d="M26.88,5.6c-.08.09-.12.19-.12.3,0,.1.04.2.12.28.07.06.16.09.25.09.09,0,.18-.03.26-.09l2.61,2.43c-.07.09-.05.23.05.32.11.1.26.1.33.02.04-.04.06-.1.05-.16,0-.06-.04-.12-.09-.17-.04-.04-.09-.07-.15-.08-.03,0-.05,0-.08,0-.03,0-.05.01-.07.02l-2.59-2.45c.07-.08.11-.18.1-.28,0-.1-.04-.2-.11-.27-.08-.08-.18-.11-.28-.1-.1,0-.21.05-.29.14"/>
        <path class="cls-2" d="M26.37,6.16c-.07-.06-.17-.09-.26-.07-.1.01-.19.06-.26.15-.04.04-.06.09-.08.14-.02.05-.02.1-.02.15,0,.1.05.19.12.25.14.11.34.09.47-.03l3.36,2.77c-.07.11-.03.26.08.36.13.1.29.1.37,0,.08-.1.05-.26-.07-.37-.1-.09-.24-.1-.34-.04l-3.35-2.79c.06-.08.09-.18.08-.27,0-.09-.04-.18-.12-.24"/>
        <path class="cls-2" d="M25.47,6.98c-.07-.05-.16-.07-.25-.05-.09.02-.17.07-.23.15,0,0,0,0,0,.01l.52.38,3.82,2.78.52.38c.03-.06.03-.13.01-.19-.02-.07-.07-.13-.13-.19-.06-.05-.13-.07-.2-.08-.07,0-.13.02-.18.05l-3.81-2.79s.04-.08.05-.12c0-.04,0-.09,0-.13-.01-.08-.05-.16-.12-.21"/>
        <path class="cls-2" d="M45.76.4c-.02.08-.01.16.02.23.04.07.09.13.17.17l-1.45,4.5s-.07,0-.1,0c-.03,0-.06.02-.09.05-.06.04-.1.11-.12.18-.03.09-.02.17,0,.24.03.07.07.12.14.15l.2-.61,1.46-4.49.2-.61c-.1-.03-.19-.02-.27.02-.08.04-.14.1-.16.19"/>
        <path class="cls-2" d="M40.34,1.79c-.13,0-.25.06-.33.15-.04.04-.07.1-.1.15-.02.06-.03.12-.03.19,0,.07.02.13.04.19.02.06.06.11.1.15.08.09.2.14.32.14.12,0,.24-.05.32-.14.08-.09.14-.2.14-.34,0-.13-.05-.26-.13-.34-.08-.09-.2-.14-.33-.15"/>
        <path class="cls-2" d="M41.37,2.64l.06-.92c.09-.01.16-.09.17-.18,0-.11-.07-.2-.18-.21-.11,0-.2.07-.21.18,0,.09.06.17.14.2l-.06.92c-.05,0-.11.01-.16.04-.05.02-.09.05-.13.09-.07.08-.12.18-.12.3,0,.12.04.24.11.32.04.04.08.08.12.1.05.03.1.04.15.04.11,0,.21-.04.29-.11.08-.08.14-.18.15-.31,0-.12-.02-.22-.08-.31-.03-.04-.07-.08-.11-.11-.04-.03-.09-.05-.15-.06"/>
        <path class="cls-2" d="M42.25,3.45l.29-2.28c.11,0,.21-.08.22-.19.02-.12-.08-.24-.21-.26-.13-.02-.25.07-.27.2-.01.11.06.21.16.24l-.28,2.28c-.1,0-.19.04-.26.1-.03.03-.06.07-.08.12-.02.05-.04.1-.04.15,0,.06,0,.11.01.16.01.05.04.1.06.14.06.08.14.14.24.15.1.01.19-.02.27-.09.08-.06.13-.16.15-.28.02-.11,0-.21-.05-.29-.05-.08-.12-.14-.21-.17"/>
        <path class="cls-2" d="M43.05,4.25l.67-3.5c.07,0,.13-.02.18-.05.05-.04.09-.09.1-.15.03-.14-.07-.28-.23-.31-.08-.01-.15,0-.21.04-.06.04-.1.09-.12.17,0,.06,0,.12.04.17.03.05.08.09.14.12l-.66,3.5s-.08,0-.12.02c-.04.02-.08.04-.11.07-.06.06-.11.14-.13.24-.02.11,0,.21.05.28.02.04.05.07.08.1.04.03.07.04.11.05.04,0,.09,0,.13,0,.04-.01.08-.03.11-.06.07-.06.13-.14.15-.25.02-.1,0-.19-.03-.27-.01-.02-.02-.04-.03-.05-.01-.02-.03-.03-.04-.05-.03-.03-.07-.05-.1-.06"/>
        <path class="cls-2" d="M43.81,4.86l1.09-4.21c.16.02.31-.06.35-.2.04-.15-.06-.32-.24-.37-.18-.04-.35.05-.39.2-.03.14.05.28.19.34l-1.07,4.22c-.15-.02-.29.1-.33.28-.02.09-.01.19.02.26.04.07.09.13.17.15.07.02.15,0,.22-.05.07-.05.12-.13.15-.22.05-.17-.02-.35-.16-.41"/>
        <path class="cls-2" d="M39.26,1.08c-.07,0-.12.02-.18.05-.03.01-.05.03-.08.05-.02.02-.04.04-.06.06-.08.09-.12.21-.11.33,0,.12.06.22.14.29.02.02.04.04.06.05,0,0,.02.01.04.02.01,0,.02.01.04.02.05.02.1.04.16.04l.06.92c-.08.02-.13.11-.13.2,0,.11.09.19.19.18.1,0,.17-.1.17-.21,0-.09-.07-.17-.15-.18l-.06-.92c.06,0,.11-.03.16-.05.05-.03.09-.06.13-.1.07-.08.11-.19.11-.31,0-.12-.06-.24-.15-.31-.04-.04-.1-.07-.15-.09-.06-.02-.12-.03-.18-.02"/>
        <path class="cls-2" d="M38.1.53s-.03,0-.04,0c-.02,0-.03,0-.04.01-.03,0-.06.02-.08.04-.05.03-.1.07-.13.11-.07.09-.1.2-.09.31.02.11.07.2.15.26.08.06.18.1.29.1l.29,2.28c-.09.03-.15.13-.13.24,0,.06.04.11.08.15.02.02.05.03.07.04.02,0,.05.01.08,0,.11-.01.18-.12.17-.25-.01-.11-.09-.19-.18-.2l-.28-2.28c.11-.02.2-.08.26-.16.06-.08.1-.19.09-.29,0-.06-.02-.11-.05-.16-.03-.05-.07-.09-.11-.12-.09-.07-.2-.1-.33-.09"/>
        <path class="cls-2" d="M36.89.11c-.12.02-.21.09-.28.17-.06.08-.09.19-.07.29.02.1.08.18.16.23.04.03.08.05.13.06.05.01.1.02.15.01l.67,3.5c-.1.04-.16.16-.13.29.03.14.15.23.26.21.06-.01.11-.05.13-.1.03-.05.04-.12.03-.19-.01-.06-.04-.12-.08-.16-.04-.04-.09-.06-.14-.06l-.66-3.51c.05-.01.1-.04.14-.07.04-.03.07-.06.1-.1.06-.08.08-.18.07-.27-.02-.11-.08-.19-.17-.25-.04-.03-.09-.05-.15-.06-.05,0-.11,0-.17,0"/>
        <path class="cls-2" d="M36.14.26c-.02-.1-.08-.17-.17-.22-.09-.04-.19-.06-.3-.03-.11.03-.19.09-.25.17-.06.08-.07.18-.05.27.05.17.23.28.42.25l1.09,4.21c-.11.05-.17.19-.13.33.02.08.07.14.12.18.05.04.12.06.18.04.12-.03.2-.18.16-.34-.03-.14-.14-.24-.26-.23l-1.07-4.22c.18-.07.3-.25.25-.43"/>
        <path class="cls-2" d="M34.93.39c-.03-.08-.09-.15-.17-.19-.04-.02-.09-.03-.13-.03-.05,0-.1,0-.15.02-.1.03-.18.09-.22.17-.04.08-.06.17-.03.25.03.08.08.14.15.17.07.03.16.05.24.03l1.47,4.49s-.06.03-.08.06c-.02.02-.04.06-.05.09-.02.07-.02.15,0,.23.03.08.08.15.15.19.06.04.13.06.2.03.06-.02.11-.08.14-.15.03-.07.03-.15,0-.24-.05-.15-.18-.25-.31-.24l-1.44-4.5c.16-.08.25-.24.2-.4"/>
        <path class="cls-2" d="M50.01,4.94c-.06-.04-.11-.07-.17-.08-.06-.01-.12-.01-.18,0-.12.02-.23.09-.31.2-.08.11-.1.24-.08.36,0,.06.03.12.06.17.03.05.07.1.12.13.05.04.11.06.17.07.06.01.12.01.17,0,.12-.02.23-.08.31-.19.08-.11.11-.23.1-.35,0-.06-.03-.12-.06-.17-.03-.05-.07-.1-.13-.14"/>
        <path class="cls-2" d="M50.35,6.24l.59-.71c.08.04.17.02.23-.05.07-.08.06-.21-.03-.28-.04-.04-.09-.05-.14-.05-.05,0-.1.03-.13.07-.06.07-.06.18,0,.25l-.58.71c-.09-.07-.2-.09-.31-.07-.11.02-.21.08-.28.17-.08.1-.11.21-.1.32,0,.05.02.11.04.15.01.02.03.05.04.07.02.02.04.04.06.06.08.07.19.1.3.08.06,0,.11-.02.16-.05.05-.03.1-.06.14-.11.07-.09.11-.19.12-.29,0-.1-.03-.2-.1-.28"/>
        <path class="cls-2" d="M50.58,7.41l1.58-1.67s.1.04.15.03c.05,0,.1-.03.14-.07.04-.05.06-.1.06-.16,0-.06-.03-.12-.08-.17-.1-.09-.25-.09-.33,0-.08.08-.08.21,0,.3l-1.57,1.68c-.08-.06-.17-.09-.27-.07-.09.01-.19.06-.27.15-.08.09-.12.19-.12.29,0,.1.03.19.1.26.07.07.17.1.27.09.1,0,.2-.05.28-.14.07-.08.12-.17.13-.26,0-.05,0-.09-.01-.14-.01-.04-.03-.09-.06-.12"/>
        <path class="cls-2" d="M50.75,8.53l2.61-2.43c.1.08.25.08.34,0,.11-.1.1-.27,0-.38-.11-.12-.28-.13-.38-.03-.05.04-.07.1-.07.17,0,.03,0,.06.01.09,0,.03.02.06.04.09l-2.59,2.44c-.06-.06-.15-.08-.24-.07-.09,0-.18.05-.25.12-.07.07-.12.17-.13.26,0,.04,0,.09,0,.13.01.04.03.08.06.11.06.06.14.09.24.09.09,0,.18-.04.26-.11.07-.06.12-.15.13-.23.02-.08,0-.17-.04-.24"/>
        <path class="cls-2" d="M51.02,9.47l3.36-2.77c.11.1.28.12.39.03.12-.1.13-.3.02-.44-.12-.14-.31-.17-.43-.06-.11.1-.13.26-.04.4l-3.35,2.78c-.05-.05-.13-.08-.21-.07-.08,0-.16.04-.23.1-.07.06-.12.15-.14.23-.01.08,0,.16.05.22.05.06.12.09.21.09.08,0,.17-.03.25-.09.14-.11.19-.29.12-.41"/>
        <path class="cls-2" d="M49.56,3.73c-.11-.07-.24-.09-.35-.06-.11.03-.22.1-.28.2-.06.1-.08.21-.06.31.02.1.07.2.15.27l-.49.78c-.08-.04-.18,0-.24.08-.06.09-.03.21.05.26.08.05.19.02.26-.07.02-.04.03-.08.03-.12,0-.04-.01-.08-.04-.11l.5-.78s.05.03.08.04c.03,0,.06.02.08.02.06,0,.11,0,.17,0,.11-.02.21-.09.28-.19.07-.1.09-.22.06-.34-.01-.06-.04-.11-.07-.16-.03-.05-.08-.09-.13-.13"/>
        <path class="cls-2" d="M48.95,2.61c-.11-.06-.23-.07-.34-.04-.11.03-.2.1-.25.2-.05.09-.06.2-.03.29.01.05.03.09.06.14.03.04.06.08.1.11l-1.1,2.02s-.03,0-.04-.01c-.01,0-.03,0-.04,0-.02,0-.05,0-.07.02-.05.02-.09.06-.12.11-.03.06-.04.12-.02.17.01.05.04.1.09.12.09.05.22,0,.28-.1.05-.09.04-.2-.02-.26l1.11-2.01c.1.05.21.06.32.03.1-.03.19-.09.25-.19.06-.1.07-.22.04-.32-.03-.11-.11-.2-.22-.26"/>
        <path class="cls-2" d="M48.21,1.55c-.11-.05-.22-.06-.32-.03-.1.03-.18.1-.23.2-.04.09-.04.18-.01.27.03.09.09.17.17.22l-1.51,3.23c-.11-.04-.23.03-.29.15-.06.13-.02.28.09.33.05.02.11.02.17,0,.06-.02.1-.07.14-.14.05-.11.04-.23-.04-.3l1.53-3.22c.1.04.21.04.3.01.1-.03.18-.09.22-.19.05-.09.05-.2.01-.3-.02-.05-.05-.09-.09-.14-.04-.04-.08-.07-.14-.1"/>
        <path class="cls-2" d="M47.51,1.23c.04-.09.03-.19-.01-.28-.04-.09-.12-.16-.22-.2-.05-.02-.11-.03-.16-.03-.05,0-.1,0-.15.02-.09.03-.16.1-.2.19-.06.16.02.35.18.44l-1.59,4.05c-.12-.04-.26.05-.31.19-.06.15,0,.31.11.35.12.05.26-.03.33-.18.05-.13.02-.26-.07-.33l1.62-4.05c.09.03.19.03.28,0,.08-.03.16-.1.19-.18"/>
        <path class="cls-2" d="M46.45.63c.03-.08.02-.17-.03-.25-.02-.04-.05-.07-.09-.1-.04-.03-.08-.05-.13-.07,0,0,0,0-.02,0l-.2.61-1.46,4.49-.2.61c.06.01.13,0,.19-.05.06-.04.11-.1.13-.18.03-.07.03-.15.01-.21-.02-.07-.06-.12-.11-.15l1.47-4.49s.09.01.13,0c.02,0,.04,0,.06-.01.02,0,.04-.01.06-.02.08-.03.13-.1.16-.18"/>
        <path class="cls-2" d="M58.98,17.89c-.16,0-.29.14-.32.31h-4.72c-.02-.12-.16-.22-.32-.21-.09,0-.17.03-.23.08-.06.05-.09.11-.09.18h6.01c0-.2-.15-.35-.33-.35"/>
        <path class="cls-2" d="M55.98,13.17c-.02-.06-.05-.12-.09-.17-.04-.05-.09-.08-.15-.11-.11-.05-.24-.06-.37-.02-.13.04-.22.13-.28.24-.03.05-.04.11-.05.17,0,.06,0,.12.02.18.02.06.05.11.09.16.04.04.09.08.14.11.11.05.24.07.37.03.13-.04.23-.12.29-.23.03-.05.05-.11.06-.18,0-.06,0-.13-.02-.19"/>
        <path class="cls-2" d="M55.49,14.41l.89-.23c.04.08.13.12.22.1.1-.03.17-.13.14-.24,0-.03-.02-.05-.04-.07-.02-.02-.04-.04-.06-.05-.04-.03-.1-.03-.15-.02-.09.02-.15.11-.14.2l-.89.23c-.04-.1-.11-.19-.21-.23-.1-.05-.21-.06-.33-.02-.12.03-.22.11-.28.2-.06.09-.08.2-.05.31.03.11.1.19.19.24.1.05.21.07.34.04.06-.01.11-.03.15-.06.02-.01.04-.03.06-.05.02-.02.04-.04.05-.06.06-.08.09-.19.08-.29"/>
        <path class="cls-2" d="M55,15.5l2.26-.42c.02.05.06.09.1.12.04.03.1.04.15.03.06-.01.11-.05.15-.1.03-.05.04-.11.03-.18-.03-.13-.15-.22-.27-.19-.11.02-.18.12-.18.23l-2.26.43s-.04-.09-.07-.12c-.01-.02-.03-.03-.05-.05-.02-.02-.04-.03-.06-.04-.09-.05-.19-.06-.3-.04-.11.02-.21.09-.27.16-.01.02-.03.04-.04.06-.01.02-.02.04-.03.07-.01.05-.02.09,0,.14,0,.05.03.09.06.13.03.04.07.07.11.1.08.05.19.07.31.06.11-.02.2-.07.26-.14.03-.04.06-.08.07-.12.02-.04.02-.09.02-.14"/>
        <path class="cls-2" d="M54.48,16.5l3.54-.43c.03.13.15.22.28.21.14-.01.24-.15.22-.31,0-.04-.02-.07-.03-.11-.02-.03-.04-.06-.07-.08-.05-.04-.12-.07-.19-.06-.13.02-.22.13-.22.26l-3.54.45c-.02-.08-.08-.15-.15-.19-.08-.04-.17-.06-.27-.05-.11.02-.2.07-.26.13-.03.03-.06.07-.07.11,0,.02-.01.04-.01.06,0,0,0,.02,0,.03,0,.01,0,.02,0,.03,0,.09.06.16.14.21.08.05.18.07.28.06.1,0,.18-.05.25-.11.06-.06.1-.14.1-.22"/>
        <path class="cls-2" d="M54.13,17.41l4.34-.26c.03.15.15.27.3.27.08,0,.15-.04.2-.1.05-.06.08-.15.07-.24,0-.09-.04-.17-.1-.23-.06-.06-.13-.09-.21-.08-.07,0-.13.04-.18.09-.05.05-.08.12-.08.19l-4.34.28c-.02-.07-.06-.14-.13-.18-.07-.04-.15-.06-.24-.05-.1,0-.18.05-.24.1-.06.06-.1.13-.09.21,0,.08.05.14.11.19.06.05.15.08.25.07.09,0,.17-.03.23-.08.03-.02.06-.05.07-.09.02-.03.03-.07.03-.1"/>
        <path class="cls-2" d="M56.33,11.92c-.05-.12-.14-.21-.25-.25-.1-.05-.23-.05-.34,0-.05.02-.1.05-.14.09-.02.02-.04.04-.05.06-.02.02-.03.05-.04.07-.05.1-.06.21-.03.32l-.85.34c-.05-.07-.14-.1-.23-.06-.1.04-.15.15-.11.24.04.09.14.13.25.1.08-.03.14-.12.13-.2l.85-.34c.05.1.13.18.24.22.05.02.1.03.16.03.06,0,.11,0,.17-.03.06-.02.11-.05.15-.09.04-.04.08-.09.1-.14.05-.11.05-.24,0-.36"/>
        <path class="cls-2" d="M56.49,10.65c-.03-.06-.06-.11-.11-.14-.04-.04-.09-.07-.14-.09-.1-.04-.22-.04-.32.02-.09.05-.16.13-.2.22-.04.09-.04.2,0,.3l-2.07.98c-.06-.08-.17-.1-.27-.05-.06.03-.1.07-.12.12-.02.05-.02.1,0,.15.05.1.18.13.29.08.1-.04.15-.15.13-.24l2.08-.97s.06.09.1.12c.02.02.04.03.07.04.02.01.05.02.07.03.09.04.2.04.3,0,.11-.05.18-.13.22-.24.02-.05.03-.11.02-.17,0-.06-.02-.12-.04-.17"/>
        <path class="cls-2" d="M56.51,9.36c-.06-.1-.15-.18-.25-.21-.05-.02-.1-.02-.15-.02-.05,0-.1.02-.15.05-.09.05-.14.13-.17.22-.03.09-.03.19.02.29l-3.12,1.73c-.07-.08-.2-.1-.31-.04-.12.07-.18.21-.12.31.02.03.04.05.06.06.03.02.05.03.08.03.06.01.13,0,.19-.03.06-.03.1-.07.12-.12.03-.05.03-.11.02-.16l3.13-1.71s.07.08.11.11c.04.03.08.05.13.07.09.03.19.02.28-.02.09-.05.16-.14.18-.24.01-.05.02-.11,0-.16,0-.03,0-.06-.02-.08,0-.03-.02-.05-.04-.08"/>
        <path class="cls-2" d="M56.14,8.7s.08-.06.1-.1c.02-.04.04-.08.05-.13.02-.09,0-.2-.06-.3-.01-.02-.03-.05-.05-.06-.02-.02-.04-.04-.06-.05-.04-.03-.09-.05-.13-.06-.09-.03-.19-.01-.27.04-.07.05-.12.13-.14.21-.02.09,0,.18.04.27l-3.67,2.34s-.1-.07-.16-.07c-.06,0-.13.01-.19.06-.07.04-.11.11-.13.17-.01.03-.02.07-.01.1,0,.02,0,.03.01.05,0,.01.01.03.02.04.07.11.23.13.37.05.12-.07.18-.21.14-.32l3.68-2.32c.06.08.14.13.23.15.04.01.09.01.13,0,.04,0,.09-.02.12-.04"/>
        <path class="cls-2" d="M55.64,7.59c.07-.05.11-.13.12-.22.01-.09-.02-.18-.07-.27-.06-.08-.14-.14-.23-.15-.09-.02-.18,0-.25.05-.07.05-.1.12-.12.2-.01.08,0,.17.05.24l-3.81,2.79s-.11-.07-.18-.07c-.07,0-.15.03-.21.08-.07.05-.12.12-.13.2-.02.07-.01.15.03.2.02.03.05.05.08.07.01,0,.03.01.05.02.02,0,.03,0,.05,0,.07,0,.16-.02.23-.07.07-.05.11-.11.14-.17.01-.03.02-.07.02-.1,0-.03,0-.06-.02-.09l3.83-2.77s.07.06.1.08c.04.02.07.03.11.04.08.01.16,0,.23-.05"/>
      </g>
      <g>
        <path class="cls-3" d="M65.87,40.18c-.26.13-.79.26-1.47.26-1.57,0-2.76-.96-2.76-2.73s1.18-2.83,2.91-2.83c.69,0,1.13.14,1.32.24l-.17.57c-.27-.13-.66-.22-1.12-.22-1.31,0-2.18.81-2.18,2.22,0,1.32.79,2.17,2.14,2.17.44,0,.89-.09,1.18-.22l.15.55Z"/>
        <path class="cls-3" d="M70.29,38.39c0,1.43-1.03,2.06-2,2.06-1.08,0-1.92-.77-1.92-1.99,0-1.3.88-2.06,1.99-2.06s1.93.81,1.93,1.99ZM67.11,38.43c0,.85.5,1.49,1.22,1.49s1.22-.63,1.22-1.5c0-.66-.34-1.49-1.2-1.49s-1.23.77-1.23,1.5Z"/>
        <path class="cls-3" d="M71.21,37.53c0-.4,0-.73-.03-1.05h.65l.04.64h.02c.2-.37.66-.73,1.32-.73.56,0,1.42.32,1.42,1.65v2.31h-.73v-2.23c0-.63-.24-1.15-.93-1.15-.48,0-.85.33-.98.72-.04.09-.05.21-.05.33v2.33h-.73v-2.82Z"/>
        <path class="cls-3" d="M76.65,35.37v1.11h1.04v.54h-1.04v2.09c0,.48.14.75.55.75.19,0,.33-.02.42-.05l.03.53c-.14.06-.36.1-.64.1-.34,0-.61-.11-.79-.3-.21-.21-.28-.55-.28-1.01v-2.11h-.62v-.54h.62v-.93l.71-.18Z"/>
        <path class="cls-3" d="M79.32,35.4c0,.24-.17.43-.46.43-.26,0-.44-.19-.44-.43s.19-.44.46-.44.44.19.44.44ZM78.51,40.36v-3.87h.73v3.87h-.73Z"/>
        <path class="cls-3" d="M80.45,37.53c0-.4,0-.73-.03-1.05h.65l.04.64h.02c.2-.37.66-.73,1.33-.73.55,0,1.41.32,1.41,1.65v2.31h-.73v-2.23c0-.63-.24-1.15-.93-1.15-.48,0-.85.33-.98.72-.03.09-.05.21-.05.33v2.33h-.73v-2.82Z"/>
        <path class="cls-3" d="M88.39,39.3c0,.4,0,.75.03,1.06h-.65l-.04-.63h-.02c-.19.31-.61.72-1.32.72-.63,0-1.38-.34-1.38-1.7v-2.26h.73v2.14c0,.74.23,1.23.9,1.23.49,0,.82-.33.96-.64.04-.1.07-.23.07-.36v-2.38h.73v2.81Z"/>
        <path class="cls-3" d="M93.22,38.39c0,1.43-1.03,2.06-2,2.06-1.08,0-1.92-.77-1.92-1.99,0-1.3.88-2.06,1.99-2.06s1.93.81,1.93,1.99ZM90.04,38.43c0,.85.5,1.49,1.22,1.49s1.22-.63,1.22-1.5c0-.66-.34-1.49-1.2-1.49s-1.23.77-1.23,1.5Z"/>
        <path class="cls-3" d="M97.49,39.3c0,.4,0,.75.03,1.06h-.65l-.04-.63h-.02c-.19.31-.61.72-1.32.72-.63,0-1.38-.34-1.38-1.7v-2.26h.73v2.14c0,.74.23,1.23.89,1.23.49,0,.83-.33.96-.64.04-.1.07-.23.07-.36v-2.38h.73v2.81Z"/>
        <path class="cls-3" d="M98.6,39.64c.21.14.6.28.96.28.53,0,.78-.26.78-.58s-.21-.52-.75-.71c-.72-.25-1.06-.63-1.06-1.1,0-.62.52-1.14,1.38-1.14.41,0,.76.11.98.24l-.18.51c-.16-.1-.44-.22-.82-.22-.43,0-.67.24-.67.53,0,.32.24.46.76.66.69.26,1.05.59,1.05,1.17,0,.68-.54,1.16-1.5,1.16-.44,0-.84-.11-1.13-.27l.18-.54Z"/>
        <path class="cls-3" d="M108.45,37.99c-.04-.75-.09-1.66-.08-2.33h-.02c-.19.63-.42,1.3-.7,2.05l-.98,2.62h-.54l-.9-2.57c-.27-.76-.49-1.46-.64-2.1h-.02c-.02.67-.06,1.58-.11,2.38l-.15,2.31h-.69l.39-5.39h.92l.95,2.61c.23.66.42,1.26.56,1.82h.02c.14-.54.34-1.14.59-1.82l.99-2.61h.92l.35,5.39h-.71l-.14-2.37Z"/>
        <path class="cls-3" d="M110.82,38.55c.02.95.65,1.34,1.37,1.34.52,0,.83-.09,1.11-.2l.12.51c-.26.11-.7.24-1.33.24-1.23,0-1.97-.79-1.97-1.95s.71-2.09,1.88-2.09c1.31,0,1.65,1.11,1.65,1.83,0,.14-.02.26-.03.33h-2.81ZM112.96,38.05c0-.45-.19-1.14-1.01-1.14-.74,0-1.06.66-1.12,1.14h2.13Z"/>
        <path class="cls-3" d="M118.02,34.68v4.68c0,.34,0,.74.03,1h-.65l-.03-.67h-.02c-.22.43-.71.76-1.37.76-.97,0-1.71-.79-1.71-1.97,0-1.29.82-2.08,1.8-2.08.61,0,1.03.28,1.21.59h.02v-2.31h.73ZM117.29,38.06c0-.09,0-.21-.03-.3-.11-.45-.51-.82-1.05-.82-.75,0-1.2.64-1.2,1.5,0,.78.4,1.43,1.18,1.43.49,0,.94-.31,1.07-.84.02-.1.03-.19.03-.3v-.67Z"/>
        <path class="cls-3" d="M120.04,35.4c0,.24-.17.43-.46.43-.26,0-.44-.19-.44-.43s.19-.44.46-.44.45.19.45.44ZM119.23,40.36v-3.87h.73v3.87h-.73Z"/>
        <path class="cls-3" d="M124.02,40.21c-.19.1-.61.22-1.15.22-1.21,0-1.99-.79-1.99-1.98s.84-2.06,2.15-2.06c.43,0,.81.1,1.01.2l-.17.54c-.17-.1-.45-.18-.84-.18-.92,0-1.42.66-1.42,1.46,0,.9.6,1.45,1.39,1.45.41,0,.69-.1.89-.19l.12.53Z"/>
        <path class="cls-3" d="M127.09,40.36l-.06-.49h-.02c-.22.3-.65.58-1.23.58-.81,0-1.22-.55-1.22-1.11,0-.94.86-1.45,2.41-1.44v-.08c0-.32-.09-.9-.91-.9-.37,0-.76.11-1.04.29l-.17-.46c.33-.21.81-.34,1.32-.34,1.22,0,1.52.81,1.52,1.58v1.45c0,.34.02.66.07.93h-.66ZM126.98,38.38c-.79-.02-1.69.12-1.69.87,0,.46.31.67.69.67.52,0,.85-.32.97-.65.02-.07.04-.15.04-.22v-.67Z"/>
        <path class="cls-3" d="M128.86,34.68h.73v5.68h-.73v-5.68Z"/>
        <path class="cls-3" d="M135.47,37.83h-2.17v1.94h2.42v.58h-3.13v-5.39h3.01v.58h-2.29v1.7h2.17v.58Z"/>
        <path class="cls-3" d="M140.06,34.68v4.68c0,.34,0,.74.03,1h-.65l-.03-.67h-.02c-.22.43-.71.76-1.37.76-.97,0-1.71-.79-1.71-1.97,0-1.29.82-2.08,1.8-2.08.61,0,1.02.28,1.21.59h.02v-2.31h.73ZM139.34,38.06c0-.09,0-.21-.03-.3-.11-.45-.5-.82-1.05-.82-.75,0-1.2.64-1.2,1.5,0,.78.4,1.43,1.18,1.43.49,0,.93-.31,1.07-.84.02-.1.03-.19.03-.3v-.67Z"/>
        <path class="cls-3" d="M144.62,39.3c0,.4,0,.75.03,1.06h-.65l-.04-.63h-.02c-.19.31-.61.72-1.32.72-.63,0-1.38-.34-1.38-1.7v-2.26h.73v2.14c0,.74.23,1.23.89,1.23.49,0,.83-.33.96-.64.04-.1.07-.23.07-.36v-2.38h.73v2.81Z"/>
        <path class="cls-3" d="M148.69,40.21c-.19.1-.61.22-1.15.22-1.21,0-1.99-.79-1.99-1.98s.84-2.06,2.15-2.06c.43,0,.81.1,1.01.2l-.17.54c-.17-.1-.44-.18-.84-.18-.92,0-1.41.66-1.41,1.46,0,.9.6,1.45,1.39,1.45.41,0,.69-.1.89-.19l.13.53Z"/>
        <path class="cls-3" d="M151.75,40.36l-.06-.49h-.03c-.22.3-.65.58-1.22.58-.81,0-1.22-.55-1.22-1.11,0-.94.86-1.45,2.41-1.44v-.08c0-.32-.09-.9-.91-.9-.37,0-.76.11-1.04.29l-.17-.46c.33-.21.81-.34,1.31-.34,1.23,0,1.52.81,1.52,1.58v1.45c0,.34.02.66.07.93h-.66ZM151.65,38.38c-.79-.02-1.69.12-1.69.87,0,.46.32.67.69.67.52,0,.85-.32.97-.65.02-.07.04-.15.04-.22v-.67Z"/>
        <path class="cls-3" d="M154.38,35.37v1.11h1.04v.54h-1.04v2.09c0,.48.14.75.55.75.19,0,.33-.02.42-.05l.03.53c-.14.06-.36.1-.64.1-.34,0-.61-.11-.79-.3-.21-.21-.28-.55-.28-1.01v-2.11h-.62v-.54h.62v-.93l.71-.18Z"/>
        <path class="cls-3" d="M157.05,35.4c0,.24-.17.43-.46.43-.25,0-.44-.19-.44-.43s.19-.44.45-.44.45.19.45.44ZM156.24,40.36v-3.87h.73v3.87h-.73Z"/>
        <path class="cls-3" d="M161.79,38.39c0,1.43-1.03,2.06-1.99,2.06-1.08,0-1.92-.77-1.92-1.99,0-1.3.88-2.06,1.99-2.06s1.93.81,1.93,1.99ZM158.62,38.43c0,.85.5,1.49,1.21,1.49s1.22-.63,1.22-1.5c0-.66-.34-1.49-1.2-1.49s-1.23.77-1.23,1.5Z"/>
        <path class="cls-3" d="M162.71,37.53c0-.4,0-.73-.03-1.05h.65l.04.64h.02c.2-.37.66-.73,1.32-.73.55,0,1.41.32,1.41,1.65v2.31h-.73v-2.23c0-.63-.24-1.15-.93-1.15-.48,0-.85.33-.98.72-.03.09-.05.21-.05.33v2.33h-.73v-2.82Z"/>
        <path class="cls-3" d="M172.57,40.36c-.16-.15-.31-.3-.52-.53-.48.43-1.02.62-1.63.62-1.08,0-1.71-.7-1.71-1.51,0-.74.46-1.24,1.09-1.58v-.02c-.29-.35-.46-.74-.46-1.13,0-.66.49-1.33,1.41-1.33.7,0,1.23.45,1.23,1.14,0,.57-.34,1.02-1.22,1.44v.03c.47.53,1,1.12,1.36,1.5.26-.38.43-.9.54-1.58h.66c-.15.85-.39,1.52-.8,1.99.3.3.59.61.92.95h-.86ZM171.7,39.43c-.33-.35-.95-1.01-1.57-1.7-.3.18-.72.53-.72,1.09,0,.62.47,1.09,1.14,1.09.48,0,.89-.21,1.15-.49ZM170,36.14c0,.38.18.68.42.97.56-.31.93-.6.93-1.06,0-.33-.19-.7-.65-.7s-.71.37-.71.78Z"/>
        <path class="cls-3" d="M176.74,38.66l-.58,1.7h-.75l1.9-5.39h.87l1.9,5.39h-.77l-.59-1.7h-1.98ZM178.57,38.12l-.55-1.55c-.12-.35-.21-.67-.29-.98h-.02c-.08.32-.17.65-.28.98l-.55,1.56h1.68Z"/>
        <path class="cls-3" d="M181,36.49l.53,1.97c.11.43.22.83.3,1.23h.03c.09-.39.22-.81.36-1.22l.65-1.97h.61l.62,1.94c.15.46.26.87.36,1.26h.02c.07-.39.17-.8.31-1.26l.57-1.94h.72l-1.29,3.87h-.66l-.61-1.85c-.14-.43-.26-.82-.36-1.27h-.02c-.1.46-.22.86-.37,1.28l-.65,1.84h-.66l-1.21-3.87h.74Z"/>
        <path class="cls-3" d="M188.99,40.36l-.06-.49h-.02c-.22.3-.65.58-1.22.58-.81,0-1.22-.55-1.22-1.11,0-.94.86-1.45,2.41-1.44v-.08c0-.32-.09-.9-.91-.9-.37,0-.76.11-1.04.29l-.17-.46c.33-.21.81-.34,1.32-.34,1.23,0,1.52.81,1.52,1.58v1.45c0,.34.02.66.07.93h-.66ZM188.89,38.38c-.8-.02-1.7.12-1.7.87,0,.46.31.67.69.67.52,0,.85-.32.97-.65.03-.07.04-.15.04-.22v-.67Z"/>
        <path class="cls-3" d="M190.76,37.69c0-.45,0-.85-.03-1.21h.64l.03.76h.03c.18-.52.62-.85,1.11-.85.08,0,.14,0,.21.02v.66c-.08-.02-.15-.02-.25-.02-.51,0-.88.38-.98.9-.02.1-.03.21-.03.33v2.06h-.72v-2.66Z"/>
        <path class="cls-3" d="M193.8,38.55c.02.95.65,1.34,1.37,1.34.52,0,.83-.09,1.11-.2l.12.51c-.26.11-.7.24-1.33.24-1.23,0-1.97-.79-1.97-1.95s.71-2.09,1.88-2.09c1.31,0,1.66,1.11,1.66,1.83,0,.14-.02.26-.02.33h-2.81ZM195.93,38.05c0-.45-.19-1.14-1.01-1.14-.74,0-1.06.66-1.12,1.14h2.13Z"/>
        <path class="cls-3" d="M197.54,37.53c0-.4,0-.73-.03-1.05h.65l.04.64h.02c.2-.37.66-.73,1.32-.73.55,0,1.41.32,1.41,1.65v2.31h-.73v-2.23c0-.63-.24-1.15-.93-1.15-.48,0-.85.33-.98.72-.03.09-.05.21-.05.33v2.33h-.73v-2.82Z"/>
        <path class="cls-3" d="M202.54,38.55c.02.95.65,1.34,1.37,1.34.52,0,.83-.09,1.11-.2l.12.51c-.26.11-.7.24-1.33.24-1.23,0-1.97-.79-1.97-1.95s.71-2.09,1.88-2.09c1.31,0,1.65,1.11,1.65,1.83,0,.14-.02.26-.03.33h-2.81ZM204.67,38.05c0-.45-.19-1.14-1.01-1.14-.74,0-1.06.66-1.12,1.14h2.13Z"/>
        <path class="cls-3" d="M206.18,39.64c.21.14.59.28.96.28.53,0,.78-.26.78-.58s-.21-.52-.75-.71c-.72-.25-1.06-.63-1.06-1.1,0-.62.52-1.14,1.38-1.14.4,0,.76.11.98.24l-.18.51c-.16-.1-.45-.22-.82-.22-.43,0-.67.24-.67.53,0,.32.24.46.76.66.7.26,1.05.59,1.05,1.17,0,.68-.55,1.16-1.5,1.16-.44,0-.85-.11-1.13-.27l.18-.54Z"/>
        <path class="cls-3" d="M209.45,39.64c.21.14.6.28.96.28.53,0,.78-.26.78-.58s-.21-.52-.75-.71c-.72-.25-1.06-.63-1.06-1.1,0-.62.52-1.14,1.38-1.14.41,0,.76.11.98.24l-.18.51c-.16-.1-.45-.22-.82-.22-.43,0-.67.24-.67.53,0,.32.24.46.76.66.7.26,1.05.59,1.05,1.17,0,.68-.55,1.16-1.5,1.16-.44,0-.84-.11-1.13-.27l.18-.54Z"/>
      </g>
    </g>
  </g>
</svg>