<?xml version="1.0" encoding="UTF-8"?>
<svg xmlns="http://www.w3.org/2000/svg" xmlns:xlink="http://www.w3.org/1999/xlink" viewBox="0 0 881.1 500.12">
  <defs>
    <style>
      .cls-1 {
        fill: #fff;
      }

      .cls-2 {
        isolation: isolate;
      }

      .cls-3 {
        fill: url(#linear-gradient);
        mix-blend-mode: multiply;
      }

      .cls-4 {
        opacity: .5;
      }
    </style>
    <linearGradient id="linear-gradient" x1="693.45" y1="358.29" x2="547.34" y2="278.11" gradientUnits="userSpaceOnUse">
      <stop offset="0" stop-color="#fff"/>
      <stop offset=".03" stop-color="#f6f6f6"/>
      <stop offset=".4" stop-color="#8e8e8e"/>
      <stop offset=".69" stop-color="#414141"/>
      <stop offset=".9" stop-color="#121212"/>
      <stop offset="1" stop-color="#000"/>
    </linearGradient>
  </defs>
  <g class="cls-2">
    <g id="Layer_2" data-name="Layer 2">
      <g id="Layer_1-2" data-name="Layer 1">
        <g>
          <path class="cls-1" d="M631.04,0c-137.88,0-250.06,112.18-250.06,250.06,0,36.17-14.6,68.92-38.3,92.62-23.7,23.7-56.45,38.36-92.62,38.36-72.34,0-130.98-58.64-130.98-130.98s58.64-130.98,130.98-130.98c29.01,0,55.8,9.45,77.51,25.41l71.99-94.76C357.83,18.51,306.06,0,250.06,0,112.18,0,0,112.18,0,250.06s112.18,250.06,250.06,250.06c68.94,0,131.46-28.04,176.74-73.32,4.79-4.79,9.37-9.78,13.75-14.94,45.9,53.96,114.26,88.26,190.49,88.26,137.88,0,250.06-112.18,250.06-250.06S768.93,0,631.04,0ZM631.04,381.04c-72.34,0-130.98-58.64-130.98-130.98s58.64-130.98,130.98-130.98,130.98,58.64,130.98,130.98-58.64,130.98-130.98,130.98Z"/>
          <g class="cls-4">
            <path class="cls-3" d="M762.03,250.06c0,72.34-58.64,130.98-130.98,130.98s-130.98-58.64-130.98-130.98c0,61.65-22.39,118.16-59.51,161.8,45.9,53.96,114.26,88.26,190.49,88.26,137.88,0,250.06-112.18,250.06-250.06h-119.08Z"/>
          </g>
        </g>
      </g>
    </g>
  </g>
</svg>