<?xml version="1.0" encoding="UTF-8"?>
<svg xmlns="http://www.w3.org/2000/svg" xmlns:xlink="http://www.w3.org/1999/xlink" viewBox="0 0 640 244.52">
  <defs>
    <style>
      .cls-1 {
        fill: #3a3839;
      }

      .cls-2 {
        isolation: isolate;
      }

      .cls-3 {
        fill: #fff;
      }

      .cls-4 {
        fill: url(#linear-gradient);
        mix-blend-mode: multiply;
      }

      .cls-5 {
        opacity: .5;
      }

      .cls-6 {
        fill: #c3884f;
      }
    </style>
    <linearGradient id="linear-gradient" x1="466.92" y1="130.11" x2="430.92" y2="110.36" gradientUnits="userSpaceOnUse">
      <stop offset="0" stop-color="#fff"/>
      <stop offset=".03" stop-color="#f6f6f6"/>
      <stop offset=".4" stop-color="#8e8e8e"/>
      <stop offset=".69" stop-color="#414141"/>
      <stop offset=".9" stop-color="#121212"/>
      <stop offset="1" stop-color="#000"/>
    </linearGradient>
  </defs>
  <g class="cls-2">
    <g id="Layer_2" data-name="Layer 2">
      <g id="Layer_1-2" data-name="Layer 1">
        <g>
          <g>
            <path class="cls-1" d="M252.16,15.77c0,9.02,7.18,16.12,15.86,16.12,9.29,0,16.38-7.1,16.38-16.12s-7.1-15.77-16.38-15.77c-8.67,0-15.86,6.83-15.86,15.77h0Z"/>
            <path class="cls-6" d="M252.16,15.77c0,9.02,7.18,16.12,15.86,16.12,9.29,0,16.38-7.1,16.38-16.12s-7.1-15.77-16.38-15.77c-8.67,0-15.86,6.83-15.86,15.77h0Z"/>
            <g>
              <path class="cls-3" d="M0,102.33c0,34.95,27.86,62.73,62.81,62.73,16.91,0,32.68-7.1,43.89-18.22,5.52-5.78,5.52-15.07,0-20.24-2.72-2.98-6.22-4.38-9.81-4.38s-7.36,1.4-10.34,4.38c-6.31,6.05-14.72,9.81-23.74,9.81-15.33,0-28.12-10.07-32.24-23.74h76.74c15.24,0,19.36-8.67,16.38-20.94-4.64-29.52-30.31-51.95-60.89-51.95C27.86,39.77,0,67.63,0,102.33h0ZM94.44,92.51H30.57c4.12-13.93,16.91-24.36,32.24-24.36s27.86,10.43,31.63,24.36h0Z"/>
              <path class="cls-3" d="M253.82,54.32v96.63c0,7.62,6.57,14.1,14.19,14.1,8.24,0,14.72-6.48,14.72-14.1V54.32c0-7.97-6.48-14.54-14.72-14.54-7.62,0-14.19,6.57-14.19,14.54h0Z"/>
              <path class="cls-3" d="M524.73,96.28v54.67c0,7.62,6.48,14.1,14.1,14.1,8.24,0,14.54-6.48,14.54-14.1v-54.67c0-15.51,12.79-28.12,28.03-28.12s27.86,12.62,27.86,28.12v54.67c0,7.62,6.57,14.1,14.46,14.1s14.19-6.48,14.19-14.1v-54.67c0-30.84-25.67-56.51-56.51-56.51s-56.68,25.67-56.68,56.51h0Z"/>
              <path class="cls-3" d="M162.75,102.33l-33.82,38.72c-5.43,6.04-4.91,15.33.79,20.5,3.07,2.19,6.31,3.5,9.55,3.5,4.12,0,7.97-1.84,10.95-4.91l31.89-36.27,31.36,36.27c3.33,3.07,7.45,4.91,11.21,4.91,3.33,0,6.31-1.31,9.02-3.5,6.04-5.17,6.83-14.46,1.14-20.5l-33.9-38.72,33.9-38.81c5.69-5.69,4.91-14.98-1.14-19.89-2.19-2.45-5.43-3.85-9.02-3.85-4.03,0-8.41,1.93-11.21,4.64l-31.36,36.62-31.89-36.62c-2.98-2.98-6.83-4.64-10.95-4.64-3.24,0-6.48,1.4-9.55,3.85-5.69,4.91-6.22,14.19-.79,19.89l33.82,38.81Z"/>
              <path class="cls-3" d="M451.55,41.84c-33.97,0-61.6,27.64-61.6,61.6,0,8.91-3.6,16.98-9.44,22.82-5.84,5.84-13.91,9.45-22.82,9.45-17.82,0-32.27-14.45-32.27-32.27s14.45-32.27,32.27-32.27c7.15,0,13.75,2.33,19.1,6.26l17.73-23.35c-10.28-7.69-23.03-12.25-36.83-12.25-33.97,0-61.6,27.64-61.6,61.6s27.64,61.6,61.6,61.6c16.98,0,32.39-6.91,43.54-18.06,1.18-1.18,2.31-2.41,3.39-3.68,11.31,13.29,28.15,21.74,46.93,21.74,33.97,0,61.6-27.64,61.6-61.6s-27.64-61.6-61.6-61.6ZM451.55,135.72c-17.82,0-32.27-14.45-32.27-32.27s14.45-32.27,32.27-32.27,32.27,14.45,32.27,32.27-14.45,32.27-32.27,32.27Z"/>
            </g>
            <g class="cls-5">
              <path class="cls-4" d="M483.82,103.45c0,17.82-14.45,32.27-32.27,32.27s-32.27-14.45-32.27-32.27c0,15.19-5.52,29.11-14.66,39.86,11.31,13.29,28.15,21.74,46.93,21.74,33.97,0,61.6-27.64,61.6-61.6h-29.34Z"/>
            </g>
          </g>
          <g>
            <path class="cls-6" d="M5.22,231.96v-42.19h5.92v42.19h-5.92ZM8.27,215.59v-5.63h13.49c1.93,0,3.49-.67,4.66-2,1.17-1.33,1.75-3.08,1.75-5.25s-.59-3.98-1.75-5.31c-1.17-1.33-2.72-2-4.66-2h-13.49v-5.63h13.29c2.55,0,4.78.54,6.67,1.61,1.9,1.07,3.37,2.58,4.42,4.51,1.05,1.93,1.58,4.21,1.58,6.82s-.53,4.86-1.58,6.79c-1.06,1.93-2.53,3.43-4.42,4.5-1.9,1.06-4.12,1.6-6.67,1.6h-13.29Z"/>
            <path class="cls-6" d="M50.57,232.39c-3.95,0-7-1.15-9.17-3.44-2.17-2.29-3.25-5.52-3.25-9.68v-4.9c0-4.12,1.08-7.31,3.25-9.57,2.17-2.26,5.22-3.39,9.17-3.39s7,1.13,9.17,3.39c2.17,2.26,3.25,5.45,3.25,9.57v4.99c0,4.14-1.08,7.35-3.25,9.62-2.17,2.27-5.22,3.41-9.17,3.41ZM50.57,226.76c2.07,0,3.67-.65,4.8-1.94,1.13-1.3,1.7-3.11,1.7-5.45v-4.99c0-2.34-.57-4.15-1.7-5.43-1.13-1.28-2.73-1.92-4.8-1.92s-3.65.64-4.79,1.92c-1.14,1.28-1.71,3.08-1.71,5.43v4.99c0,2.34.57,4.16,1.71,5.45,1.14,1.3,2.74,1.94,4.79,1.94Z"/>
            <path class="cls-6" d="M76.92,231.96l-9.28-30.12h6.18l5.34,21.5,7.51-21.5h4.12l7.51,21.5,5.34-21.5h6.18l-9.28,30.12h-4.47l-7.34-20.8-7.34,20.8h-4.47Z"/>
            <path class="cls-6" d="M127.95,232.39c-4.2,0-7.45-1.17-9.75-3.51-2.3-2.34-3.45-5.67-3.45-9.98v-3.39c0-4.49,1.11-7.96,3.32-10.42,2.21-2.46,5.33-3.68,9.36-3.68,3.79,0,6.73,1.39,8.81,4.18,2.08,2.79,3.12,6.69,3.12,11.72v1.97h-20.31v-4.76h14.68c-.17-2.44-.81-4.34-1.9-5.72-1.09-1.37-2.56-2.06-4.4-2.06-2.22,0-3.96.74-5.19,2.21-1.24,1.47-1.86,3.55-1.86,6.24v3.83c0,2.49.66,4.41,1.99,5.74,1.32,1.33,3.19,2,5.59,2,1.2,0,2.39-.24,3.57-.73,1.18-.48,2.23-1.16,3.16-2.03l3.89,3.89c-1.49,1.43-3.16,2.54-5.02,3.32-1.86.78-3.72,1.18-5.6,1.18Z"/>
            <path class="cls-6" d="M147.48,231.96v-30.12h5.92v30.12h-5.92ZM164.05,208.98c-.52-.64-1.18-1.12-1.97-1.45-.79-.33-1.71-.49-2.76-.49-1.88,0-3.33.52-4.37,1.55-1.04,1.04-1.55,2.47-1.55,4.31l-.61-5.8c.91-1.78,2.1-3.17,3.58-4.18,1.48-1.01,3.11-1.51,4.89-1.51,1.37,0,2.62.2,3.73.59,1.11.4,2.08.98,2.92,1.75l-3.86,5.22Z"/>
            <path class="cls-6" d="M184.59,232.39c-4.2,0-7.45-1.17-9.75-3.51-2.3-2.34-3.45-5.67-3.45-9.98v-3.39c0-4.49,1.11-7.96,3.32-10.42,2.21-2.46,5.33-3.68,9.36-3.68,3.79,0,6.73,1.39,8.81,4.18,2.08,2.79,3.12,6.69,3.12,11.72v1.97h-20.31v-4.76h14.68c-.17-2.44-.81-4.34-1.9-5.72-1.09-1.37-2.56-2.06-4.4-2.06-2.22,0-3.96.74-5.19,2.21-1.24,1.47-1.86,3.55-1.86,6.24v3.83c0,2.49.66,4.41,1.99,5.74,1.32,1.33,3.19,2,5.59,2,1.2,0,2.39-.24,3.57-.73,1.18-.48,2.23-1.16,3.16-2.03l3.89,3.89c-1.49,1.43-3.16,2.54-5.02,3.32-1.86.78-3.72,1.18-5.6,1.18Z"/>
            <path class="cls-6" d="M213.66,232.48c-3.33,0-5.9-1.07-7.7-3.21-1.81-2.14-2.71-5.15-2.71-9.04v-6.64c0-3.91.89-6.93,2.65-9.07,1.77-2.14,4.26-3.21,7.47-3.21,1.78,0,3.41.46,4.89,1.39,1.48.93,2.67,2.23,3.58,3.92l-.61,6.15c0-1.28-.23-2.37-.7-3.28-.46-.91-1.14-1.6-2.02-2.07-.88-.47-1.95-.71-3.21-.71-1.95,0-3.47.61-4.54,1.83s-1.61,2.93-1.61,5.14v6.56c0,2.19.54,3.87,1.61,5.06s2.59,1.78,4.54,1.78c1.26,0,2.33-.25,3.21-.74s1.55-1.2,2.02-2.13c.47-.93.7-2.04.7-3.34l.41,6.35c-.54,1.35-1.48,2.57-2.8,3.64-1.33,1.07-3.05,1.61-5.18,1.61ZM221.23,231.96v-42.19h5.92v42.19h-5.92Z"/>
            <path class="cls-6" d="M252.11,231.96v-42.19h5.92v42.19h-5.92ZM265.6,232.39c-1.88,0-3.51-.45-4.9-1.35-1.39-.9-2.42-2.17-3.08-3.82l.41-6.3c0,1.3.23,2.4.7,3.31s1.14,1.61,2.02,2.09,1.95.73,3.21.73c1.95,0,3.47-.59,4.54-1.78,1.07-1.19,1.61-2.87,1.61-5.03v-6.53c0-2.21-.54-3.92-1.61-5.14-1.07-1.22-2.59-1.83-4.54-1.83-1.26,0-2.33.23-3.21.7s-1.55,1.14-2.02,2.03c-.46.89-.7,1.97-.7,3.25l-.61-5.8c.91-1.76,2.1-3.12,3.57-4.08,1.47-.96,3.1-1.44,4.9-1.44,3.23,0,5.73,1.07,7.49,3.21,1.76,2.14,2.64,5.16,2.64,9.07v6.56c0,3.85-.91,6.84-2.73,8.97-1.82,2.13-4.38,3.19-7.69,3.19Z"/>
            <path class="cls-6" d="M292.09,234.42l-12.01-32.58h6.03l9.26,26.17-3.28,6.41ZM300.71,201.84h6.04l-12.82,37.17c-.72,2.07-1.75,3.51-3.11,4.31s-3.21,1.2-5.57,1.2h-1.19v-5.69h1.19c1.1,0,1.98-.22,2.63-.67.65-.45,1.21-1.21,1.7-2.29l11.14-34.03Z"/>
            <path class="cls-6" d="M328.5,231.96v-42.19h5.92v42.19h-5.92ZM331.55,215.59v-5.63h13.49c1.93,0,3.49-.67,4.66-2,1.17-1.33,1.75-3.08,1.75-5.25s-.59-3.98-1.75-5.31c-1.17-1.33-2.72-2-4.66-2h-13.49v-5.63h13.29c2.55,0,4.78.54,6.67,1.61,1.9,1.07,3.37,2.58,4.42,4.51,1.05,1.93,1.58,4.21,1.58,6.82s-.53,4.86-1.58,6.79c-1.06,1.93-2.53,3.43-4.42,4.5-1.9,1.06-4.12,1.6-6.67,1.6h-13.29Z"/>
            <path class="cls-6" d="M373.85,232.39c-3.95,0-7-1.15-9.17-3.44-2.17-2.29-3.25-5.52-3.25-9.68v-4.9c0-4.12,1.08-7.31,3.25-9.57s5.22-3.39,9.17-3.39,7,1.13,9.17,3.39c2.17,2.26,3.25,5.45,3.25,9.57v4.99c0,4.14-1.08,7.35-3.25,9.62-2.17,2.27-5.22,3.41-9.17,3.41ZM373.85,226.76c2.07,0,3.67-.65,4.8-1.94,1.13-1.3,1.7-3.11,1.7-5.45v-4.99c0-2.34-.57-4.15-1.7-5.43-1.13-1.28-2.73-1.92-4.8-1.92s-3.65.64-4.79,1.92c-1.14,1.28-1.71,3.08-1.71,5.43v4.99c0,2.34.57,4.16,1.71,5.45,1.14,1.3,2.74,1.94,4.79,1.94Z"/>
            <path class="cls-6" d="M405.33,232.39c-2.67,0-5.09-.39-7.27-1.18-2.18-.78-4.13-1.96-5.85-3.53l3.51-4.32c1.64,1.24,3.26,2.17,4.86,2.79,1.6.62,3.18.93,4.74.93,2.34,0,4.09-.36,5.27-1.09,1.17-.73,1.76-1.81,1.76-3.26,0-1.12-.39-1.91-1.18-2.38-.78-.46-1.81-.77-3.08-.91-1.27-.14-2.63-.27-4.08-.36-1.22-.1-2.43-.25-3.63-.45-1.2-.2-2.29-.57-3.28-1.1-.99-.53-1.78-1.32-2.37-2.37s-.89-2.45-.89-4.21c0-3.19.98-5.58,2.93-7.17,1.95-1.59,4.86-2.38,8.73-2.38,2.36,0,4.56.32,6.59.96,2.03.64,3.94,1.62,5.72,2.93l-3.57,4.32c-1.51-.97-2.99-1.69-4.45-2.18-1.46-.48-2.89-.73-4.28-.73-2.01,0-3.52.34-4.53,1.03-1.01.69-1.51,1.72-1.51,3.09,0,.91.35,1.56,1.04,1.96s1.61.65,2.76.77,2.37.22,3.68.32c1.26.08,2.53.22,3.82.42,1.29.2,2.47.59,3.55,1.17,1.08.58,1.95,1.44,2.61,2.58.66,1.14.99,2.7.99,4.67,0,3.23-1.05,5.65-3.15,7.25-2.1,1.61-5.26,2.41-9.47,2.41Z"/>
            <path class="cls-6" d="M436.15,232.39c-2.67,0-5.09-.39-7.27-1.18-2.18-.78-4.13-1.96-5.85-3.53l3.51-4.32c1.64,1.24,3.26,2.17,4.86,2.79,1.6.62,3.18.93,4.74.93,2.34,0,4.09-.36,5.27-1.09,1.17-.73,1.76-1.81,1.76-3.26,0-1.12-.39-1.91-1.18-2.38-.78-.46-1.81-.77-3.08-.91-1.27-.14-2.63-.27-4.08-.36-1.22-.1-2.43-.25-3.63-.45-1.2-.2-2.29-.57-3.28-1.1-.99-.53-1.78-1.32-2.37-2.37s-.89-2.45-.89-4.21c0-3.19.98-5.58,2.93-7.17,1.95-1.59,4.86-2.38,8.73-2.38,2.36,0,4.56.32,6.59.96,2.03.64,3.94,1.62,5.72,2.93l-3.57,4.32c-1.51-.97-2.99-1.69-4.45-2.18-1.46-.48-2.89-.73-4.28-.73-2.01,0-3.52.34-4.53,1.03-1.01.69-1.51,1.72-1.51,3.09,0,.91.35,1.56,1.04,1.96s1.61.65,2.76.77,2.37.22,3.68.32c1.26.08,2.53.22,3.82.42,1.29.2,2.47.59,3.55,1.17,1.08.58,1.95,1.44,2.61,2.58.66,1.14.99,2.7.99,4.67,0,3.23-1.05,5.65-3.15,7.25-2.1,1.61-5.26,2.41-9.47,2.41Z"/>
            <path class="cls-6" d="M456.31,195.69v-5.92h5.92v5.92h-5.92ZM456.31,231.96v-30.12h5.92v30.12h-5.92Z"/>
            <path class="cls-6" d="M471.22,231.96v-42.19h5.92v42.19h-5.92ZM484.72,232.39c-1.88,0-3.51-.45-4.9-1.35-1.39-.9-2.42-2.17-3.08-3.82l.41-6.3c0,1.3.23,2.4.7,3.31s1.14,1.61,2.02,2.09,1.95.73,3.21.73c1.95,0,3.47-.59,4.54-1.78s1.61-2.87,1.61-5.03v-6.53c0-2.21-.54-3.92-1.61-5.14-1.07-1.22-2.59-1.83-4.54-1.83-1.26,0-2.33.23-3.21.7s-1.55,1.14-2.02,2.03c-.46.89-.7,1.97-.7,3.25l-.61-5.8c.91-1.76,2.1-3.12,3.57-4.08,1.47-.96,3.1-1.44,4.9-1.44,3.23,0,5.73,1.07,7.49,3.21,1.76,2.14,2.64,5.16,2.64,9.07v6.56c0,3.85-.91,6.84-2.73,8.97-1.82,2.13-4.38,3.19-7.69,3.19Z"/>
            <path class="cls-6" d="M503.55,195.69v-5.92h5.92v5.92h-5.92ZM503.55,231.96v-30.12h5.92v30.12h-5.92Z"/>
            <path class="cls-6" d="M524.38,189.77v34.41c0,.72.16,1.28.48,1.68.32.41.77.61,1.35.61h2.79v5.63h-3.48c-2.22,0-3.96-.7-5.19-2.09-1.24-1.39-1.86-3.36-1.86-5.89v-34.35h5.92Z"/>
            <path class="cls-6" d="M535.66,195.69v-5.92h5.92v5.92h-5.92ZM535.66,231.96v-30.12h5.92v30.12h-5.92Z"/>
            <path class="cls-6" d="M548.26,207.18v-5.34h13.58v5.34h-13.58ZM558.41,232.1c-2.48,0-4.27-.69-5.38-2.06-1.11-1.37-1.67-3.35-1.67-5.92v-31.05h5.92v31.1c0,.72.15,1.28.43,1.68.29.41.72.61,1.28.61h2.84v5.63h-3.42Z"/>
            <path class="cls-6" d="M569.96,195.69v-5.92h5.92v5.92h-5.92ZM569.96,231.96v-30.12h5.92v30.12h-5.92Z"/>
            <path class="cls-6" d="M597.2,232.39c-4.2,0-7.45-1.17-9.75-3.51-2.3-2.34-3.45-5.67-3.45-9.98v-3.39c0-4.49,1.11-7.96,3.32-10.42,2.21-2.46,5.33-3.68,9.36-3.68,3.79,0,6.73,1.39,8.81,4.18,2.08,2.79,3.12,6.69,3.12,11.72v1.97h-20.31v-4.76h14.68c-.17-2.44-.81-4.34-1.9-5.72-1.09-1.37-2.56-2.06-4.4-2.06-2.22,0-3.96.74-5.19,2.21-1.24,1.47-1.86,3.55-1.86,6.24v3.83c0,2.49.66,4.41,1.99,5.74,1.32,1.33,3.19,2,5.59,2,1.2,0,2.39-.24,3.57-.73,1.18-.48,2.23-1.16,3.16-2.03l3.89,3.89c-1.49,1.43-3.16,2.54-5.02,3.32-1.86.78-3.72,1.18-5.6,1.18Z"/>
            <path class="cls-6" d="M627.38,232.39c-2.67,0-5.09-.39-7.27-1.18-2.18-.78-4.13-1.96-5.85-3.53l3.51-4.32c1.64,1.24,3.26,2.17,4.86,2.79,1.6.62,3.18.93,4.74.93,2.34,0,4.09-.36,5.27-1.09,1.17-.73,1.76-1.81,1.76-3.26,0-1.12-.39-1.91-1.18-2.38-.78-.46-1.81-.77-3.08-.91-1.27-.14-2.63-.27-4.08-.36-1.22-.1-2.43-.25-3.63-.45-1.2-.2-2.29-.57-3.28-1.1-.99-.53-1.78-1.32-2.37-2.37s-.89-2.45-.89-4.21c0-3.19.98-5.58,2.93-7.17,1.95-1.59,4.86-2.38,8.73-2.38,2.36,0,4.56.32,6.59.96,2.03.64,3.94,1.62,5.72,2.93l-3.57,4.32c-1.51-.97-2.99-1.69-4.45-2.18-1.46-.48-2.89-.73-4.28-.73-2.01,0-3.52.34-4.53,1.03-1.01.69-1.51,1.72-1.51,3.09,0,.91.35,1.56,1.04,1.96s1.61.65,2.76.77,2.37.22,3.68.32c1.26.08,2.53.22,3.82.42,1.29.2,2.47.59,3.55,1.17,1.08.58,1.95,1.44,2.61,2.58.66,1.14.99,2.7.99,4.67,0,3.23-1.05,5.65-3.15,7.25-2.1,1.61-5.26,2.41-9.47,2.41Z"/>
          </g>
        </g>
      </g>
    </g>
  </g>
</svg>