<?xml version="1.0" encoding="UTF-8"?>
<svg id="Layer_2" data-name="Layer 2" xmlns="http://www.w3.org/2000/svg" viewBox="0 0 158.14 76.14">
  <defs>
    <style>
      .cls-1 {
        fill: #5e61a7;
      }
    </style>
  </defs>
  <g id="Layer_1-2" data-name="Layer 1">
    <path class="cls-1" d="M17.57,12.53c8.31,0,14.78,6.71,14.78,15.85s-6.47,15.85-14.78,15.85c-4.27,0-7.54-1.78-9.74-4.51v16.15H0V13.36h7.84v3.62c2.2-2.73,5.46-4.45,9.74-4.45h0ZM16.21,37.23c4.93,0,8.43-3.68,8.43-8.91s-3.5-8.79-8.43-8.79-8.55,3.62-8.55,8.79,3.8,8.91,8.55,8.91ZM41.99,17.81c1.78-3.5,5.22-5.52,9.92-4.87v7.36c-6.41-1.01-9.92,1.96-9.92,10.03v13.06h-7.84V13.36h7.84v4.45ZM56.85,9.14c-2.61,0-4.69-2.02-4.69-4.63s2.08-4.51,4.69-4.51,4.69,2.02,4.69,4.51-2.08,4.63-4.69,4.63ZM52.81,43.4V13.36h7.9v30.04h-7.9ZM81.92,12.53c7.84,0,11.82,5.28,11.82,13.3v17.57h-7.84v-16.09c0-4.57-2.08-7.48-6.41-7.48s-7.24,3.44-7.24,8.73v14.84h-7.84V13.36h7.84v3.8c2.08-2.67,5.34-4.63,9.68-4.63ZM114.17,36.1l1.9,6.35c-2.37.95-4.51,1.42-7.01,1.42-6.89,0-10.03-4.27-10.03-10.75v-12.88h-5.05v-6.89h5.05V3.62h7.9v9.74h8.79v6.89h-8.79v12.88c0,2.43,1.19,3.8,3.68,3.8,1.37,0,2.37-.24,3.56-.83ZM117.34,43.4V.06h7.84v43.34h-7.84ZM143.24,44.23c-9.62,0-16.33-6.35-16.33-15.85,0-8.97,6.29-15.85,15.73-15.85s15.5,6.83,15.5,15.44c0,.95,0,1.84-.18,2.79h-23.33c.53,3.86,3.27,6.83,8.73,6.83,3.8,0,6.12-1.72,7.3-3.98l7.07,2.08c-1.72,3.92-6.59,8.55-14.49,8.55h0ZM134.63,25.83h15.85c-.36-3.68-3.21-6.65-7.9-6.65s-7.54,3.21-7.96,6.65Z"/>
    <path class="cls-1" d="M25.24,66.43c0,.46-.08.85-.25,1.18-.16.32-.37.57-.61.74h.03c.29,0,.56-.07.8-.2.24-.13.46-.3.66-.51.19-.21.37-.44.52-.69s.29-.5.41-.74c.02-.05.06-.1.11-.13.05-.03.1-.04.15-.04.08,0,.15.03.2.09.05.06.07.12.07.19,0,.04,0,.08-.02.11-.13.29-.28.58-.46.87-.18.29-.39.56-.63.79-.24.23-.51.43-.81.57-.3.15-.63.22-1,.22-.26,0-.52-.04-.77-.12-.25-.08-.47-.21-.66-.39-.07-.05-.13-.11-.18-.18-.05-.06-.09-.12-.12-.18,0,0-.01-.02-.01-.03-.03-.04-.04-.09-.04-.14,0-.06.02-.12.07-.18,0,0,0-.02.01-.02h.01c.05-.05.1-.08.16-.08h.02s.04,0,.05,0c0,0,.01,0,.01,0,0,0,0,0,.02,0s.02,0,.04.01c0,0,0,0,.01,0,.04.03.08.07.11.11.03.06.07.11.12.16.04.04.09.08.14.11.05.03.12.05.19.05.12,0,.25-.04.37-.11.12-.07.24-.18.34-.32.1-.14.18-.31.24-.51.06-.2.09-.42.09-.67,0-.18-.02-.33-.06-.46-.04-.13-.08-.23-.14-.31-.06-.08-.12-.14-.18-.18-.06-.04-.13-.06-.19-.06-.13,0-.27.07-.41.21s-.27.32-.41.53c-.13.21-.27.45-.4.71-.13.26-.27.51-.4.76,0,.81-.02,1.58-.04,2.31-.02.73-.05,1.41-.09,2.04-.04.63-.1,1.2-.18,1.71-.07.51-.18.94-.31,1.31s-.29.64-.48.83c-.19.19-.42.29-.7.29-.08,0-.18-.02-.29-.05s-.21-.11-.31-.21c-.09-.11-.17-.26-.24-.46-.06-.2-.1-.47-.1-.8,0-.42.05-.92.16-1.47.1-.56.25-1.15.45-1.78.19-.63.42-1.27.68-1.93s.56-1.3.88-1.92v-1.01c-.06.07-.13.11-.22.11s-.16-.03-.21-.09-.07-.12-.07-.19c0-.03,0-.07.02-.11.12-.27.21-.54.28-.78.06-.25.11-.46.15-.65s.05-.34.06-.45v-.17c0-.07.03-.14.09-.19.05-.05.12-.08.2-.08s.14.03.2.08c.05.05.08.12.08.2v2.3l.34-.58c.11-.19.24-.36.36-.51.13-.15.26-.27.41-.36.15-.09.31-.14.48-.14.17,0,.33.04.47.12.14.08.26.19.36.33.1.14.18.31.23.5.05.19.08.4.08.62h0ZM21.92,68.84c-.24.55-.47,1.1-.66,1.65-.2.55-.36,1.09-.5,1.6-.14.51-.24,1-.32,1.44-.07.45-.11.84-.11,1.18,0,.08,0,.18.01.28,0,.1.03.19.06.28s.07.16.13.21c.05.06.13.09.22.09.16,0,.31-.1.43-.31.12-.21.22-.49.3-.84.08-.35.15-.76.21-1.21.05-.46.1-.93.13-1.43.03-.5.06-1,.07-1.51.01-.51.03-.98.04-1.43h0ZM27.6,65.44c-.02.13-.04.26-.07.38-.03.12-.06.22-.09.31-.03.09-.05.16-.07.21-.02.05-.03.08-.04.09-.05.11-.14.17-.26.17-.07,0-.13-.03-.19-.08s-.09-.12-.09-.2c0-.03,0-.05.01-.07,0-.01.02-.04.04-.09.02-.04.04-.12.07-.22.03-.1.07-.27.11-.49-.08,0-.17,0-.26,0-.09,0-.17-.02-.25-.05-.08-.03-.14-.08-.19-.14-.05-.06-.07-.15-.07-.27,0-.08.02-.2.07-.34.05-.14.11-.29.19-.43.08-.14.17-.26.27-.36s.2-.15.3-.15c.11,0,.21.04.28.13.07.08.13.19.17.31.04.12.07.25.09.39.02.13.03.25.03.35h.49c.28,0,.5.05.65.18.15.12.22.33.22.61,0,.11,0,.23-.02.36-.01.12-.03.25-.05.39-.02.13-.04.26-.05.39-.01.13-.02.26-.02.38,0,.18.02.33.07.45s.11.21.19.28.15.12.24.15c.08.03.16.04.23.04.21,0,.42-.07.61-.21.19-.14.36-.31.52-.51.16-.2.3-.41.43-.63.13-.22.23-.41.32-.58.02-.04.06-.08.1-.1.04-.02.09-.04.14-.04.09,0,.16.03.21.09.05.06.07.12.07.19,0,.05,0,.09-.03.13-.11.2-.25.44-.4.69-.15.26-.33.5-.52.72-.19.22-.41.41-.66.57-.24.15-.51.23-.8.23-.18,0-.35-.03-.51-.1-.16-.07-.3-.16-.42-.29s-.21-.28-.28-.47c-.07-.19-.1-.4-.1-.63,0-.25.02-.5.07-.74.05-.25.07-.48.07-.71,0-.09-.02-.17-.06-.21-.04-.05-.14-.07-.28-.07h-.49ZM27.1,64.89s0-.08,0-.14c0-.06,0-.11-.01-.17,0-.05-.02-.1-.03-.14s-.03-.06-.04-.06-.03.02-.06.06c-.02.04-.05.08-.07.13s-.05.11-.07.17c-.02.06-.03.11-.04.15h.33ZM32.68,62.64c0,.19-.07.35-.2.48-.13.13-.29.2-.48.2s-.35-.07-.48-.2-.2-.29-.2-.48c0-.09.02-.18.05-.27.03-.08.08-.15.15-.22.06-.06.13-.11.22-.15.08-.03.17-.05.27-.05s.18.02.27.05c.08.03.15.08.22.15.06.06.11.13.15.22.03.08.05.17.05.27h0ZM31.47,67.03c0-.72.04-1.43.13-2.15,0-.07.04-.13.09-.18s.12-.08.2-.08.14.03.19.09.07.12.07.2c0,.03,0,.12-.01.27l-.04.53c-.02.21-.04.43-.05.66-.01.23-.02.45-.02.64,0,.26.03.48.08.64.05.16.12.29.2.38.08.09.17.15.26.18.09.03.18.04.27.04.14,0,.28-.05.43-.15.15-.1.3-.24.46-.42.16-.18.32-.4.48-.65.16-.25.32-.53.47-.84.02-.05.06-.09.1-.12.04-.03.09-.04.15-.04.08,0,.15.03.2.09.05.06.08.12.08.19,0,.05,0,.09-.03.13l-.22.42c-.09.16-.19.33-.31.51-.11.17-.24.35-.38.52-.14.17-.28.33-.44.46-.15.14-.32.25-.49.33s-.34.13-.52.13c-.22,0-.42-.05-.59-.14-.17-.09-.31-.22-.43-.38s-.2-.35-.26-.57c-.06-.22-.09-.45-.09-.7h0ZM32.26,62.64c0-.07-.03-.13-.08-.18s-.11-.08-.18-.08-.13.03-.18.08c-.05.05-.07.11-.07.18s.02.13.07.18c.05.05.11.07.18.07s.13-.02.18-.07.08-.11.08-.18h0ZM36.34,67.85c.08-.16.17-.35.28-.54.1-.2.22-.4.34-.6.12-.2.25-.4.38-.6.13-.2.27-.39.42-.57.14-.18.29-.3.44-.38.15-.08.29-.12.42-.12.26,0,.45.09.58.28.12.19.19.42.19.7,0,.06,0,.14,0,.23l-.04.61c0,.11-.01.21-.01.31,0,.12,0,.23.02.34.01.11.04.21.07.29.03.08.08.15.15.19.06.05.15.07.25.07.19,0,.37-.07.55-.22.18-.15.35-.32.5-.52.15-.2.28-.41.4-.62s.2-.38.25-.51c.02-.05.06-.1.11-.13.05-.03.1-.04.15-.04.08,0,.15.03.21.09.05.06.08.13.08.2,0,.03,0,.07-.02.1l-.12.25c-.06.12-.14.27-.24.43-.1.16-.21.33-.34.52-.13.18-.27.35-.43.5-.16.15-.33.27-.51.37-.18.1-.37.15-.57.15-.22,0-.41-.04-.55-.13-.14-.09-.25-.2-.33-.34-.08-.14-.13-.3-.16-.47-.03-.17-.04-.35-.04-.52,0-.07,0-.16.01-.25,0-.09.02-.19.03-.3.01-.1.02-.21.03-.31,0-.1.01-.2.01-.3,0-.16-.02-.27-.07-.33s-.09-.09-.13-.09c-.08,0-.17.05-.27.14s-.21.21-.32.36c-.11.15-.23.32-.34.51-.12.19-.23.37-.33.56-.1.18-.2.36-.28.53s-.16.31-.21.42c-.1.21-.2.35-.3.42-.1.07-.2.11-.31.11-.14,0-.26-.04-.35-.13-.09-.09-.13-.21-.13-.37,0-.03,0-.1.01-.21l.13-1.32c.01-.16.03-.31.04-.45,0-.14.01-.26.01-.35,0-.12,0-.24-.01-.36,0-.11-.03-.18-.06-.21-.04.01-.12.11-.24.28-.11.17-.26.48-.44.91-.02.05-.06.1-.11.13-.05.03-.1.04-.16.04-.08,0-.15-.03-.2-.09s-.07-.12-.07-.2c0-.03,0-.07.02-.11.22-.53.44-.93.63-1.18.2-.25.39-.38.59-.38.11,0,.21.03.29.09.08.06.14.13.19.23.05.09.08.2.1.31.02.11.03.23.03.35,0,.09,0,.23-.02.42-.01.19-.03.39-.05.61l-.05.65c-.02.21-.04.39-.05.54h0ZM47.56,61.03c0,.08-.03.14-.08.19-.05.05-.12.07-.2.07h-3.8v.08c0,.3-.02.63-.07.97-.04.34-.11.69-.18,1.03-.08.34-.16.68-.26,1-.1.32-.2.62-.3.9-.1.27-.2.51-.3.71-.1.2-.19.35-.27.45.06.23.14.44.23.64.09.2.19.37.3.52.11.15.23.26.36.35.13.08.27.13.42.13.17,0,.35-.07.52-.22.17-.15.33-.32.48-.52.15-.2.28-.41.39-.61.11-.21.19-.37.24-.49.05-.12.14-.18.26-.18.08,0,.15.03.21.09s.08.12.08.19c0,.03,0,.07-.02.1l-.1.24c-.06.12-.14.27-.23.43-.09.16-.2.34-.32.52-.12.18-.26.35-.41.5-.15.15-.32.27-.49.37-.17.1-.36.15-.55.15-.34,0-.65-.11-.93-.34-.27-.22-.51-.54-.7-.94-.19-.4-.34-.88-.44-1.44-.1-.55-.15-1.16-.15-1.82,0-.16,0-.36,0-.58,0-.22.01-.46.03-.7.01-.25.04-.5.07-.76.03-.26.07-.52.12-.77h-2.69c-.08,0-.15-.02-.2-.07-.05-.05-.08-.11-.08-.19s.03-.14.08-.19c.05-.05.12-.07.2-.07h2.81c.05-.18.11-.34.18-.49s.14-.28.23-.39c.09-.11.18-.2.29-.26.11-.06.22-.09.35-.09s.24.03.33.09c.09.06.17.15.24.26s.12.24.15.39c.04.15.07.31.09.49h3.83c.08,0,.15.02.2.07.05.05.08.11.08.19h0ZM41.93,65.69c.15-.33.29-.69.41-1.07.12-.38.23-.77.31-1.16.09-.39.15-.77.2-1.15.05-.37.07-.72.07-1.03h-.88c-.07.31-.13.69-.17,1.15s-.06,1.01-.06,1.67c0,.36,0,.67.03.92.02.25.05.47.09.67h0ZM42.62,60.09s-.11.05-.19.15c-.08.1-.17.27-.25.53h.72c-.02-.21-.06-.37-.11-.49-.05-.12-.1-.18-.16-.18h0ZM42.05,66.23h0s0,0,0,0ZM49.03,68.89c.37-.16.7-.35,1.01-.57.3-.21.57-.44.81-.68.24-.24.44-.48.61-.73.17-.25.3-.48.4-.71.04-.11.13-.16.25-.16.08,0,.15.03.21.09.05.06.08.12.08.19,0,.04,0,.08-.02.11-.11.24-.25.5-.42.76s-.38.52-.62.77c-.24.25-.53.5-.85.73-.32.23-.7.45-1.12.64.27.28.5.59.7.93.2.34.37.7.5,1.07.13.37.23.74.3,1.12.07.38.1.74.1,1.08,0,.31-.03.61-.09.89-.06.28-.14.52-.25.72-.11.2-.25.37-.41.48-.16.12-.34.18-.55.18-.3,0-.53-.11-.7-.33-.16-.22-.29-.53-.36-.92-.08-.39-.12-.85-.13-1.38-.01-.53-.02-1.11-.02-1.73v-2.41c0-.88,0-1.38.01-1.48,0-.1,0-.62.01-1.55s0-1.44.01-1.53c0-.09.01-.56.03-1.42.01-.86.04-1.62.09-2.3.04-.67.12-1.24.22-1.71.1-.46.24-.82.41-1.06.17-.24.39-.36.66-.36.21,0,.39.06.53.18s.26.27.35.47c.09.2.15.43.19.69.04.26.06.54.06.83,0,.61-.05,1.2-.16,1.77-.1.57-.25,1.12-.43,1.65-.18.53-.39,1.06-.63,1.56-.24.51-.5,1.01-.77,1.5v2.05c0,.45,0,.64,0,.57h0ZM49.05,65.12c.2-.38.39-.79.57-1.22.17-.43.32-.87.45-1.32.12-.45.22-.92.29-1.39.07-.47.1-.95.1-1.43,0-.24-.01-.46-.03-.65-.02-.19-.06-.36-.1-.5-.05-.14-.11-.24-.18-.32-.07-.08-.16-.12-.25-.12s-.18.06-.26.18c-.07.12-.14.28-.19.48-.05.2-.1.43-.14.69-.04.26-.07.53-.09.81s-.04.56-.06.85c-.01.28-.03.55-.03.79,0,.25-.01.47-.01.66v.43s-.04,1.47-.04,1.47v.6ZM49.03,69.81v1.62c0,.46,0,.92,0,1.38,0,.45.03.86.07,1.22s.11.65.19.88c.09.22.21.33.38.33.15,0,.27-.07.37-.2.09-.13.17-.29.22-.48.05-.18.09-.37.11-.57.02-.19.03-.35.03-.47,0-.3-.03-.62-.09-.96-.06-.33-.14-.67-.26-.99-.12-.33-.26-.64-.43-.95-.17-.3-.37-.58-.59-.82h0ZM55.3,67.7c-.12,0-.23,0-.33-.03-.07.15-.16.29-.27.42-.1.13-.23.24-.36.33-.14.09-.29.17-.46.22-.17.05-.35.08-.55.08-.23,0-.45-.04-.64-.12-.19-.08-.36-.2-.51-.34-.14-.15-.26-.32-.34-.53-.08-.21-.12-.44-.12-.69,0-.32.06-.6.17-.83.11-.24.25-.43.4-.59.15-.16.3-.27.45-.35s.26-.12.34-.12.14.02.18.07c.04.04.06.11.06.19s-.03.14-.08.18c-.05.04-.12.08-.2.12-.08.04-.16.1-.25.17-.09.07-.17.16-.25.27-.08.11-.14.24-.19.39-.05.15-.07.32-.07.5,0,.16.02.32.07.46s.12.26.22.37c.09.1.21.18.34.24.13.06.27.09.43.09.28,0,.52-.07.71-.2.19-.13.33-.3.43-.51-.29-.15-.54-.37-.73-.66-.19-.28-.28-.6-.28-.96,0-.28.07-.52.21-.7.14-.18.32-.27.54-.27.13,0,.26.03.38.1.12.06.23.17.32.31.09.14.17.32.22.54.05.22.08.48.08.79,0,.16-.02.33-.06.5.03,0,.06,0,.09,0h.1c.17,0,.32-.02.46-.06.13-.04.26-.1.37-.18.11-.08.21-.18.3-.31.09-.12.17-.27.25-.43.01-.03.05-.06.1-.09.05-.03.1-.04.15-.04.06,0,.13.03.18.08.06.05.09.12.09.21,0,.04,0,.08-.03.13-.02.05-.04.09-.06.13-.08.15-.18.29-.3.43-.11.14-.24.26-.4.36s-.32.18-.51.24c-.19.06-.4.09-.64.08h0ZM54.02,65.81c0,.09.01.19.04.3.02.1.06.21.12.31.05.1.12.2.19.29s.17.17.27.24c.01-.1.02-.21.02-.31,0-.13,0-.27-.03-.41-.02-.14-.05-.27-.09-.39-.04-.12-.08-.21-.14-.28-.05-.07-.12-.11-.19-.11-.03,0-.07.02-.12.07-.05.04-.07.14-.07.29h0ZM57.48,65.44c-.02.13-.04.26-.07.38-.03.12-.06.22-.09.31-.03.09-.05.16-.07.21-.02.05-.03.08-.04.09-.05.11-.14.17-.26.17-.07,0-.13-.03-.19-.08s-.09-.12-.09-.2c0-.03,0-.05.01-.07s.02-.04.04-.09c.02-.04.04-.12.07-.22.03-.1.07-.27.11-.49-.08,0-.17,0-.26,0-.09,0-.17-.02-.25-.05-.08-.03-.14-.08-.19-.14-.05-.06-.07-.15-.07-.27,0-.08.02-.2.07-.34.05-.14.11-.29.19-.43.08-.14.17-.26.27-.36.1-.1.2-.15.3-.15.11,0,.21.04.28.13.07.08.13.19.17.31.04.12.07.25.09.39.02.13.03.25.03.35h.49c.28,0,.5.05.65.18.15.12.22.33.22.61,0,.11,0,.23-.02.36-.01.12-.03.25-.05.39-.02.13-.04.26-.05.39-.01.13-.02.26-.02.38,0,.18.02.33.07.45s.11.21.19.28c.07.07.15.12.24.15.08.03.16.04.23.04.21,0,.42-.07.61-.21.19-.14.36-.31.52-.51.16-.2.3-.41.43-.63s.23-.41.32-.58c.02-.04.06-.08.1-.1.04-.02.09-.04.14-.04.09,0,.16.03.21.09.05.06.07.12.07.19,0,.05,0,.09-.03.13-.11.2-.25.44-.4.69-.15.26-.33.5-.52.72-.19.22-.41.41-.66.57-.24.15-.51.23-.8.23-.18,0-.35-.03-.51-.1-.16-.07-.3-.16-.42-.29s-.21-.28-.28-.47c-.07-.19-.1-.4-.1-.63,0-.25.02-.5.07-.74.05-.25.07-.48.07-.71,0-.09-.02-.17-.06-.21-.04-.05-.14-.07-.28-.07h-.49ZM56.98,64.89s0-.08,0-.14c0-.06,0-.11-.01-.17,0-.05-.02-.1-.03-.14-.01-.04-.03-.06-.04-.06s-.03.02-.06.06c-.02.04-.05.08-.07.13s-.05.11-.07.17-.03.11-.04.15h.33ZM71.03,66.45s-.05.09-.1.18-.11.2-.19.32c-.08.12-.17.25-.28.39-.11.14-.23.26-.36.38-.13.11-.27.21-.42.28-.15.07-.3.11-.46.11-.26,0-.48-.05-.66-.14s-.33-.2-.44-.31c-.08.17-.18.33-.29.48-.11.14-.24.27-.38.38-.14.11-.29.19-.45.25-.16.06-.32.09-.48.09-.3,0-.56-.09-.78-.27-.21-.18-.39-.42-.54-.72-.14-.3-.25-.65-.33-1.05-.08-.4-.14-.82-.18-1.26-.04-.44-.07-.88-.08-1.33,0-.45-.01-.88-.01-1.28,0-.77.02-1.44.07-2.01.04-.57.11-1.05.18-1.44.08-.4.17-.72.27-.97.1-.25.21-.44.33-.58.11-.14.23-.23.35-.28.12-.05.24-.07.35-.07.18,0,.35.05.49.16.14.11.26.26.36.46.1.2.17.44.22.71s.07.59.07.92c0,.53-.06,1.09-.17,1.65-.11.57-.26,1.14-.45,1.7-.18.57-.39,1.12-.61,1.67-.22.55-.45,1.06-.67,1.55.03.24.07.48.13.7s.14.42.23.59c.09.17.21.31.34.41.13.1.28.15.45.15s.33-.05.48-.15c.15-.1.28-.22.39-.38.11-.16.2-.34.26-.54.06-.2.09-.4.09-.61,0-.14-.01-.28-.04-.42-.03-.14-.07-.27-.13-.38-.06-.11-.13-.2-.21-.27-.08-.07-.19-.1-.31-.1-.09,0-.16.02-.21.06-.05.04-.09.08-.11.13s-.04.09-.04.14v.09c0,.07,0,.14.04.21.03.07.09.13.17.19.08.06.13.14.13.24,0,.08-.03.15-.09.2-.06.05-.12.07-.19.07-.1,0-.19-.03-.27-.09s-.14-.14-.2-.23c-.05-.09-.1-.19-.13-.3-.03-.1-.04-.2-.04-.29,0-.14.02-.28.07-.4.05-.12.12-.23.21-.31.09-.09.19-.15.3-.2.11-.05.23-.07.36-.07.21,0,.4.05.56.15.16.1.29.23.39.4.1.16.18.35.23.56.05.21.07.42.07.64,0,.12,0,.25-.02.37.02.04.05.09.1.16.04.06.1.13.18.19s.16.11.27.16c.1.04.23.07.37.07.12,0,.24-.05.37-.14s.25-.21.37-.34c.12-.14.23-.28.33-.44.1-.16.18-.3.25-.44.02-.05.06-.09.1-.12s.09-.04.15-.04c.08,0,.15.03.21.09.05.06.08.13.08.2,0,.03,0,.07-.03.12h0ZM65.24,65.48c.17-.42.34-.86.52-1.32.17-.46.33-.93.47-1.41.14-.48.25-.96.34-1.45.09-.49.13-.97.13-1.44,0-.18,0-.37-.03-.57-.02-.2-.05-.38-.09-.54-.04-.16-.11-.3-.18-.41-.08-.11-.18-.16-.3-.16-.04,0-.09.03-.15.08-.06.05-.13.14-.2.28-.07.13-.14.32-.21.55-.07.23-.13.53-.19.89-.06.36-.1.8-.14,1.31-.04.51-.06,1.11-.06,1.8,0,.23,0,.46,0,.7,0,.24.01.46.02.68,0,.21.02.41.03.59,0,.18.02.33.03.44h0ZM71.42,67.7c.1.14.24.26.4.35.16.09.37.13.61.13s.46-.06.66-.18c.2-.12.38-.27.55-.46.16-.19.31-.4.44-.64.13-.23.25-.47.35-.7.02-.05.06-.1.1-.12.04-.03.09-.04.15-.04.08,0,.15.03.21.09.05.06.08.12.08.19,0,.02,0,.05,0,.06,0,.02-.01.04-.02.06-.34.76-.72,1.33-1.13,1.71-.41.38-.87.58-1.38.59-.33,0-.61-.06-.85-.19-.24-.13-.44-.29-.59-.49-.15-.2-.27-.43-.34-.68-.07-.25-.11-.51-.11-.76,0-.25.03-.49.09-.7.06-.21.15-.4.27-.56.12-.16.26-.28.42-.37.16-.09.34-.13.54-.13.11,0,.23.02.34.07.11.05.21.11.3.2.09.09.16.19.22.32.05.12.08.27.08.43,0,.2-.03.4-.1.58s-.17.35-.29.5c-.12.15-.27.3-.44.43-.17.13-.35.24-.55.34h0ZM71.19,67.21c.15-.06.3-.15.42-.25s.24-.21.33-.33.16-.25.21-.38.07-.27.07-.4c0-.15-.04-.26-.11-.34-.07-.08-.16-.12-.26-.12-.13,0-.25.04-.34.11-.09.07-.17.17-.23.29-.06.12-.1.25-.13.4-.03.15-.04.29-.04.44,0,.09,0,.18.03.28.02.1.04.19.06.28h0ZM80.5,61.03c0,.08-.03.14-.08.19-.05.05-.12.07-.2.07h-3.8v.08c0,.3-.02.63-.07.97-.04.34-.11.69-.18,1.03-.08.34-.16.68-.26,1-.1.32-.2.62-.3.9-.1.27-.2.51-.3.71-.1.2-.19.35-.27.45.06.23.14.44.23.64.09.2.19.37.3.52.11.15.23.26.36.35.13.08.27.13.42.13.17,0,.35-.07.52-.22.17-.15.33-.32.48-.52.15-.2.28-.41.39-.61.11-.21.19-.37.24-.49.05-.12.14-.18.26-.18.08,0,.15.03.21.09s.08.12.08.19c0,.03,0,.07-.02.1l-.1.24c-.06.12-.14.27-.23.43-.09.16-.2.34-.32.52-.12.18-.26.35-.41.5s-.32.27-.49.37c-.17.1-.36.15-.55.15-.34,0-.65-.11-.93-.34-.27-.22-.51-.54-.7-.94-.19-.4-.34-.88-.44-1.44-.1-.55-.15-1.16-.15-1.82,0-.16,0-.36,0-.58,0-.22.01-.46.03-.7s.04-.5.07-.76c.03-.26.07-.52.12-.77h-2.69c-.08,0-.15-.02-.2-.07-.05-.05-.08-.11-.08-.19s.03-.14.08-.19c.05-.05.12-.07.2-.07h2.81c.05-.18.11-.34.18-.49s.14-.28.23-.39c.09-.11.18-.2.29-.26.11-.06.22-.09.35-.09s.24.03.33.09c.09.06.17.15.24.26.06.11.12.24.15.39.04.15.07.31.09.49h3.83c.08,0,.15.02.2.07.05.05.08.11.08.19h0ZM74.86,65.69c.15-.33.29-.69.41-1.07.12-.38.23-.77.31-1.16.09-.39.15-.77.2-1.15.05-.37.07-.72.07-1.03h-.88c-.07.31-.13.69-.17,1.15-.04.46-.06,1.01-.06,1.67,0,.36,0,.67.03.92.02.25.05.47.09.67h0ZM75.56,60.09s-.11.05-.19.15c-.08.1-.17.27-.25.53h.72c-.02-.21-.06-.37-.11-.49-.05-.12-.1-.18-.16-.18h0ZM74.98,66.23h0s0,0,0,0ZM84.07,61.03c0,.08-.03.14-.08.19-.05.05-.12.07-.2.07h-3.8v.08c0,.3-.02.63-.07.97-.04.34-.11.69-.18,1.03-.08.34-.16.68-.26,1-.1.32-.2.62-.3.9s-.2.51-.3.71c-.1.2-.19.35-.27.45.06.23.14.44.23.64.09.2.19.37.3.52.11.15.23.26.36.35.13.08.27.13.42.13.17,0,.35-.07.52-.22.17-.15.33-.32.48-.52.15-.2.28-.41.39-.61.11-.21.19-.37.24-.49.05-.12.14-.18.26-.18.08,0,.15.03.21.09.05.06.08.12.08.19,0,.03,0,.07-.02.1l-.1.24c-.06.12-.14.27-.23.43-.09.16-.2.34-.32.52-.12.18-.26.35-.41.5-.15.15-.32.27-.49.37-.17.1-.36.15-.55.15-.34,0-.65-.11-.93-.34-.27-.22-.51-.54-.7-.94-.19-.4-.34-.88-.44-1.44-.1-.55-.15-1.16-.15-1.82,0-.16,0-.36,0-.58,0-.22.01-.46.03-.7.01-.25.04-.5.07-.76.03-.26.07-.52.12-.77h-2.69c-.08,0-.15-.02-.2-.07-.05-.05-.08-.11-.08-.19s.03-.14.08-.19c.05-.05.12-.07.2-.07h2.81c.05-.18.11-.34.18-.49.07-.15.14-.28.23-.39.09-.11.18-.2.29-.26.11-.06.22-.09.35-.09s.24.03.33.09c.09.06.17.15.24.26s.12.24.15.39c.04.15.07.31.09.49h3.83c.08,0,.15.02.2.07.05.05.08.11.08.19h0ZM78.44,65.69c.15-.33.29-.69.41-1.07.12-.38.23-.77.31-1.16.09-.39.15-.77.2-1.15.05-.37.07-.72.07-1.03h-.88c-.07.31-.13.69-.17,1.15s-.06,1.01-.06,1.67c0,.36,0,.67.03.92.02.25.05.47.09.67h0ZM79.13,60.09s-.11.05-.19.15c-.08.1-.17.27-.25.53h.72c-.02-.21-.06-.37-.11-.49-.05-.12-.1-.18-.16-.18h0ZM78.56,66.23h0s0,0,0,0ZM82.49,67.7c.1.14.24.26.4.35.16.09.37.13.61.13s.46-.06.66-.18c.2-.12.38-.27.55-.46.16-.19.31-.4.44-.64.13-.23.25-.47.35-.7.02-.05.06-.1.1-.12.04-.03.09-.04.15-.04.08,0,.15.03.21.09.05.06.08.12.08.19,0,.02,0,.05,0,.06,0,.02-.01.04-.02.06-.34.76-.72,1.33-1.13,1.71-.41.38-.87.58-1.38.59-.33,0-.61-.06-.85-.19-.24-.13-.44-.29-.59-.49-.15-.2-.27-.43-.34-.68-.07-.25-.11-.51-.11-.76,0-.25.03-.49.09-.7.06-.21.15-.4.27-.56.12-.16.26-.28.42-.37.16-.09.34-.13.54-.13.11,0,.23.02.34.07.11.05.21.11.3.2.09.09.16.19.22.32.05.12.08.27.08.43,0,.2-.03.4-.1.58-.07.18-.17.35-.29.5-.12.15-.27.3-.44.43-.17.13-.35.24-.55.34h0ZM82.26,67.21c.15-.06.3-.15.42-.25s.24-.21.33-.33c.09-.12.16-.25.21-.38.05-.13.07-.27.07-.4,0-.15-.04-.26-.11-.34s-.16-.12-.26-.12c-.13,0-.25.04-.34.11-.09.07-.17.17-.23.29-.06.12-.1.25-.13.4-.03.15-.04.29-.04.44,0,.09,0,.18.03.28.02.1.04.19.06.28h0ZM86.29,65.44c-.02.13-.04.26-.07.38-.03.12-.06.22-.09.31-.03.09-.05.16-.07.21s-.03.08-.04.09c-.05.11-.14.17-.26.17-.07,0-.13-.03-.19-.08s-.09-.12-.09-.2c0-.03,0-.05.01-.07s.02-.04.04-.09c.02-.04.04-.12.07-.22.03-.1.07-.27.11-.49-.08,0-.17,0-.26,0-.09,0-.17-.02-.25-.05-.08-.03-.14-.08-.19-.14-.05-.06-.07-.15-.07-.27,0-.08.02-.2.07-.34.05-.14.11-.29.19-.43.08-.14.17-.26.27-.36.1-.1.2-.15.3-.15.11,0,.21.04.28.13.07.08.13.19.17.31.04.12.07.25.09.39.02.13.03.25.03.35h.49c.28,0,.5.05.65.18.15.12.22.33.22.61,0,.11,0,.23-.02.36-.01.12-.03.25-.05.39-.02.13-.04.26-.05.39-.01.13-.02.26-.02.38,0,.18.02.33.07.45s.11.21.19.28.15.12.24.15c.08.03.16.04.23.04.21,0,.42-.07.61-.21.19-.14.36-.31.52-.51s.3-.41.43-.63c.13-.22.23-.41.32-.58.02-.04.06-.08.1-.1s.09-.04.14-.04c.09,0,.16.03.21.09.05.06.07.12.07.19,0,.05,0,.09-.03.13-.11.2-.25.44-.4.69-.15.26-.33.5-.52.72-.19.22-.41.41-.66.57-.24.15-.51.23-.8.23-.18,0-.35-.03-.51-.1-.16-.07-.3-.16-.42-.29s-.21-.28-.28-.47c-.07-.19-.1-.4-.1-.63,0-.25.02-.5.07-.74.05-.25.07-.48.07-.71,0-.09-.02-.17-.06-.21-.04-.05-.14-.07-.28-.07h-.49ZM85.79,64.89s0-.08,0-.14,0-.11-.01-.17c0-.05-.02-.1-.03-.14-.01-.04-.03-.06-.04-.06s-.03.02-.06.06c-.02.04-.05.08-.07.13-.02.05-.05.11-.07.17-.02.06-.03.11-.04.15h.33ZM99.59,61.03c0,.08-.03.14-.08.19-.05.05-.12.07-.2.07h-3.8v.08c0,.3-.02.63-.07.97-.04.34-.11.69-.18,1.03-.08.34-.16.68-.26,1-.1.32-.2.62-.3.9-.1.27-.2.51-.3.71-.1.2-.19.35-.27.45.06.23.14.44.23.64.09.2.19.37.3.52.11.15.23.26.36.35.13.08.27.13.42.13.17,0,.35-.07.52-.22.17-.15.33-.32.48-.52.15-.2.28-.41.39-.61.11-.21.19-.37.24-.49.05-.12.14-.18.26-.18.08,0,.15.03.21.09s.08.12.08.19c0,.03,0,.07-.02.1l-.1.24c-.06.12-.14.27-.23.43-.09.16-.2.34-.32.52-.12.18-.26.35-.41.5s-.32.27-.49.37c-.17.1-.36.15-.55.15-.34,0-.65-.11-.93-.34-.27-.22-.51-.54-.7-.94-.19-.4-.34-.88-.44-1.44-.1-.55-.15-1.16-.15-1.82,0-.16,0-.36,0-.58,0-.22.01-.46.03-.7s.04-.5.07-.76c.03-.26.07-.52.12-.77h-2.69c-.08,0-.15-.02-.2-.07-.05-.05-.08-.11-.08-.19s.03-.14.08-.19c.05-.05.12-.07.2-.07h2.81c.05-.18.11-.34.18-.49s.14-.28.23-.39c.09-.11.18-.2.29-.26.11-.06.22-.09.35-.09s.24.03.33.09c.09.06.17.15.24.26.06.11.12.24.15.39.04.15.07.31.09.49h3.83c.08,0,.15.02.2.07.05.05.08.11.08.19h0ZM93.95,65.69c.15-.33.29-.69.41-1.07.12-.38.23-.77.31-1.16.09-.39.15-.77.2-1.15.05-.37.07-.72.07-1.03h-.88c-.07.31-.13.69-.17,1.15-.04.46-.06,1.01-.06,1.67,0,.36,0,.67.03.92.02.25.05.47.09.67h0ZM94.65,60.09s-.11.05-.19.15c-.08.1-.17.27-.25.53h.72c-.02-.21-.06-.37-.11-.49-.05-.12-.1-.18-.16-.18h0ZM94.07,66.23h0s0,0,0,0ZM100.55,67.7c-.12,0-.23,0-.33-.03-.07.15-.16.29-.27.42-.1.13-.23.24-.36.33-.14.09-.29.17-.46.22-.17.05-.35.08-.55.08-.23,0-.45-.04-.64-.12-.19-.08-.36-.2-.51-.34-.14-.15-.26-.32-.34-.53-.08-.21-.12-.44-.12-.69,0-.32.06-.6.17-.83.11-.24.25-.43.4-.59.15-.16.3-.27.45-.35.15-.08.26-.12.34-.12s.14.02.18.07c.04.04.06.11.06.19s-.03.14-.08.18c-.05.04-.12.08-.2.12-.08.04-.16.1-.25.17-.09.07-.17.16-.25.27-.08.11-.14.24-.19.39-.05.15-.07.32-.07.5,0,.16.02.32.07.46.05.14.12.26.22.37s.21.18.34.24.27.09.43.09c.28,0,.52-.07.71-.2.19-.13.33-.3.43-.51-.29-.15-.54-.37-.73-.66-.19-.28-.28-.6-.28-.96,0-.28.07-.52.21-.7s.32-.27.54-.27c.13,0,.26.03.38.1.12.06.23.17.32.31.09.14.17.32.22.54.05.22.08.48.08.79,0,.16-.02.33-.06.5.03,0,.06,0,.09,0h.1c.17,0,.32-.02.46-.06.13-.04.26-.1.37-.18.11-.08.21-.18.3-.31.09-.12.17-.27.25-.43.01-.03.05-.06.1-.09.05-.03.1-.04.15-.04.06,0,.13.03.18.08s.09.12.09.21c0,.04,0,.08-.03.13s-.04.09-.06.13c-.08.15-.18.29-.3.43-.11.14-.24.26-.4.36s-.32.18-.51.24-.4.09-.64.08h0ZM99.27,65.81c0,.09.01.19.04.3.02.1.06.21.12.31.05.1.12.2.19.29s.17.17.27.24c.01-.1.02-.21.02-.31,0-.13,0-.27-.03-.41-.02-.14-.05-.27-.09-.39-.04-.12-.08-.21-.14-.28-.05-.07-.12-.11-.19-.11-.03,0-.07.02-.12.07-.05.04-.07.14-.07.29h0ZM103.67,67.86c.07-.15.17-.34.29-.56.12-.22.24-.45.37-.67.13-.22.25-.44.37-.64.12-.2.23-.35.31-.46.14-.17.29-.3.45-.37s.3-.11.43-.11.24.03.33.08c.09.05.17.13.23.22.06.09.1.2.13.32.03.12.04.25.04.39,0,.08,0,.18,0,.31l-.02.42-.04.91c.07-.15.16-.32.25-.5.09-.18.19-.36.29-.54.1-.18.19-.35.28-.51.09-.16.17-.29.25-.39.21-.29.42-.49.6-.59.19-.1.35-.15.5-.15.17,0,.31.03.42.09.11.06.2.14.26.24.06.1.11.21.13.33.02.12.04.23.04.34,0,.17-.01.35-.04.53-.02.18-.04.4-.04.66,0,.1,0,.21.01.31,0,.1.03.2.06.28.03.08.08.14.15.19s.17.07.29.07.25-.03.37-.1c.12-.07.24-.16.36-.27s.22-.23.33-.37c.1-.14.2-.28.28-.42.08-.14.16-.27.22-.4.06-.13.12-.24.16-.33.02-.05.06-.1.1-.13.04-.03.09-.04.15-.04.08,0,.15.03.21.09.05.06.08.13.08.2,0,.03,0,.07-.02.1l-.12.25c-.06.13-.14.28-.24.44-.1.16-.22.33-.35.51-.13.18-.28.35-.44.5-.16.15-.33.28-.52.37-.18.1-.38.15-.58.15-.22,0-.4-.04-.54-.12-.14-.08-.25-.18-.33-.31-.08-.13-.14-.28-.17-.45-.03-.17-.04-.35-.04-.53,0-.24.01-.47.04-.68.02-.21.04-.37.04-.49,0-.12-.01-.21-.03-.28-.02-.06-.05-.11-.08-.14-.03-.03-.06-.04-.09-.05h-.07c-.12,0-.25.07-.38.2s-.27.31-.41.53-.28.47-.43.75l-.45.85-.21.4c-.06.1-.12.19-.17.25-.05.06-.1.1-.15.13-.05.02-.1.04-.16.04-.13,0-.23-.04-.3-.13s-.1-.21-.1-.35c0-.07,0-.17,0-.3v-.41c.02-.15.03-.3.04-.46,0-.16.02-.31.02-.46v-.39c.02-.11.02-.2.02-.26,0-.13-.02-.22-.07-.28-.04-.06-.1-.09-.15-.09-.06,0-.12.02-.19.06-.07.04-.15.12-.24.23-.07.09-.16.22-.27.39-.11.17-.22.36-.34.57-.12.21-.24.42-.36.64s-.22.42-.3.59c-.1.21-.21.35-.31.43-.1.08-.21.12-.31.12-.14,0-.25-.04-.32-.13-.07-.09-.1-.2-.1-.35l.1-2.39c0-.12,0-.24-.01-.34-.01-.1-.03-.17-.06-.19-.04,0-.12.1-.24.28-.12.17-.27.48-.45.91-.02.05-.06.1-.11.13-.05.03-.1.04-.16.04-.08,0-.15-.03-.2-.09-.05-.06-.07-.12-.07-.2,0-.03,0-.07.02-.11.22-.53.44-.93.64-1.18.2-.25.4-.38.6-.38.11,0,.21.03.29.08s.14.12.18.2c.04.08.08.18.1.28.02.1.03.21.03.31,0,.44,0,.85-.03,1.22l-.07,1.12ZM115.2,67.7c-.12,0-.23,0-.33-.03-.07.15-.16.29-.27.42-.1.13-.23.24-.36.33-.14.09-.29.17-.46.22-.17.05-.35.08-.55.08-.23,0-.45-.04-.64-.12-.19-.08-.36-.2-.51-.34-.14-.15-.26-.32-.34-.53-.08-.21-.12-.44-.12-.69,0-.32.06-.6.17-.83.11-.24.25-.43.4-.59.15-.16.3-.27.45-.35.15-.08.26-.12.34-.12s.14.02.18.07c.04.04.06.11.06.19s-.03.14-.08.18-.12.08-.2.12c-.08.04-.16.1-.25.17-.09.07-.17.16-.25.27-.08.11-.14.24-.19.39-.05.15-.07.32-.07.5,0,.16.02.32.07.46.05.14.12.26.22.37s.21.18.34.24c.13.06.27.09.43.09.28,0,.52-.07.71-.2.19-.13.33-.3.43-.51-.29-.15-.54-.37-.73-.66-.19-.28-.28-.6-.28-.96,0-.28.07-.52.21-.7s.32-.27.54-.27c.13,0,.26.03.38.1.12.06.23.17.32.31.09.14.17.32.22.54.05.22.08.48.08.79,0,.16-.02.33-.06.5.03,0,.06,0,.09,0h.1c.17,0,.32-.02.46-.06.13-.04.26-.1.37-.18.11-.08.21-.18.3-.31.09-.12.17-.27.25-.43.01-.03.05-.06.1-.09.05-.03.1-.04.15-.04.06,0,.13.03.18.08s.09.12.09.21c0,.04,0,.08-.03.13-.02.05-.04.09-.06.13-.08.15-.18.29-.3.43-.11.14-.24.26-.4.36s-.32.18-.51.24c-.19.06-.4.09-.64.08h0ZM113.92,65.81c0,.09.01.19.04.3.02.1.06.21.12.31.05.1.12.2.19.29.08.09.17.17.27.24.01-.1.02-.21.02-.31,0-.13,0-.27-.03-.41-.02-.14-.05-.27-.09-.39-.04-.12-.08-.21-.14-.28-.05-.07-.12-.11-.19-.11-.03,0-.07.02-.12.07-.05.04-.07.14-.07.29h0ZM117.37,65.44c-.02.13-.04.26-.07.38-.03.12-.06.22-.09.31-.03.09-.05.16-.07.21s-.03.08-.04.09c-.05.11-.14.17-.26.17-.07,0-.13-.03-.19-.08-.06-.05-.09-.12-.09-.2,0-.03,0-.05.01-.07s.02-.04.04-.09c.02-.04.04-.12.07-.22.03-.1.07-.27.11-.49-.08,0-.17,0-.26,0-.09,0-.17-.02-.25-.05-.08-.03-.14-.08-.19-.14-.05-.06-.07-.15-.07-.27,0-.08.02-.2.07-.34.05-.14.11-.29.19-.43.08-.14.17-.26.27-.36.1-.1.2-.15.3-.15.11,0,.21.04.28.13.07.08.13.19.17.31.04.12.07.25.09.39.02.13.03.25.03.35h.49c.28,0,.5.05.65.18.15.12.22.33.22.61,0,.11,0,.23-.02.36-.01.12-.03.25-.05.39-.02.13-.04.26-.05.39-.01.13-.02.26-.02.38,0,.18.02.33.07.45s.11.21.19.28c.07.07.15.12.24.15.08.03.16.04.23.04.21,0,.42-.07.61-.21.19-.14.36-.31.52-.51.16-.2.3-.41.43-.63.13-.22.23-.41.32-.58.02-.04.06-.08.1-.1s.09-.04.14-.04c.09,0,.16.03.21.09.05.06.07.12.07.19,0,.05,0,.09-.03.13-.11.2-.25.44-.4.69-.15.26-.33.5-.52.72-.19.22-.41.41-.66.57-.24.15-.51.23-.8.23-.18,0-.35-.03-.51-.1s-.3-.16-.42-.29c-.12-.13-.21-.28-.28-.47-.07-.19-.1-.4-.1-.63,0-.25.02-.5.07-.74s.07-.48.07-.71c0-.09-.02-.17-.06-.21-.04-.05-.14-.07-.28-.07h-.49ZM116.87,64.89s0-.08,0-.14,0-.11-.01-.17c0-.05-.02-.1-.03-.14-.01-.04-.03-.06-.04-.06s-.03.02-.06.06c-.02.04-.05.08-.07.13-.02.05-.05.11-.07.17-.02.06-.03.11-.04.15h.33ZM122.02,65.44c-.02.13-.04.26-.07.38-.03.12-.06.22-.09.31-.03.09-.05.16-.07.21s-.03.08-.04.09c-.05.11-.14.17-.26.17-.07,0-.13-.03-.19-.08-.06-.05-.09-.12-.09-.2,0-.03,0-.05.01-.07s.02-.04.04-.09c.02-.04.04-.12.07-.22.03-.1.07-.27.11-.49-.08,0-.17,0-.26,0-.09,0-.17-.02-.25-.05-.08-.03-.14-.08-.19-.14-.05-.06-.07-.15-.07-.27,0-.08.02-.2.07-.34.05-.14.11-.29.19-.43.08-.14.17-.26.27-.36.1-.1.2-.15.3-.15.11,0,.21.04.28.13.07.08.13.19.17.31.04.12.07.25.09.39.02.13.03.25.03.35h.49c.28,0,.5.05.65.18.15.12.22.33.22.61,0,.11,0,.23-.02.36-.01.12-.03.25-.05.39-.02.13-.04.26-.05.39-.01.13-.02.26-.02.38,0,.18.02.33.07.45s.11.21.19.28c.07.07.15.12.24.15.08.03.16.04.23.04.21,0,.42-.07.61-.21.19-.14.36-.31.52-.51.16-.2.3-.41.43-.63.13-.22.23-.41.32-.58.02-.04.06-.08.1-.1s.09-.04.14-.04c.09,0,.16.03.21.09.05.06.07.12.07.19,0,.05,0,.09-.03.13-.11.2-.25.44-.4.69-.15.26-.33.5-.52.72-.19.22-.41.41-.66.57s-.51.23-.8.23c-.18,0-.35-.03-.51-.1s-.3-.16-.42-.29c-.12-.13-.21-.28-.28-.47-.07-.19-.1-.4-.1-.63,0-.25.02-.5.07-.74.05-.25.07-.48.07-.71,0-.09-.02-.17-.06-.21-.04-.05-.14-.07-.28-.07h-.49ZM121.52,64.89s0-.08,0-.14,0-.11-.01-.17c0-.05-.02-.1-.03-.14-.01-.04-.03-.06-.04-.06s-.03.02-.06.06c-.02.04-.05.08-.07.13-.02.05-.05.11-.07.17-.02.06-.03.11-.04.15h.33ZM129.34,67.7c-.12,0-.23,0-.33-.03-.07.15-.16.29-.27.42-.1.13-.23.24-.36.33s-.29.17-.46.22c-.17.05-.35.08-.55.08-.23,0-.45-.04-.64-.12-.19-.08-.36-.2-.51-.34-.14-.15-.26-.32-.34-.53-.08-.21-.12-.44-.12-.69,0-.32.06-.6.17-.83.11-.24.25-.43.4-.59.15-.16.3-.27.45-.35.15-.08.26-.12.34-.12s.14.02.18.07c.04.04.06.11.06.19s-.03.14-.08.18c-.05.04-.12.08-.2.12s-.16.1-.25.17c-.09.07-.17.16-.25.27-.08.11-.14.24-.19.39-.05.15-.07.32-.07.5,0,.16.02.32.07.46s.12.26.22.37c.09.1.21.18.34.24s.27.09.43.09c.28,0,.52-.07.71-.2.19-.13.33-.3.43-.51-.29-.15-.54-.37-.73-.66-.19-.28-.28-.6-.28-.96,0-.28.07-.52.21-.7.14-.18.32-.27.54-.27.13,0,.26.03.38.1.12.06.23.17.32.31.09.14.17.32.22.54.05.22.08.48.08.79,0,.16-.02.33-.06.5.03,0,.06,0,.09,0h.1c.17,0,.32-.02.46-.06.13-.04.26-.1.37-.18.11-.08.21-.18.3-.31.09-.12.17-.27.25-.43.01-.03.05-.06.1-.09.05-.03.1-.04.15-.04.06,0,.13.03.18.08.06.05.09.12.09.21,0,.04,0,.08-.03.13-.02.05-.04.09-.06.13-.08.15-.18.29-.3.43-.11.14-.24.26-.4.36s-.32.18-.51.24c-.19.06-.4.09-.64.08h0ZM128.06,65.81c0,.09.01.19.04.3.02.1.06.21.12.31.05.1.12.2.19.29.08.09.17.17.27.24.01-.1.02-.21.02-.31,0-.13,0-.27-.03-.41-.02-.14-.05-.27-.09-.39-.04-.12-.08-.21-.14-.28-.05-.07-.12-.11-.19-.11-.03,0-.07.02-.12.07-.05.04-.07.14-.07.29h0ZM135.98,66.44c-.01.26-.05.52-.1.78-.05.26-.14.5-.26.71-.12.21-.27.38-.46.51-.19.13-.42.2-.7.2-.17,0-.33-.03-.46-.08-.13-.05-.25-.12-.34-.21-.1-.09-.18-.19-.24-.3-.06-.11-.12-.23-.16-.36-.17.29-.38.51-.62.67-.24.16-.47.24-.71.24-.19,0-.36-.03-.51-.1-.15-.07-.28-.17-.39-.3-.11-.13-.19-.28-.25-.46s-.09-.38-.09-.61c0-.37.03-.7.1-.97.07-.27.14-.5.22-.67s.16-.31.23-.4l.1-.13s.06-.05.09-.07c.04-.01.08-.02.12-.02.08,0,.15.03.2.09.05.06.08.12.08.2,0,.05-.02.11-.06.18l-.11.17c-.06.08-.12.2-.18.34-.06.14-.11.32-.16.53s-.07.46-.07.75.06.51.18.66c.12.15.29.23.5.23.1,0,.22-.03.34-.09.12-.06.24-.15.35-.27s.2-.27.28-.46c.08-.18.13-.4.15-.65l.1-1.29c0-.07.04-.14.09-.19.06-.05.13-.07.21-.07s.14.03.19.09c.05.06.07.13.07.21l-.08,1.24c-.01.26,0,.49.03.68.03.19.09.35.16.47.07.12.17.21.28.27s.23.09.37.09c.18,0,.33-.05.46-.16.12-.1.22-.25.3-.43.07-.18.13-.39.16-.63s.05-.49.05-.75c0-.31-.02-.58-.05-.79-.03-.21-.05-.35-.05-.42s.03-.14.08-.19c.05-.06.12-.09.19-.09.07,0,.14.02.19.06.05.04.08.1.1.17l.04.17c.02.09.06.21.1.34.04.13.1.27.18.42.07.15.16.28.26.41.1.12.22.23.35.31.13.08.28.12.45.12.09,0,.18-.02.24-.06.07-.04.12-.08.17-.13.04-.05.08-.1.1-.14l.04-.08c.02-.05.06-.1.11-.13.05-.03.1-.05.15-.05.08,0,.15.03.21.09.05.06.08.13.08.19s-.03.15-.08.25c-.05.1-.13.2-.22.29-.09.09-.21.17-.35.24-.14.07-.29.1-.45.1-.14,0-.28-.02-.4-.06-.12-.04-.24-.1-.35-.17-.11-.07-.21-.15-.3-.24-.09-.09-.17-.18-.25-.28h0Z"/>
  </g>
</svg>