<?xml version="1.0" encoding="UTF-8"?>
<svg id="Layer_2" data-name="Layer 2" xmlns="http://www.w3.org/2000/svg" viewBox="0 0 634.78 54.75">
  <defs>
    <style>
      .cls-1 {
        fill: #c3884f;
      }
    </style>
  </defs>
  <g id="Layer_1-2" data-name="Layer 1">
    <g>
      <path class="cls-1" d="M0,42.19V0h5.92v42.19H0ZM3.05,25.82v-5.63h13.49c1.93,0,3.49-.67,4.66-2,1.17-1.33,1.75-3.08,1.75-5.25s-.59-3.98-1.75-5.31c-1.17-1.33-2.72-2-4.66-2H3.05V0h13.29c2.55,0,4.78.54,6.67,1.61,1.9,1.07,3.37,2.58,4.42,4.51,1.05,1.93,1.58,4.21,1.58,6.82s-.53,4.86-1.58,6.79c-1.06,1.93-2.53,3.43-4.42,4.5-1.9,1.06-4.12,1.6-6.67,1.6H3.05Z"/>
      <path class="cls-1" d="M45.35,42.62c-3.95,0-7-1.15-9.17-3.44-2.17-2.29-3.25-5.52-3.25-9.68v-4.9c0-4.12,1.08-7.31,3.25-9.57,2.17-2.26,5.22-3.39,9.17-3.39s7,1.13,9.17,3.39c2.17,2.26,3.25,5.45,3.25,9.57v4.99c0,4.14-1.08,7.35-3.25,9.62-2.17,2.27-5.22,3.41-9.17,3.41ZM45.35,36.99c2.07,0,3.67-.65,4.8-1.94,1.13-1.3,1.7-3.11,1.7-5.45v-4.99c0-2.34-.57-4.15-1.7-5.43-1.13-1.28-2.73-1.92-4.8-1.92s-3.65.64-4.79,1.92c-1.14,1.28-1.71,3.08-1.71,5.43v4.99c0,2.34.57,4.16,1.71,5.45,1.14,1.3,2.74,1.94,4.79,1.94Z"/>
      <path class="cls-1" d="M71.69,42.19l-9.28-30.12h6.18l5.34,21.5,7.51-21.5h4.12l7.51,21.5,5.34-21.5h6.18l-9.28,30.12h-4.47l-7.34-20.8-7.34,20.8h-4.47Z"/>
      <path class="cls-1" d="M122.73,42.62c-4.2,0-7.45-1.17-9.75-3.51-2.3-2.34-3.45-5.67-3.45-9.98v-3.39c0-4.49,1.11-7.96,3.32-10.42,2.21-2.46,5.33-3.68,9.36-3.68,3.79,0,6.73,1.39,8.81,4.18,2.08,2.79,3.12,6.69,3.12,11.72v1.97h-20.31v-4.76h14.68c-.17-2.44-.81-4.34-1.9-5.72-1.09-1.37-2.56-2.06-4.4-2.06-2.22,0-3.96.74-5.19,2.21-1.24,1.47-1.86,3.55-1.86,6.24v3.83c0,2.49.66,4.41,1.99,5.74,1.32,1.33,3.19,2,5.59,2,1.2,0,2.39-.24,3.57-.73,1.18-.48,2.23-1.16,3.16-2.03l3.89,3.89c-1.49,1.43-3.16,2.54-5.02,3.32-1.86.78-3.72,1.18-5.6,1.18Z"/>
      <path class="cls-1" d="M142.26,42.19V12.07h5.92v30.12h-5.92ZM158.83,19.21c-.52-.64-1.18-1.12-1.97-1.45-.79-.33-1.71-.49-2.76-.49-1.88,0-3.33.52-4.37,1.55-1.04,1.04-1.55,2.47-1.55,4.31l-.61-5.8c.91-1.78,2.1-3.17,3.58-4.18,1.48-1.01,3.11-1.51,4.89-1.51,1.37,0,2.62.2,3.73.59,1.11.4,2.08.98,2.92,1.75l-3.86,5.22Z"/>
      <path class="cls-1" d="M179.37,42.62c-4.2,0-7.45-1.17-9.75-3.51-2.3-2.34-3.45-5.67-3.45-9.98v-3.39c0-4.49,1.11-7.96,3.32-10.42,2.21-2.46,5.33-3.68,9.36-3.68,3.79,0,6.73,1.39,8.81,4.18,2.08,2.79,3.12,6.69,3.12,11.72v1.97h-20.31v-4.76h14.68c-.17-2.44-.81-4.34-1.9-5.72-1.09-1.37-2.56-2.06-4.4-2.06-2.22,0-3.96.74-5.19,2.21-1.24,1.47-1.86,3.55-1.86,6.24v3.83c0,2.49.66,4.41,1.99,5.74,1.32,1.33,3.19,2,5.59,2,1.2,0,2.39-.24,3.57-.73,1.18-.48,2.23-1.16,3.16-2.03l3.89,3.89c-1.49,1.43-3.16,2.54-5.02,3.32-1.86.78-3.72,1.18-5.6,1.18Z"/>
      <path class="cls-1" d="M208.44,42.71c-3.33,0-5.9-1.07-7.7-3.21-1.81-2.14-2.71-5.15-2.71-9.04v-6.64c0-3.91.89-6.93,2.65-9.07,1.77-2.14,4.26-3.21,7.47-3.21,1.78,0,3.41.46,4.89,1.39,1.48.93,2.67,2.23,3.58,3.92l-.61,6.15c0-1.28-.23-2.37-.7-3.28-.46-.91-1.14-1.6-2.02-2.07-.88-.47-1.95-.71-3.21-.71-1.95,0-3.47.61-4.54,1.83s-1.61,2.93-1.61,5.14v6.56c0,2.19.54,3.87,1.61,5.06s2.59,1.78,4.54,1.78c1.26,0,2.33-.25,3.21-.74s1.55-1.2,2.02-2.13c.47-.93.7-2.04.7-3.34l.41,6.35c-.54,1.35-1.48,2.57-2.8,3.64-1.33,1.07-3.05,1.61-5.18,1.61ZM216.01,42.19V0h5.92v42.19h-5.92Z"/>
      <path class="cls-1" d="M246.89,42.19V0h5.92v42.19h-5.92ZM260.38,42.62c-1.88,0-3.51-.45-4.9-1.35-1.39-.9-2.42-2.17-3.08-3.82l.41-6.3c0,1.3.23,2.4.7,3.31s1.14,1.61,2.02,2.09,1.95.73,3.21.73c1.95,0,3.47-.59,4.54-1.78,1.07-1.19,1.61-2.87,1.61-5.03v-6.53c0-2.21-.54-3.92-1.61-5.14-1.07-1.22-2.59-1.83-4.54-1.83-1.26,0-2.33.23-3.21.7s-1.55,1.14-2.02,2.03c-.46.89-.7,1.97-.7,3.25l-.61-5.8c.91-1.76,2.1-3.12,3.57-4.08,1.47-.96,3.1-1.44,4.9-1.44,3.23,0,5.73,1.07,7.49,3.21,1.76,2.14,2.64,5.16,2.64,9.07v6.56c0,3.85-.91,6.84-2.73,8.97-1.82,2.13-4.38,3.19-7.69,3.19Z"/>
      <path class="cls-1" d="M286.87,44.65l-12.01-32.58h6.03l9.26,26.17-3.28,6.41ZM295.48,12.07h6.04l-12.82,37.17c-.72,2.07-1.75,3.51-3.11,4.31s-3.21,1.2-5.57,1.2h-1.19v-5.69h1.19c1.1,0,1.98-.22,2.63-.67.65-.45,1.21-1.21,1.7-2.29l11.14-34.03Z"/>
      <path class="cls-1" d="M323.28,42.19V0h5.92v42.19h-5.92ZM326.33,25.82v-5.63h13.49c1.93,0,3.49-.67,4.66-2,1.17-1.33,1.75-3.08,1.75-5.25s-.59-3.98-1.75-5.31c-1.17-1.33-2.72-2-4.66-2h-13.49V0h13.29c2.55,0,4.78.54,6.67,1.61,1.9,1.07,3.37,2.58,4.42,4.51,1.05,1.93,1.58,4.21,1.58,6.82s-.53,4.86-1.58,6.79c-1.06,1.93-2.53,3.43-4.42,4.5-1.9,1.06-4.12,1.6-6.67,1.6h-13.29Z"/>
      <path class="cls-1" d="M368.63,42.62c-3.95,0-7-1.15-9.17-3.44-2.17-2.29-3.25-5.52-3.25-9.68v-4.9c0-4.12,1.08-7.31,3.25-9.57s5.22-3.39,9.17-3.39,7,1.13,9.17,3.39c2.17,2.26,3.25,5.45,3.25,9.57v4.99c0,4.14-1.08,7.35-3.25,9.62-2.17,2.27-5.22,3.41-9.17,3.41ZM368.63,36.99c2.07,0,3.67-.65,4.8-1.94,1.13-1.3,1.7-3.11,1.7-5.45v-4.99c0-2.34-.57-4.15-1.7-5.43-1.13-1.28-2.73-1.92-4.8-1.92s-3.65.64-4.79,1.92c-1.14,1.28-1.71,3.08-1.71,5.43v4.99c0,2.34.57,4.16,1.71,5.45,1.14,1.3,2.74,1.94,4.79,1.94Z"/>
      <path class="cls-1" d="M400.11,42.62c-2.67,0-5.09-.39-7.27-1.18-2.18-.78-4.13-1.96-5.85-3.53l3.51-4.32c1.64,1.24,3.26,2.17,4.86,2.79,1.6.62,3.18.93,4.74.93,2.34,0,4.09-.36,5.27-1.09,1.17-.73,1.76-1.81,1.76-3.26,0-1.12-.39-1.91-1.18-2.38-.78-.46-1.81-.77-3.08-.91-1.27-.14-2.63-.27-4.08-.36-1.22-.1-2.43-.25-3.63-.45s-2.29-.57-3.28-1.1c-.99-.53-1.78-1.32-2.37-2.37s-.89-2.45-.89-4.21c0-3.19.98-5.58,2.93-7.17,1.95-1.59,4.86-2.38,8.73-2.38,2.36,0,4.56.32,6.59.96,2.03.64,3.94,1.62,5.72,2.93l-3.57,4.32c-1.51-.97-2.99-1.69-4.45-2.18-1.46-.48-2.89-.73-4.28-.73-2.01,0-3.52.34-4.53,1.03-1.01.69-1.51,1.72-1.51,3.09,0,.91.35,1.56,1.04,1.96s1.61.65,2.76.77,2.37.22,3.68.32c1.26.08,2.53.22,3.82.42,1.29.2,2.47.59,3.55,1.17,1.08.58,1.95,1.44,2.61,2.58.66,1.14.99,2.7.99,4.67,0,3.23-1.05,5.65-3.15,7.25-2.1,1.61-5.26,2.41-9.47,2.41Z"/>
      <path class="cls-1" d="M430.92,42.62c-2.67,0-5.09-.39-7.27-1.18-2.18-.78-4.13-1.96-5.85-3.53l3.51-4.32c1.64,1.24,3.26,2.17,4.86,2.79,1.6.62,3.18.93,4.74.93,2.34,0,4.09-.36,5.27-1.09,1.17-.73,1.76-1.81,1.76-3.26,0-1.12-.39-1.91-1.18-2.38-.78-.46-1.81-.77-3.08-.91-1.27-.14-2.63-.27-4.08-.36-1.22-.1-2.43-.25-3.63-.45-1.2-.2-2.29-.57-3.28-1.1-.99-.53-1.78-1.32-2.37-2.37s-.89-2.45-.89-4.21c0-3.19.98-5.58,2.93-7.17,1.95-1.59,4.86-2.38,8.73-2.38,2.36,0,4.56.32,6.59.96,2.03.64,3.94,1.62,5.72,2.93l-3.57,4.32c-1.51-.97-2.99-1.69-4.45-2.18-1.46-.48-2.89-.73-4.28-.73-2.01,0-3.52.34-4.53,1.03-1.01.69-1.51,1.72-1.51,3.09,0,.91.35,1.56,1.04,1.96s1.61.65,2.76.77,2.37.22,3.68.32c1.26.08,2.53.22,3.82.42,1.29.2,2.47.59,3.55,1.17,1.08.58,1.95,1.44,2.61,2.58.66,1.14.99,2.7.99,4.67,0,3.23-1.05,5.65-3.15,7.25-2.1,1.61-5.26,2.41-9.47,2.41Z"/>
      <path class="cls-1" d="M451.09,5.92V0h5.92v5.92h-5.92ZM451.09,42.19V12.07h5.92v30.12h-5.92Z"/>
      <path class="cls-1" d="M466,42.19V0h5.92v42.19h-5.92ZM479.49,42.62c-1.88,0-3.51-.45-4.9-1.35-1.39-.9-2.42-2.17-3.08-3.82l.41-6.3c0,1.3.23,2.4.7,3.31s1.14,1.61,2.02,2.09,1.95.73,3.21.73c1.95,0,3.47-.59,4.54-1.78s1.61-2.87,1.61-5.03v-6.53c0-2.21-.54-3.92-1.61-5.14s-2.59-1.83-4.54-1.83c-1.26,0-2.33.23-3.21.7s-1.55,1.14-2.02,2.03c-.46.89-.7,1.97-.7,3.25l-.61-5.8c.91-1.76,2.1-3.12,3.57-4.08,1.47-.96,3.1-1.44,4.9-1.44,3.23,0,5.73,1.07,7.49,3.21,1.76,2.14,2.64,5.16,2.64,9.07v6.56c0,3.85-.91,6.84-2.73,8.97-1.82,2.13-4.38,3.19-7.69,3.19Z"/>
      <path class="cls-1" d="M498.32,5.92V0h5.92v5.92h-5.92ZM498.32,42.19V12.07h5.92v30.12h-5.92Z"/>
      <path class="cls-1" d="M519.16,0v34.41c0,.72.16,1.28.48,1.68.32.41.77.61,1.35.61h2.79v5.63h-3.48c-2.22,0-3.96-.7-5.19-2.09-1.24-1.39-1.86-3.36-1.86-5.89V0h5.92Z"/>
      <path class="cls-1" d="M530.44,5.92V0h5.92v5.92h-5.92ZM530.44,42.19V12.07h5.92v30.12h-5.92Z"/>
      <path class="cls-1" d="M543.03,17.41v-5.34h13.58v5.34h-13.58ZM553.19,42.33c-2.48,0-4.27-.69-5.38-2.06-1.11-1.37-1.67-3.35-1.67-5.92V3.31h5.92v31.1c0,.72.15,1.28.43,1.68.29.41.72.61,1.28.61h2.84v5.63h-3.42Z"/>
      <path class="cls-1" d="M564.74,5.92V0h5.92v5.92h-5.92ZM564.74,42.19V12.07h5.92v30.12h-5.92Z"/>
      <path class="cls-1" d="M591.98,42.62c-4.2,0-7.45-1.17-9.75-3.51-2.3-2.34-3.45-5.67-3.45-9.98v-3.39c0-4.49,1.11-7.96,3.32-10.42,2.21-2.46,5.33-3.68,9.36-3.68,3.79,0,6.73,1.39,8.81,4.18,2.08,2.79,3.12,6.69,3.12,11.72v1.97h-20.31v-4.76h14.68c-.17-2.44-.81-4.34-1.9-5.72-1.09-1.37-2.56-2.06-4.4-2.06-2.22,0-3.96.74-5.19,2.21-1.24,1.47-1.86,3.55-1.86,6.24v3.83c0,2.49.66,4.41,1.99,5.74,1.32,1.33,3.19,2,5.59,2,1.2,0,2.39-.24,3.57-.73,1.18-.48,2.23-1.16,3.16-2.03l3.89,3.89c-1.49,1.43-3.16,2.54-5.02,3.32-1.86.78-3.72,1.18-5.6,1.18Z"/>
      <path class="cls-1" d="M622.16,42.62c-2.67,0-5.09-.39-7.27-1.18-2.18-.78-4.13-1.96-5.85-3.53l3.51-4.32c1.64,1.24,3.26,2.17,4.86,2.79,1.6.62,3.18.93,4.74.93,2.34,0,4.09-.36,5.27-1.09,1.17-.73,1.76-1.81,1.76-3.26,0-1.12-.39-1.91-1.18-2.38-.78-.46-1.81-.77-3.08-.91-1.27-.14-2.63-.27-4.08-.36-1.22-.1-2.43-.25-3.63-.45-1.2-.2-2.29-.57-3.28-1.1-.99-.53-1.78-1.32-2.37-2.37s-.89-2.45-.89-4.21c0-3.19.98-5.58,2.93-7.17,1.95-1.59,4.86-2.38,8.73-2.38,2.36,0,4.56.32,6.59.96,2.03.64,3.94,1.62,5.72,2.93l-3.57,4.32c-1.51-.97-2.99-1.69-4.45-2.18-1.46-.48-2.89-.73-4.28-.73-2.01,0-3.52.34-4.53,1.03-1.01.69-1.51,1.72-1.51,3.09,0,.91.35,1.56,1.04,1.96s1.61.65,2.76.77,2.37.22,3.68.32c1.26.08,2.53.22,3.82.42,1.29.2,2.47.59,3.55,1.17,1.08.58,1.95,1.44,2.61,2.58.66,1.14.99,2.7.99,4.67,0,3.23-1.05,5.65-3.15,7.25-2.1,1.61-5.26,2.41-9.47,2.41Z"/>
    </g>
  </g>
</svg>