<?xml version="1.0" encoding="UTF-8"?>
<svg id="Layer_2" data-name="Layer 2" xmlns="http://www.w3.org/2000/svg" viewBox="0 0 284.4 166.41">
  <defs>
    <style>
      .cls-1 {
        fill: #fff;
      }

      .cls-2 {
        fill: #c3884f;
      }
    </style>
  </defs>
  <g id="Layer_1-2" data-name="Layer 1">
    <path class="cls-2" d="M252.16,15.77c0,9.02,7.18,16.12,15.86,16.12,9.29,0,16.38-7.1,16.38-16.12s-7.1-15.77-16.38-15.77c-8.67,0-15.86,6.83-15.86,15.77h0Z"/>
    <path class="cls-1" d="M0,102.33c0,34.95,27.86,62.73,62.81,62.73,16.91,0,32.68-7.1,43.89-18.22,5.52-5.78,5.52-15.07,0-20.24-2.72-2.98-6.22-4.38-9.81-4.38s-7.36,1.4-10.34,4.38c-6.31,6.05-14.72,9.81-23.74,9.81-15.33,0-28.12-10.07-32.24-23.74h76.74c15.24,0,19.36-8.67,16.38-20.94-4.64-29.52-30.31-51.95-60.89-51.95C27.86,39.77,0,67.63,0,102.33h0ZM94.44,92.51H30.57c4.12-13.93,16.91-24.36,32.24-24.36s27.86,10.43,31.63,24.36h0Z"/>
    <path class="cls-1" d="M253.82,54.32v96.63c0,7.62,6.57,14.1,14.19,14.1,8.24,0,14.72-6.48,14.72-14.1V54.32c0-7.97-6.48-14.54-14.72-14.54-7.62,0-14.19,6.57-14.19,14.54h0Z"/>
    <path class="cls-1" d="M162.77,101.7l-35.05,37.61c-5.63,5.87-5.4,15.16.12,20.51,2.99,2.29,6.19,3.71,9.43,3.81,4.12.13,8.03-1.58,11.1-4.55l33.05-35.22,30.17,37.27c3.23,3.17,7.28,5.14,11.05,5.27,3.33.11,6.35-1.11,9.13-3.21,6.21-4.97,7.3-14.23,1.8-20.45l-32.63-39.8,35.14-37.69c5.88-5.51,5.39-14.81-.49-19.91-2.11-2.52-5.3-4.03-8.89-4.15-4.03-.13-8.47,1.65-11.36,4.28l-32.53,35.58-30.68-37.63c-2.88-3.07-6.68-4.86-10.79-5-3.24-.11-6.53,1.19-9.67,3.54-5.85,4.72-6.68,13.98-1.43,19.85l32.54,39.89Z"/>
  </g>
</svg>